<?xml version="1.0" encoding="utf-8"?>
<!-- Generator: Adobe Illustrator 24.0.1, SVG Export Plug-In . SVG Version: 6.00 Build 0)  -->
<svg version="1.1" id="Layer_1" xmlns="http://www.w3.org/2000/svg" xmlns:xlink="http://www.w3.org/1999/xlink" x="0px" y="0px"
	 viewBox="0 0 1200 698" style="enable-background:new 0 0 1200 698;" xml:space="preserve">
<style type="text/css">
    @import url('https://fonts.googleapis.com/css?family=Merriweather:300|Roboto:300,500,700');
	.st0{fill:none;stroke:#BCBEC0;stroke-width:0.25;stroke-miterlimit:10;}
	.st1{fill:#E6E7E8;stroke:#FFFFFF;stroke-width:0.35;stroke-miterlimit:1;}
	.st2{font-family:'Merriweather';font-weight: 300;}
	.st3{font-size:16px;}
    .st3a{font-size:28px;}
	.st4{font-family:'Roboto';font-weight: 700;}
	.st5{font-family:'Roboto';font-weight: 300;}
	.st6{font-size:14px;}
	.st7{fill:#00B8A5;}
	.st8{fill-rule:evenodd;clip-rule:evenodd;fill:#CCCCCC;}
	.st9{opacity:0;fill:#000000;}
	.st10{font-family:'Roboto';font-weight: 500;}
	.st11{font-size:12px;}
	.st12{opacity:0;fill:#00B8A5;enable-background:new    ;}
    
    .brRect{fill:#000000;}
    .brRank{font-size:28px;font-family:'Roboto';font-weight: 700;opacity:1;fill:#00B8A5;enable-background:new    ;}
    .br{font-size:12px;font-family:'Roboto';font-weight: 500;opacity:1;fill:#000000;}
    .brCircle{fill-rule:evenodd;clip-rule:evenodd;fill:#000000;}
    
    .hover{cursor:pointer;}
    .hover:hover .st7{fill:#000000;}
    .hover:hover .st8{fill:#000000;}
    .hover:hover .st9{opacity:1}
    .hover:hover .st12{opacity:1;}
    
    .all:hover .brRect{fill:#00B8A5;}
    .all:hover .brRank{opacity:0;}
    .all:hover .br{opacity:0;}
    .all:hover .brCircle{fill:#000000;}
    
    #london:hover .brRect{fill:#000000;}
    #london:hover .brRank{opacity:1;}
    #london:hover .br{opacity:1;}
    #london:hover .brCircle{fill:#000000;}
</style>
<image style="overflow:visible;" width="508" height="800" xlink:href="../img/britain.png"  transform="matrix(0.4992 0 0 0.4992 440.32803 296.40274)">
</image>
<path class="st0" d="M525.38171,214.58786c0-29.68715,61.63641-86.29486,137.66907-86.29486s137.66907,56.06461,137.66907,125.22383
	"/>
<path class="st0" d="M800.71985,253.51682c0-29.68715,31.87341-86.29486,71.19135-86.29486s71.19135,56.06461,71.19135,125.22382"/>
<path class="st0" d="M10.60976,175.65857c0-29.68713,87.00664-86.29485,194.33517-86.29485s194.33516,56.0646,194.33516,125.22384"
	/>
<path class="st0" d="M943.10248,292.44577c0-69.15919,16.10071-125.22382,35.96204-125.22382
	c19.86127,0,35.96191,56.06461,35.96191,125.22382"/>
<path class="st0" d="M1015.02643,292.44577c0-69.15919,9.47968-125.22382,21.1734-125.22382s21.17334,56.06461,21.17334,125.22382"
	/>
<path class="st0" d="M1069.2041,292.44577c0-69.15919,9.47961-125.22382,21.17346-125.22382
	c11.69373,0,21.17334,56.06461,21.17334,125.22382"/>
<path class="st0" d="M1057.37317,292.44577c0-69.15919,2.64844-125.22382,5.91553-125.22382
	c3.26697,0,5.91541,56.06461,5.91541,125.22382"/>
<path class="st0" d="M399.28009,214.58754c0-69.15921,28.22882-125.22382,63.05081-125.22382s63.05081,56.06461,63.05081,125.22382"
	/>
<rect x="2" y="172.96428" class="st1" width="5.38862" height="15"/>
<rect x="13.83091" y="172.96428" class="st1" width="5.38862" height="15"/>
<rect x="19.74636" y="172.96428" class="st1" width="5.38862" height="15"/>
<rect x="25.66181" y="172.96428" class="st1" width="5.38862" height="15"/>
<rect x="31.57727" y="172.96428" class="st1" width="5.38862" height="15"/>
<rect x="37.49272" y="172.96428" class="st1" width="5.38862" height="15"/>
<rect x="49.32363" y="172.96428" class="st1" width="5.38862" height="15"/>
<rect x="55.23908" y="172.96428" class="st1" width="5.38862" height="15"/>
<rect x="62.09307" y="172.96428" class="st1" width="5.38862" height="15"/>
<rect x="68.00853" y="172.96428" class="st1" width="5.38862" height="15"/>
<rect x="73.92398" y="172.96428" class="st1" width="5.38862" height="15"/>
<rect x="79.83944" y="172.96428" class="st1" width="5.38862" height="15"/>
<rect x="85.75489" y="172.96428" class="st1" width="5.38862" height="15"/>
<rect x="91.67034" y="172.96428" class="st1" width="5.38862" height="15"/>
<rect x="97.58579" y="172.96428" class="st1" width="5.38862" height="15"/>
<rect x="103.50125" y="172.96428" class="st1" width="5.38862" height="15"/>
<rect x="109.4167" y="172.96428" class="st1" width="5.38862" height="15"/>
<rect x="115.33215" y="172.96428" class="st1" width="5.38862" height="15"/>
<rect x="122.18615" y="172.96428" class="st1" width="5.38862" height="15"/>
<rect x="128.10161" y="172.96428" class="st1" width="5.38863" height="15"/>
<rect x="134.01706" y="172.96428" class="st1" width="5.38863" height="15"/>
<rect x="139.93251" y="172.96428" class="st1" width="5.38863" height="15"/>
<rect x="145.84796" y="172.96428" class="st1" width="5.38863" height="15"/>
<rect x="151.76341" y="172.96428" class="st1" width="5.38863" height="15"/>
<rect x="157.67888" y="172.96428" class="st1" width="5.38863" height="15"/>
<rect x="163.59433" y="172.96428" class="st1" width="5.38863" height="15"/>
<rect x="169.50978" y="172.96428" class="st1" width="5.38863" height="15"/>
<rect x="175.42523" y="172.96428" class="st1" width="5.38863" height="15"/>
<rect x="182.27922" y="172.96428" class="st1" width="5.38863" height="15"/>
<rect x="188.19469" y="172.96428" class="st1" width="5.38863" height="15"/>
<rect x="194.11014" y="172.96428" class="st1" width="5.38863" height="15"/>
<rect x="200.02559" y="172.96428" class="st1" width="5.38863" height="15"/>
<rect x="205.94104" y="172.96428" class="st1" width="5.38863" height="15"/>
<rect x="211.85649" y="172.96428" class="st1" width="5.38863" height="15"/>
<rect x="217.77194" y="172.96428" class="st1" width="5.38863" height="15"/>
<rect x="223.68741" y="172.96428" class="st1" width="5.38863" height="15"/>
<rect x="229.60286" y="172.96428" class="st1" width="5.38863" height="15"/>
<rect x="235.51831" y="172.96428" class="st1" width="5.38863" height="15"/>
<rect x="242.3723" y="172.96428" class="st1" width="5.38863" height="15"/>
<rect x="248.28775" y="172.96428" class="st1" width="5.38863" height="15"/>
<rect x="254.20322" y="172.96428" class="st1" width="5.38861" height="15"/>
<rect x="260.11865" y="172.96428" class="st1" width="5.38861" height="15"/>
<rect x="266.03412" y="172.96428" class="st1" width="5.38861" height="15"/>
<rect x="271.94958" y="172.96428" class="st1" width="5.38861" height="15"/>
<rect x="277.86502" y="172.96428" class="st1" width="5.38861" height="15"/>
<rect x="283.78049" y="172.96428" class="st1" width="5.38861" height="15"/>
<rect x="289.69592" y="172.96428" class="st1" width="5.38861" height="15"/>
<rect x="295.61139" y="172.96428" class="st1" width="5.38861" height="15"/>
<rect x="301" y="211.89323" class="st1" width="5.38861" height="15"/>
<rect x="306.91547" y="211.89323" class="st1" width="5.38861" height="15"/>
<rect x="312.8309" y="211.89323" class="st1" width="5.38861" height="15"/>
<rect x="318.74637" y="211.89323" class="st1" width="5.38861" height="15"/>
<rect x="324.6618" y="211.89323" class="st1" width="5.38861" height="15"/>
<rect x="330.57727" y="211.89323" class="st1" width="5.38861" height="15"/>
<rect x="336.49271" y="211.89323" class="st1" width="5.38861" height="15"/>
<rect x="342.40817" y="211.89323" class="st1" width="5.38861" height="15"/>
<rect x="348.32364" y="211.89323" class="st1" width="5.38861" height="15"/>
<rect x="354.23907" y="211.89323" class="st1" width="5.38861" height="15"/>
<rect x="361.09308" y="211.89323" class="st1" width="5.38861" height="15"/>
<rect x="367.00851" y="211.89323" class="st1" width="5.38861" height="15"/>
<rect x="372.92398" y="211.89323" class="st1" width="5.38861" height="15"/>
<rect x="378.83945" y="211.89323" class="st1" width="5.38861" height="15"/>
<rect x="384.75488" y="211.89323" class="st1" width="5.38861" height="15"/>
<rect x="390.67035" y="211.89323" class="st1" width="5.38861" height="15"/>
<rect x="402.50125" y="211.89323" class="st1" width="5.38861" height="15"/>
<rect x="408.41672" y="211.89323" class="st1" width="5.38861" height="15"/>
<rect x="414.33215" y="211.89323" class="st1" width="5.38861" height="15"/>
<rect x="421.18616" y="211.89323" class="st1" width="5.38861" height="15"/>
<rect x="427.10159" y="211.89323" class="st1" width="5.38861" height="15"/>
<rect x="433.01706" y="211.89323" class="st1" width="5.38861" height="15"/>
<rect x="438.93253" y="211.89323" class="st1" width="5.38861" height="15"/>
<rect x="444.84796" y="211.89323" class="st1" width="5.38861" height="15"/>
<rect x="450.76343" y="211.89323" class="st1" width="5.38861" height="15"/>
<rect x="456.67886" y="211.89323" class="st1" width="5.38861" height="15"/>
<rect x="462.59433" y="211.89323" class="st1" width="5.38861" height="15"/>
<rect x="468.50977" y="211.89323" class="st1" width="5.38861" height="15"/>
<rect x="474.42523" y="211.89323" class="st1" width="5.38861" height="15"/>
<rect x="481.27924" y="211.89323" class="st1" width="5.38861" height="15"/>
<rect x="487.19467" y="211.89323" class="st1" width="5.38861" height="15"/>
<rect x="493.11014" y="211.89323" class="st1" width="5.38861" height="15"/>
<rect x="499.02557" y="211.89323" class="st1" width="5.38861" height="15"/>
<rect x="504.94104" y="211.89323" class="st1" width="5.38861" height="15"/>
<rect x="510.85651" y="211.89323" class="st1" width="5.38861" height="15"/>
<rect x="516.77197" y="211.89323" class="st1" width="5.38861" height="15"/>
<rect x="528.60284" y="211.89323" class="st1" width="5.38861" height="15"/>
<rect x="534.51831" y="211.89323" class="st1" width="5.38861" height="15"/>
<rect x="541.37231" y="211.89323" class="st1" width="5.38861" height="15"/>
<rect x="547.28778" y="211.89323" class="st1" width="5.38861" height="15"/>
<rect x="553.20319" y="211.89323" class="st1" width="5.38861" height="15"/>
<rect x="559.11865" y="211.89323" class="st1" width="5.38861" height="15"/>
<rect x="565.03412" y="211.89323" class="st1" width="5.38861" height="15"/>
<rect x="570.94958" y="211.89323" class="st1" width="5.38861" height="15"/>
<rect x="576.86505" y="211.89323" class="st1" width="5.38861" height="15"/>
<rect x="582.78046" y="211.89323" class="st1" width="5.38861" height="15"/>
<rect x="588.69592" y="211.89323" class="st1" width="5.38861" height="15"/>
<rect x="594.61139" y="211.89323" class="st1" width="5.38861" height="15"/>
<rect x="600" y="250.82217" class="st1" width="5.38861" height="15"/>
<rect x="605.91547" y="250.82217" class="st1" width="5.38861" height="15"/>
<rect x="611.83093" y="250.82217" class="st1" width="5.38861" height="15"/>
<rect x="617.74634" y="250.82217" class="st1" width="5.38861" height="15"/>
<rect x="623.6618" y="250.82217" class="st1" width="5.38861" height="15"/>
<rect x="629.57727" y="250.82217" class="st1" width="5.38861" height="15"/>
<rect x="635.49274" y="250.82217" class="st1" width="5.38861" height="15"/>
<rect x="641.4082" y="250.82217" class="st1" width="5.38861" height="15"/>
<rect x="647.32361" y="250.82217" class="st1" width="5.38861" height="15"/>
<rect x="653.23907" y="250.82217" class="st1" width="5.38861" height="15"/>
<rect x="660.09308" y="250.82217" class="st1" width="5.38861" height="15"/>
<rect x="666.00854" y="250.82217" class="st1" width="5.38861" height="15"/>
<rect x="671.92401" y="250.82217" class="st1" width="5.38861" height="15"/>
<rect x="677.83942" y="250.82217" class="st1" width="5.38861" height="15"/>
<rect x="683.75488" y="250.82217" class="st1" width="5.38861" height="15"/>
<rect x="689.67035" y="250.82217" class="st1" width="5.38861" height="15"/>
<rect x="695.58582" y="250.82217" class="st1" width="5.38861" height="15"/>
<rect x="701.50122" y="250.82217" class="st1" width="5.38861" height="15"/>
<rect x="707.41669" y="250.82217" class="st1" width="5.38861" height="15"/>
<rect x="713.33215" y="250.82217" class="st1" width="5.38861" height="15"/>
<rect x="720.18616" y="250.82217" class="st1" width="5.38861" height="15"/>
<rect x="726.10162" y="250.82217" class="st1" width="5.38861" height="15"/>
<rect x="732.01703" y="250.82217" class="st1" width="5.38861" height="15"/>
<rect x="737.9325" y="250.82217" class="st1" width="5.38861" height="15"/>
<rect x="743.84796" y="250.82217" class="st1" width="5.38861" height="15"/>
<rect x="749.76343" y="250.82217" class="st1" width="5.38861" height="15"/>
<rect x="755.67889" y="250.82217" class="st1" width="5.38861" height="15"/>
<rect x="761.5943" y="250.82217" class="st1" width="5.38861" height="15"/>
<rect x="767.50977" y="250.82217" class="st1" width="5.38861" height="15"/>
<rect x="773.42523" y="250.82217" class="st1" width="5.38861" height="15"/>
<rect x="780.27924" y="250.82217" class="st1" width="5.38861" height="15"/>
<rect x="786.1947" y="250.82217" class="st1" width="5.38861" height="15"/>
<rect x="792.11011" y="250.82217" class="st1" width="5.38861" height="15"/>
<rect x="803.94104" y="250.82217" class="st1" width="5.38861" height="15"/>
<rect x="809.85651" y="250.82217" class="st1" width="5.38861" height="15"/>
<rect x="815.77197" y="250.82217" class="st1" width="5.38861" height="15"/>
<rect x="821.68738" y="250.82217" class="st1" width="5.38861" height="15"/>
<rect x="827.60284" y="250.82217" class="st1" width="5.38861" height="15"/>
<rect x="833.51831" y="250.82217" class="st1" width="5.38861" height="15"/>
<rect x="840.37231" y="250.82217" class="st1" width="5.38861" height="15"/>
<rect x="846.28778" y="250.82217" class="st1" width="5.38861" height="15"/>
<rect x="852.20319" y="250.82217" class="st1" width="5.38861" height="15"/>
<rect x="858.11865" y="250.82217" class="st1" width="5.38861" height="15"/>
<rect x="864.03412" y="250.82217" class="st1" width="5.38861" height="15"/>
<rect x="869.94958" y="250.82217" class="st1" width="5.38861" height="15"/>
<rect x="875.86505" y="250.82217" class="st1" width="5.38861" height="15"/>
<rect x="881.78046" y="250.82217" class="st1" width="5.38861" height="15"/>
<rect x="887.69592" y="250.82217" class="st1" width="5.38861" height="15"/>
<rect x="893.61139" y="250.82217" class="st1" width="5.38861" height="15"/>
<rect x="899" y="289.75113" class="st1" width="5.38861" height="15"/>
<rect x="904.91547" y="289.75113" class="st1" width="5.38861" height="15"/>
<rect x="910.83093" y="289.75113" class="st1" width="5.38861" height="15"/>
<rect x="916.74634" y="289.75113" class="st1" width="5.38861" height="15"/>
<rect x="922.6618" y="289.75113" class="st1" width="5.38861" height="15"/>
<rect x="928.57727" y="289.75113" class="st1" width="5.38861" height="15"/>
<rect x="934.49274" y="289.75113" class="st1" width="5.38861" height="15"/>
<rect x="946.32361" y="289.75113" class="st1" width="5.38861" height="15"/>
<rect x="952.23907" y="289.75113" class="st1" width="5.38861" height="15"/>
<rect x="959.09308" y="289.75113" class="st1" width="5.38861" height="15"/>
<rect x="965.00854" y="289.75113" class="st1" width="5.38861" height="15"/>
<rect x="970.92401" y="289.75113" class="st1" width="5.38861" height="15"/>
<rect x="976.83942" y="289.75113" class="st1" width="5.38861" height="15"/>
<rect x="982.75488" y="289.75113" class="st1" width="5.38861" height="15"/>
<rect x="988.67035" y="289.75113" class="st1" width="5.38861" height="15"/>
<rect x="994.58582" y="289.75113" class="st1" width="5.38861" height="15"/>
<rect x="1000.50122" y="289.75113" class="st1" width="5.38861" height="15"/>
<rect x="1006.41669" y="289.75113" class="st1" width="5.38861" height="15"/>
<rect x="1019.18616" y="289.75113" class="st1" width="5.38867" height="15"/>
<rect x="1025.10156" y="289.75113" class="st1" width="5.38867" height="15"/>
<rect x="1031.01709" y="289.75113" class="st1" width="5.38867" height="15"/>
<rect x="1036.9325" y="289.75113" class="st1" width="5.38867" height="15"/>
<rect x="1042.84802" y="289.75113" class="st1" width="5.38867" height="15"/>
<rect x="1048.76343" y="289.75113" class="st1" width="5.38867" height="15"/>
<rect x="1060.59436" y="289.75113" class="st1" width="5.38867" height="15"/>
<rect x="1072.42529" y="289.75113" class="st1" width="5.38867" height="15"/>
<rect x="1079.27917" y="289.75113" class="st1" width="5.38867" height="15"/>
<rect x="1085.1947" y="289.75113" class="st1" width="5.38867" height="15"/>
<rect x="1091.11011" y="289.75113" class="st1" width="5.38867" height="15"/>
<rect x="1097.02563" y="289.75113" class="st1" width="5.38867" height="15"/>
<rect x="1102.94104" y="289.75113" class="st1" width="5.38867" height="15"/>
<rect x="1114.77197" y="289.75113" class="st1" width="5.38867" height="15"/>
<rect x="1120.68738" y="289.75113" class="st1" width="5.38867" height="15"/>
<rect x="1126.60291" y="289.75113" class="st1" width="5.38867" height="15"/>
<rect x="1132.51831" y="289.75113" class="st1" width="5.38867" height="15"/>
<rect x="1139.37231" y="289.75113" class="st1" width="5.38867" height="15"/>
<rect x="1145.28772" y="289.75113" class="st1" width="5.38867" height="15"/>
<rect x="1151.20325" y="289.75113" class="st1" width="5.38867" height="15"/>
<rect x="1157.11865" y="289.75113" class="st1" width="5.38867" height="15"/>
<rect x="1163.03406" y="289.75113" class="st1" width="5.38867" height="15"/>
<rect x="1168.94958" y="289.75113" class="st1" width="5.38867" height="15"/>
<rect x="1174.86499" y="289.75113" class="st1" width="5.38867" height="15"/>
<rect x="1180.78052" y="289.75113" class="st1" width="5.38867" height="15"/>
<rect x="1186.69592" y="289.75113" class="st1" width="5.38867" height="15"/>
<rect x="1192.61133" y="289.75113" class="st1" width="5.38867" height="15"/>
<text transform="matrix(1.00001 0 0 1.00001 126.53989 210.77203)" class="st2 st3">1 to 50</text>
<text transform="matrix(1.00001 0 0 1.00001 417.04404 249.98065)" class="st2 st3">51 to 100</text>
<text transform="matrix(1.00001 0 0 1.00001 712.61975 288.66376)" class="st2 st3">101 to 150</text>
<text transform="matrix(1.00001 0 0 1.00001 1010.29138 327.59985)" class="st2 st3">151 to 200</text>
<text transform="matrix(1 0 0 1 5 30)" class="st5 st6">City position</text>
<text transform="matrix(1 0 0 1 125 350)" class="st4 st3">BRITAIN</text>
<text transform="matrix(1 0 0 1 125 400)" class="st5 st6">Global rank</text>
<rect x="43.40817" y="172.96428" class="st1" width="5.38862" height="15"/>
<g class="all">
<g class="hover">
	<rect x="396.58578" y="211.89323" class="st7" width="5.38861" height="15"/>
	<circle class="st8" cx="609.07697" cy="592.99585" r="3.99996"/>
	<g>
		<text transform="matrix(1 0 0 1 536.82825 596.02026)" class="st9 st10 st11">Birmingham</text>
	</g>
	<text transform="matrix(1 0 0 1 125 380.5)" class="st12 st4 st3a">67 Birmingham</text>
</g>
<g class="hover">
	<rect x="522.68738" y="211.89323" class="st7" width="5.38861" height="15"/>
	<circle class="st8" cx="600.63245" cy="560.52985" r="3.99996"/>
	<g>
		<text transform="matrix(1 0 0 1 541.41815 553.25635)" class="st9 st10 st11">Manchester</text>
	</g>
	<text transform="matrix(1 0 0 1 125 380.5)" class="st12 st4 st3a">88 Manchester</text>
</g>
<g class="hover">
	<rect x="1054.67883" y="289.75113" class="st7" width="5.38867" height="15"/>
	<circle class="st8" cx="612.39764" cy="568.70691" r="3.99996"/>
	<g>
		<text transform="matrix(1 0 0 1 618.80774 572.57123)" class="st9 st10 st11">Sheffield</text>
	</g>
	<text transform="matrix(1 0 0 1 125 380.5)" class="st12 st4 st3a">177 Sheffield</text>
</g>
<g class="hover">
	<rect x="1066.50977" y="289.75113" class="st7" width="5.38867" height="15"/>
	<circle class="st8" cx="506.05698" cy="508.14053" r="3.99996"/>
	<g>
		<text transform="matrix(1 0 0 1 459.8335 511.60367)" class="st9 st10 st11">Belfast</text>
	</g>
	<text transform="matrix(1 0 0 1 125 380.5)" class="st12 st4 st3a">179 Belfast</text>
</g>
<g class="hover">
	<rect x="1012.33215" y="289.75113" class="st7" width="5.38861" height="15"/>
	<circle class="st8" cx="579.86121" cy="561.64404" r="3.99996"/>
	<g>
		<text transform="matrix(1 0 0 1 539.89673 574.81073)" class="st9 st10 st11">Liverpool</text>
	</g>
	<text transform="matrix(1 0 0 1 125 380.5)" class="st12 st4 st3a">170 Liverpool</text>
</g>
<g class="hover">
	<rect x="940.4082" y="289.75113" class="st7" width="5.38861" height="15"/>
	<circle class="st8" cx="614.40179" cy="551.09937" r="3.99996"/>
	<g>
		<text transform="matrix(1 0 0 1 609.50781 543.81256)" class="st9 st10 st11">Leeds</text>
	</g>
	<text transform="matrix(1 0 0 1 125 380.5)" class="st12 st4 st3a">158 West Yorkshire</text>
</g>
<g class="hover">
	<rect x="1108.85645" y="289.75113" class="st7" width="5.38867" height="15"/>
	<circle class="st8" cx="548.93182" cy="453.07681" r="3.99996"/>
	<g>
		<text transform="matrix(1 0 0 1 544.66742 445.88098)" class="st9 st10 st11">Glasgow</text>
	</g>
	<text transform="matrix(1 0 0 1 125 380.5)" class="st12 st4 st3a">186 Glasgow</text>
</g>
<g class="hover">
	<rect x="798.02557" y="250.82217" class="st7" width="5.38861" height="15"/>
	<circle class="st8" cx="591.83588" cy="634.05206" r="3.99996"/>
	<g>
		<text transform="matrix(1 0 0 1 583.16034 649.43433)" class="st9 st10 st11">Bristol</text>
	</g>
	<text transform="matrix(1 0 0 1 125 380.5)" class="st12 st4 st3a">134 Bristol</text>
</g>
<g id="london">
	<rect x="7.91545" y="172.96428" class="brRect" width="5.38862" height="15"/>
	<text transform="matrix(1 0 0 1 125 380.5)" class="brRank">2 London</text>
	<circle class="brCircle" cx="644.7323" cy="632.26923" r="3.99996"/>
	<g>
		<text transform="matrix(1 0 0 1 624.36926 625.26874)" class="br">London</text>
	</g>
</g>
</g>
</svg>
