<?xml version="1.0" encoding="utf-8"?>
<!-- Generator: Adobe Illustrator 24.0.1, SVG Export Plug-In . SVG Version: 6.00 Build 0)  -->
<svg version="1.1" id="Layer_1" xmlns="http://www.w3.org/2000/svg" xmlns:xlink="http://www.w3.org/1999/xlink" x="0px" y="0px"
	 viewBox="0 0 425 1478" style="enable-background:new 0 0 425 1478;" xml:space="preserve">
<style type="text/css">
    @import url('https://fonts.googleapis.com/css?family=Roboto:300,700|Roboto+Condensed:400');
	.st0{fill:#EBEBEC;}
	.st1{fill:#A0D9D9;}
	.st2{font-family:'Roboto Condensed';font-weight: 400;}
	.st3{font-size:13px;}
	.st4{enable-background:new    ;}
	.st5{fill:#010101;}
	.st6{font-family:'Roboto';font-weight: 700;}
	.st7{font-size:16px;}
	.st8{font-family:'Roboto';font-weight: 300;}
	.st9{font-size:14px;}
</style>
<rect y="20.68731" class="st0" width="82.6" height="32.87671"/>
<rect x="85.6" y="20.68731" class="st0" width="82.6" height="32.87671"/>
<rect x="171.2" y="20.68731" class="st0" width="82.6" height="32.87671"/>
<rect x="256.79999" y="20.68731" class="st1" width="82.6" height="32.87671"/>
<rect x="342.39999" y="20.68731" class="st0" width="82.6" height="32.87671"/>
<rect y="57.17101" class="st0" width="82.6" height="32.87671"/>
<rect x="85.6" y="57.17101" class="st0" width="82.6" height="32.87671"/>
<rect x="171.2" y="57.17101" class="st0" width="82.6" height="32.87671"/>
<rect x="256.79999" y="57.17101" class="st0" width="82.6" height="32.87671"/>
<rect x="342.39999" y="57.17101" class="st0" width="82.6" height="32.87671"/>
<rect y="93.65469" class="st0" width="82.6" height="32.87671"/>
<rect x="85.6" y="93.65469" class="st0" width="82.6" height="32.87671"/>
<rect x="171.2" y="93.65469" class="st0" width="82.6" height="32.87671"/>
<rect x="256.79999" y="93.65469" class="st0" width="82.6" height="32.87671"/>
<rect x="342.39999" y="93.65469" class="st0" width="82.6" height="32.87671"/>
<rect y="130.13838" class="st0" width="82.6" height="32.87671"/>
<rect x="85.6" y="130.13838" class="st0" width="82.6" height="32.87671"/>
<rect x="171.2" y="130.13838" class="st0" width="82.6" height="32.87671"/>
<rect x="256.79999" y="130.13838" class="st0" width="82.6" height="32.87671"/>
<rect x="342.39999" y="130.13838" class="st0" width="82.6" height="32.87671"/>
<rect y="166.62209" class="st0" width="82.6" height="32.87671"/>
<rect x="85.6" y="166.62209" class="st0" width="82.6" height="32.87671"/>
<rect x="171.2" y="166.62209" class="st0" width="82.6" height="32.87671"/>
<rect x="256.79999" y="166.62209" class="st0" width="82.6" height="32.87671"/>
<rect x="342.39999" y="166.62209" class="st0" width="82.6" height="32.87671"/>
<rect y="203.10577" class="st0" width="82.6" height="32.87671"/>
<rect x="85.6" y="203.10577" class="st0" width="82.6" height="32.87671"/>
<rect x="171.2" y="203.10577" class="st0" width="82.6" height="32.87671"/>
<rect x="256.79999" y="203.10577" class="st0" width="82.6" height="32.87671"/>
<rect x="342.39999" y="203.10577" class="st0" width="82.6" height="32.87671"/>
<rect y="239.58946" class="st0" width="82.6" height="32.87671"/>
<rect x="85.6" y="239.58946" class="st0" width="82.6" height="32.87671"/>
<rect x="171.2" y="239.58946" class="st0" width="82.6" height="32.87671"/>
<rect x="256.79999" y="239.58946" class="st0" width="82.6" height="32.87671"/>
<rect x="342.39999" y="239.58946" class="st0" width="82.6" height="32.87671"/>
<rect y="276.07315" class="st0" width="82.6" height="32.87671"/>
<rect x="85.6" y="276.07315" class="st0" width="82.6" height="32.87671"/>
<rect x="171.2" y="276.07315" class="st0" width="82.6" height="32.87671"/>
<rect x="256.79999" y="276.07315" class="st0" width="82.6" height="32.87671"/>
<rect x="342.39999" y="276.07315" class="st0" width="82.6" height="32.87671"/>
<rect y="312.55685" class="st0" width="82.6" height="32.87671"/>
<rect x="85.6" y="312.55685" class="st0" width="82.6" height="32.87671"/>
<rect x="171.2" y="312.55685" class="st0" width="82.6" height="32.87671"/>
<rect x="256.79999" y="312.55685" class="st0" width="82.6" height="32.87671"/>
<rect x="342.39999" y="312.55685" class="st0" width="82.6" height="32.87671"/>
<rect y="349.04053" class="st0" width="82.6" height="32.87671"/>
<rect x="85.6" y="349.04053" class="st0" width="82.6" height="32.87671"/>
<rect x="171.2" y="349.04053" class="st0" width="82.6" height="32.87671"/>
<rect x="256.79999" y="349.04053" class="st0" width="82.6" height="32.87671"/>
<rect x="342.39999" y="349.04053" class="st0" width="82.6" height="32.87671"/>
<rect y="385.52423" class="st0" width="82.6" height="32.87671"/>
<rect x="85.6" y="385.52423" class="st0" width="82.6" height="32.87671"/>
<rect x="171.2" y="385.52423" class="st0" width="82.6" height="32.87671"/>
<rect x="256.79999" y="385.52423" class="st0" width="82.6" height="32.87671"/>
<rect x="342.39999" y="385.52423" class="st0" width="82.6" height="32.87671"/>
<rect y="422.00793" class="st0" width="82.6" height="32.87671"/>
<rect x="85.6" y="422.00793" class="st0" width="82.6" height="32.87671"/>
<rect x="171.2" y="422.00793" class="st0" width="82.6" height="32.87671"/>
<rect x="256.79999" y="422.00793" class="st0" width="82.6" height="32.87671"/>
<rect x="342.39999" y="422.00793" class="st0" width="82.6" height="32.87671"/>
<rect y="458.49161" class="st0" width="82.6" height="32.87671"/>
<rect x="85.6" y="458.49161" class="st0" width="82.6" height="32.87671"/>
<rect x="171.2" y="458.49161" class="st0" width="82.6" height="32.87671"/>
<rect x="256.79999" y="458.49161" class="st0" width="82.6" height="32.87671"/>
<rect x="342.39999" y="458.49161" class="st0" width="82.6" height="32.87671"/>
<rect y="494.97531" class="st0" width="82.6" height="32.87671"/>
<rect x="85.6" y="494.97531" class="st0" width="82.6" height="32.87671"/>
<rect x="171.2" y="494.97531" class="st0" width="82.6" height="32.87671"/>
<rect x="256.79999" y="494.97531" class="st0" width="82.6" height="32.87671"/>
<rect x="342.39999" y="494.97531" class="st0" width="82.6" height="32.87671"/>
<rect y="531.45898" class="st0" width="82.6" height="32.87671"/>
<rect x="85.6" y="531.45898" class="st0" width="82.6" height="32.87671"/>
<rect x="171.2" y="531.45898" class="st0" width="82.6" height="32.87671"/>
<rect x="256.79999" y="531.45898" class="st0" width="82.6" height="32.87671"/>
<rect x="342.39999" y="531.45898" class="st0" width="82.6" height="32.87671"/>
<rect y="567.94269" class="st0" width="82.6" height="32.87671"/>
<rect x="85.6" y="567.94269" class="st0" width="82.6" height="32.87671"/>
<rect x="171.2" y="567.94269" class="st0" width="82.6" height="32.87671"/>
<rect x="256.79999" y="567.94269" class="st0" width="82.6" height="32.87671"/>
<rect x="342.39999" y="567.94269" class="st0" width="82.6" height="32.87671"/>
<rect y="604.42639" class="st0" width="82.6" height="32.87671"/>
<rect x="85.6" y="604.42639" class="st0" width="82.6" height="32.87671"/>
<rect x="171.2" y="604.42639" class="st0" width="82.6" height="32.87671"/>
<rect x="256.79999" y="604.42639" class="st0" width="82.6" height="32.87671"/>
<rect x="342.39999" y="604.42639" class="st0" width="82.6" height="32.87671"/>
<rect y="640.9101" class="st0" width="82.6" height="32.87671"/>
<rect x="85.6" y="640.9101" class="st0" width="82.6" height="32.87671"/>
<rect x="171.2" y="640.9101" class="st0" width="82.6" height="32.87671"/>
<rect x="256.79999" y="640.9101" class="st0" width="82.6" height="32.87671"/>
<rect x="342.39999" y="640.9101" class="st0" width="82.6" height="32.87671"/>
<rect y="677.39374" class="st0" width="82.6" height="32.87671"/>
<rect x="85.6" y="677.39374" class="st0" width="82.6" height="32.87671"/>
<rect x="171.2" y="677.39374" class="st0" width="82.6" height="32.87671"/>
<rect x="256.79999" y="677.39374" class="st0" width="82.6" height="32.87671"/>
<rect x="342.39999" y="677.39374" class="st0" width="82.6" height="32.87671"/>
<rect y="713.87744" class="st0" width="82.6" height="32.87671"/>
<rect x="85.6" y="713.87744" class="st0" width="82.6" height="32.87671"/>
<rect x="171.2" y="713.87744" class="st0" width="82.6" height="32.87671"/>
<rect x="256.79999" y="713.87744" class="st0" width="82.6" height="32.87671"/>
<rect x="342.39999" y="713.87744" class="st0" width="82.6" height="32.87671"/>
<rect y="750.37244" class="st0" width="82.6" height="32.87671"/>
<rect x="85.6" y="750.37244" class="st0" width="82.6" height="32.87671"/>
<rect x="171.2" y="750.37244" class="st0" width="82.6" height="32.87671"/>
<rect x="256.79999" y="750.37244" class="st0" width="82.6" height="32.87671"/>
<rect x="342.39999" y="750.37244" class="st0" width="82.6" height="32.87671"/>
<rect y="786.85614" class="st0" width="82.6" height="32.87671"/>
<rect x="85.6" y="786.85614" class="st0" width="82.6" height="32.87671"/>
<rect x="171.2" y="786.85614" class="st0" width="82.6" height="32.87671"/>
<rect x="256.79999" y="786.85614" class="st0" width="82.6" height="32.87671"/>
<rect x="342.39999" y="786.85614" class="st0" width="82.6" height="32.87671"/>
<rect y="823.33984" class="st0" width="82.6" height="32.87671"/>
<rect x="85.6" y="823.33984" class="st0" width="82.6" height="32.87671"/>
<rect x="171.2" y="823.33984" class="st0" width="82.6" height="32.87671"/>
<rect x="256.79999" y="823.33984" class="st0" width="82.6" height="32.87671"/>
<rect x="342.39999" y="823.33984" class="st0" width="82.6" height="32.87671"/>
<rect y="859.82355" class="st0" width="82.6" height="32.87671"/>
<rect x="85.6" y="859.82355" class="st0" width="82.6" height="32.87671"/>
<rect x="171.2" y="859.82355" class="st0" width="82.6" height="32.87671"/>
<rect x="256.79999" y="859.82355" class="st0" width="82.6" height="32.87671"/>
<rect x="342.39999" y="859.82355" class="st0" width="82.6" height="32.87671"/>
<rect y="896.30725" class="st0" width="82.6" height="32.87671"/>
<rect x="85.6" y="896.30725" class="st0" width="82.6" height="32.87671"/>
<rect x="171.2" y="896.30725" class="st0" width="82.6" height="32.87671"/>
<rect x="256.79999" y="896.30725" class="st0" width="82.6" height="32.87671"/>
<rect x="342.39999" y="896.30725" class="st0" width="82.6" height="32.87671"/>
<rect y="932.79089" class="st0" width="82.6" height="32.87671"/>
<rect x="85.6" y="932.79089" class="st0" width="82.6" height="32.87671"/>
<rect x="171.2" y="932.79089" class="st0" width="82.6" height="32.87671"/>
<rect x="256.79999" y="932.79089" class="st0" width="82.6" height="32.87671"/>
<rect x="342.39999" y="932.79089" class="st0" width="82.6" height="32.87671"/>
<rect y="969.2746" class="st0" width="82.6" height="32.87671"/>
<rect x="85.6" y="969.2746" class="st0" width="82.6" height="32.87671"/>
<rect x="171.2" y="969.2746" class="st0" width="82.6" height="32.87671"/>
<rect x="256.79999" y="969.2746" class="st0" width="82.6" height="32.87671"/>
<rect x="342.39999" y="969.2746" class="st0" width="82.6" height="32.87671"/>
<rect y="1005.7583" class="st0" width="82.6" height="32.87671"/>
<rect x="85.6" y="1005.7583" class="st0" width="82.6" height="32.87671"/>
<rect x="171.2" y="1005.7583" class="st0" width="82.6" height="32.87671"/>
<rect x="256.79999" y="1005.7583" class="st0" width="82.6" height="32.87671"/>
<rect x="342.39999" y="1005.7583" class="st0" width="82.6" height="32.87671"/>
<rect y="1042.24194" class="st0" width="82.6" height="32.87671"/>
<rect x="85.6" y="1042.24194" class="st0" width="82.6" height="32.87671"/>
<rect x="171.2" y="1042.24194" class="st0" width="82.6" height="32.87671"/>
<rect x="256.79999" y="1042.24194" class="st0" width="82.6" height="32.87671"/>
<rect x="342.39999" y="1042.24194" class="st0" width="82.6" height="32.87671"/>
<rect y="1078.72571" class="st0" width="82.6" height="32.87671"/>
<rect x="85.6" y="1078.72571" class="st0" width="82.6" height="32.87671"/>
<rect x="171.2" y="1078.72571" class="st0" width="82.6" height="32.87671"/>
<rect x="256.79999" y="1078.72571" class="st0" width="82.6" height="32.87671"/>
<rect x="342.39999" y="1078.72571" class="st0" width="82.6" height="32.87671"/>
<rect y="1115.20935" class="st0" width="82.6" height="32.87671"/>
<rect x="85.6" y="1115.20935" class="st0" width="82.6" height="32.87671"/>
<rect x="171.2" y="1115.20935" class="st0" width="82.6" height="32.87671"/>
<rect x="256.79999" y="1115.20935" class="st0" width="82.6" height="32.87671"/>
<rect x="342.39999" y="1115.20935" class="st0" width="82.6" height="32.87671"/>
<rect y="1151.69312" class="st0" width="82.6" height="32.87671"/>
<rect x="85.6" y="1151.69312" class="st0" width="82.6" height="32.87671"/>
<rect x="171.2" y="1151.69312" class="st0" width="82.6" height="32.87671"/>
<rect x="256.79999" y="1151.69312" class="st0" width="82.6" height="32.87671"/>
<rect x="342.39999" y="1151.69312" class="st0" width="82.6" height="32.87671"/>
<rect y="1188.17676" class="st0" width="82.6" height="32.87671"/>
<rect x="85.6" y="1188.17676" class="st0" width="82.6" height="32.87671"/>
<rect x="171.2" y="1188.17676" class="st0" width="82.6" height="32.87671"/>
<rect x="256.79999" y="1188.17676" class="st0" width="82.6" height="32.87671"/>
<rect x="342.39999" y="1188.17676" class="st0" width="82.6" height="32.87671"/>
<rect y="1224.6604" class="st0" width="82.6" height="32.87671"/>
<rect x="85.6" y="1224.6604" class="st0" width="82.6" height="32.87671"/>
<rect x="171.2" y="1224.6604" class="st0" width="82.6" height="32.87671"/>
<rect x="256.79999" y="1224.6604" class="st0" width="82.6" height="32.87671"/>
<rect x="342.39999" y="1224.6604" class="st0" width="82.6" height="32.87671"/>
<rect y="1261.14417" class="st0" width="82.6" height="32.87671"/>
<rect x="85.6" y="1261.14417" class="st0" width="82.6" height="32.87671"/>
<rect x="171.2" y="1261.14417" class="st0" width="82.6" height="32.87671"/>
<rect x="256.79999" y="1261.14417" class="st0" width="82.6" height="32.87671"/>
<rect x="342.39999" y="1261.14417" class="st0" width="82.6" height="32.87671"/>
<rect y="1297.62781" class="st0" width="82.6" height="32.87671"/>
<rect x="85.6" y="1297.62781" class="st0" width="82.6" height="32.87671"/>
<rect x="171.2" y="1297.62781" class="st0" width="82.6" height="32.87671"/>
<rect x="256.79999" y="1297.62781" class="st0" width="82.6" height="32.87671"/>
<rect x="342.39999" y="1297.62781" class="st0" width="82.6" height="32.87671"/>
<rect y="1334.11157" class="st0" width="82.6" height="32.87671"/>
<rect x="85.6" y="1334.11157" class="st0" width="82.6" height="32.87671"/>
<rect x="171.2" y="1334.11157" class="st0" width="82.6" height="32.87671"/>
<rect x="256.79999" y="1334.11157" class="st0" width="82.6" height="32.87671"/>
<rect x="342.39999" y="1334.11157" class="st0" width="82.6" height="32.87671"/>
<rect y="1370.59521" class="st0" width="82.6" height="32.87671"/>
<rect x="85.6" y="1370.59521" class="st0" width="82.6" height="32.87671"/>
<rect x="171.2" y="1370.59521" class="st0" width="82.6" height="32.87671"/>
<rect x="256.79999" y="1370.59521" class="st0" width="82.6" height="32.87671"/>
<rect x="342.39999" y="1370.59521" class="st0" width="82.6" height="32.87671"/>
<rect y="1407.07886" class="st0" width="82.6" height="32.87671"/>
<rect x="85.6" y="1407.07886" class="st0" width="82.6" height="32.87671"/>
<rect x="171.2" y="1407.07886" class="st0" width="82.6" height="32.87671"/>
<rect x="256.79999" y="1407.07886" class="st0" width="82.6" height="32.87671"/>
<rect x="342.39999" y="1407.07886" class="st0" width="82.6" height="32.87671"/>
<rect y="1443.56262" class="st0" width="82.6" height="32.87671"/>
<rect x="85.6" y="1443.56262" class="st0" width="82.6" height="32.87671"/>
<rect x="171.2" y="1443.56262" class="st0" width="82.6" height="32.87671"/>
<rect x="256.79999" y="1443.56262" class="st0" width="82.6" height="32.87671"/>
<rect x="342.39999" y="1443.56262" class="st0" width="82.6" height="32.87671"/>
<g>
	<rect x="256.79999" y="20.68731" class="st1" width="82.6" height="32.87671"/>
	<text transform="matrix(1 0 0 1 268.52652 40.69144)" class="st2 st3">4 Shenzhen</text>
</g>
<g>
	<rect x="342.39999" y="57.17101" class="st1" width="82.6" height="32.87671"/>
	<text transform="matrix(1 0 0 1 352.08554 77.17514)" class="st2 st3">10 Shanghai</text>
</g>
<g>
	<rect x="171.2" y="93.65469" class="st1" width="82.6" height="32.87671"/>
	<text transform="matrix(1 0 0 1 176.31227 113.65881)" class="st2 st3">13 Hong Kong</text>
</g>
<g>
	<rect x="85.6" y="130.13838" class="st1" width="82.6" height="32.87671"/>
	<text transform="matrix(1 0 0 1 101.62734 150.14252)" class="st2 st3">17 Beijing</text>
</g>
<g>
	<rect x="171.2" y="130.13838" class="st1" width="82.6" height="32.87671"/>
	<text transform="matrix(1 0 0 1 175.75368 150.14252)" class="st2 st3">18 Guangzhou</text>
</g>
<g>
	<rect x="342.39999" y="166.62209" class="st1" width="82.6" height="32.87671"/>
	<text transform="matrix(1 0 0 1 356.88779 186.62619)" class="st2 st3">25 Suzhou</text>
</g>
<g>
	<rect x="85.6" y="312.55685" class="st1" width="82.6" height="32.87671"/>
	<text transform="matrix(1 0 0 1 99.42129 332.56097)" class="st2 st3">42 Nanjing</text>
</g>
<g>
	<rect x="171.2" y="312.55685" class="st1" width="82.6" height="32.87671"/>
	<text transform="matrix(1 0 0 1 187.10329 332.56097)" class="st2 st3">43 Wuhan</text>
</g>
<g>
	<rect x="256.79999" y="312.55685" class="st1" width="82.6" height="32.87671"/>
	<text transform="matrix(1 0 0 1 274.47086 332.56097)" class="st2 st3">44 Taipei</text>
</g>
<g>
	<rect x="256.79999" y="385.52423" class="st1" width="82.6" height="32.87671"/>
	<text transform="matrix(1 0 0 1 267.61246 405.52835)" class="st2 st3">54 Chengdu</text>
</g>
<g>
	<rect x="256.79999" y="458.49161" class="st1" width="82.6" height="32.87671"/>
	<text transform="matrix(1 0 0 1 264.30533 478.49573)" class="st2 st3">64 Hangzhou</text>
</g>
<g>
	<rect x="342.39999" y="458.49161" class="st1" width="82.6" height="32.87671"/>
	<text transform="matrix(1 0 0 1 363.35898 478.49573)" class="st2 st3">65 Wuxi</text>
</g>
<g>
	<rect x="171.2" y="494.97531" class="st1" width="82.6" height="32.87671"/>
	<text transform="matrix(1 0 0 1 179.09547 514.97943)" class="st2 st3">68 Changsha</text>
</g>
<g>
	<rect x="0" y="567.94269" class="st1" width="82.6" height="32.87671"/>
	<text transform="matrix(1 0 0 1 12.05367 587.94684)" class="st2 st3">76 Qingdao</text>
</g>
<g>
	<rect x="0" y="604.42639" class="st1" width="82.6" height="32.87671"/>
	<text transform="matrix(1 0 0 1 5.87105 624.43054)" class="st2 st3">81 Chongqing</text>
</g>
<g>
	<rect x="85.6" y="604.42639" class="st1" width="82.6" height="32.87671"/>
	<text transform="matrix(1 0 0 1 101.7762 624.43054)" class="st2 st3">82 Tianjin</text>
</g>
<g>
	<rect x="256.79999" y="604.42639" class="st1" width="82.6" height="32.87671"/>
	<text transform="matrix(1 0 0 1 271.44937 624.43054)" class="st2 st3">84 Foshan</text>
</g>
<g>
	<rect x="342.39999" y="640.9101" class="st1" width="82.6" height="32.87671"/>
	<text transform="matrix(1 0 0 1 357.46542 660.91425)" class="st2 st3">90 Ningbo</text>
</g>
<g>
	<rect x="256.79999" y="677.39374" class="st1" width="82.6" height="32.87671"/>
	<text transform="matrix(1 0 0 1 261.87128 697.39795)" class="st2 st3">94 Zhengzhou</text>
</g>
<g>
	<rect x="256.79999" y="713.87744" class="st1" width="82.6" height="32.87671"/>
	<text transform="matrix(1 0 0 1 261.51239 733.88159)" class="st2 st3">99 Changzhou</text>
</g>
<g>
	<rect x="256.79999" y="750.37244" class="st1" width="82.6" height="32.87671"/>
	<text transform="matrix(1 0 0 1 261.06171 770.37659)" class="st2 st3">104 Dongguan</text>
</g>
<g>
	<rect x="171.2" y="823.33984" class="st1" width="82.6" height="32.87671"/>
	<text transform="matrix(1 0 0 1 183.98323 843.34399)" class="st2 st3">113 Macao</text>
</g>
<g>
	<rect x="0" y="896.30725" class="st1" width="82.6" height="32.87671"/>
	<text transform="matrix(1 0 0 1 8.37209 916.3114)" class="st2 st3">121 Nantong</text>
</g>
<g>
	<rect x="0" y="932.79089" class="st1" width="82.6" height="32.87671"/>
	<text transform="matrix(1 0 0 1 3.18898 952.79517)" class="st2 st3">126 Kaohsiung</text>
</g>
<g>
	<rect x="0" y="1042.24194" class="st1" width="82.6" height="32.87671"/>
	<text transform="matrix(1 0 0 1 16.15089 1062.24609)" class="st2 st3">141 Jinan</text>
</g>
<g>
	<rect x="342.39999" y="1042.24194" class="st1" width="82.6" height="32.87671"/>
	<text transform="matrix(1 0 0 1 358.92245 1062.24609)" class="st2 st3">145 Hefei</text>
</g>
<g>
	<rect x="171.2" y="1078.72571" class="st1" width="82.6" height="32.87671"/>
	<text transform="matrix(1 0 0 1 175.68385 1098.72986)" class="st2 st3">148 Quanzhou</text>
</g>
<g>
	<rect x="256.79999" y="1078.72571" class="st1" width="82.6" height="32.87671"/>
	<text transform="matrix(1 0 0 1 267.72379 1098.72986)" class="st2 st3">149 Xiamen</text>
</g>
<g>
	<rect x="342.39999" y="1078.72571" class="st1" width="82.6" height="32.87671"/>
	<text transform="matrix(1 0 0 1 361.25839 1098.72986)" class="st2 st3">150 Xian</text>
</g>
<g>
	<rect x="171.2" y="1115.20935" class="st1" width="82.6" height="32.87671"/>
	<text transform="matrix(1 0 0 1 182.7234 1135.21362)" class="st2 st3">153 Fuzhou</text>
</g>
<g>
	<rect x="171.2" y="1188.17676" class="st1" width="82.6" height="32.87671"/>
	<text transform="matrix(1 0 0 1 176.11891 1208.18091)" class="st2 st3">163 Yangzhou</text>
</g>
<g>
	<rect x="171.2" y="1261.14417" class="st1" width="82.6" height="32.87671"/>
	<text transform="matrix(1 0 0 1 183.96754 1281.14844)" class="st2 st3">173 Zhuhai</text>
</g>
<g>
	<rect x="256.79999" y="1261.14417" class="st1" width="82.6" height="32.87671"/>
	<text transform="matrix(1 0 0 1 261.85855 1281.14844)" class="st2 st3">174 Zhenjiang</text>
</g>
<g>
	<rect x="342.39999" y="1261.14417" class="st1" width="82.6" height="32.87671"/>
	<text transform="matrix(1 0 0 1 356.39609 1281.14844)" class="st2 st3">175 Yantai</text>
</g>
<g>
	<rect x="342.39999" y="1297.62781" class="st1" width="82.6" height="32.87671"/>
	<text transform="matrix(1 0 0 1 352.20322 1317.63208)" class="st2 st3">180 Taizhou</text>
</g>
<g>
	<rect x="342.39999" y="1334.11157" class="st1" width="82.6" height="32.87671"/>
	<text transform="matrix(1 0 0 1 356.52597 1354.11572)" class="st2 st3">185 Dalian</text>
</g>
<g>
	<rect x="0" y="1407.07886" class="st1" width="82.6" height="32.87671"/>
	<text transform="matrix(1 0 0 1 11.06636 1427.08301)" class="st2 st3">191 Xuzhou</text>
</g>
<g>
	<rect x="85.6" y="1443.56262" class="st1" width="82.6" height="32.87671"/>
	<text transform="matrix(1 0 0 1 89.89973 1463.56665)" class="st2 st3">197 Nanchang</text>
</g>
<g>
	<rect x="342.39999" y="1443.56262" class="st1" width="82.6" height="32.87671"/>
	<text transform="matrix(1 0 0 1 347.72177 1463.56665)" class="st2 st3">200 Shenyang</text>
</g>
<text transform="matrix(1 0 0 1 2.00006 13.68738)" class="st4"><tspan x="0" y="0" class="st5 st6 st7">CHINA </tspan><tspan x="52.6875" y="0" class="st5 st8 st9">Global rank</tspan></text>
</svg>
