<?xml version="1.0" encoding="utf-8"?>
<!-- Generator: Adobe Illustrator 24.0.1, SVG Export Plug-In . SVG Version: 6.00 Build 0)  -->
<svg version="1.1" xmlns="http://www.w3.org/2000/svg" xmlns:xlink="http://www.w3.org/1999/xlink" x="0px" y="0px"
	 viewBox="0 0 425 875" style="enable-background:new 0 0 425 875;" xml:space="preserve">
<style type="text/css">
    @import url('https://fonts.googleapis.com/css?family=Roboto:100,300,500,700');
	.st0{font-family:'Roboto';font-weight: 100;}
	.st1{font-size:14px;}
	.st2{font-family:'Roboto';font-weight: 300;}
	.st3{fill:#E9155D;}
	.st4{font-family:'Roboto';font-weight: 500;}
	.st5{fill:#999999;}
	.st6{fill:#FFFFFF;}
	.st7{fill:#0077FF;}
	.st8{fill:#FFC10E;}
	.st9{fill:#231F20;}
	.st10{font-family:'Roboto';font-weight: 700;}
	.st11{font-size:18px;}
	.st12{font-family:'Roboto';font-weight: 300;font-style: italic;}
</style>
<g id="Layer_2">
	<g>
		<text transform="matrix(1 0 0 1 9.10474 235.26691)" class="st0 st1">200</text>
	</g>
	<text transform="matrix(1 0 0 1 9.10474 390.20831)" class="st0 st1">400</text>
	<text transform="matrix(1 0 0 1 9.10474 544.99689)" class="st0 st1">600</text>
	<text transform="matrix(1 0 0 1 9.10474 700.09064)" class="st0 st1">800</text>
	<g>
		<text transform="matrix(1 0 0 1 0.00025 863.06866)" class="st0 st1">1006</text>
	</g>
	<g>
		<text transform="matrix(1 0 0 1 201.39252 842.42029)"><tspan x="0" y="0" class="st2 st1">Yichun </tspan><tspan x="45.19873" y="0" class="st3 st4 st1">965</tspan></text>
	</g>
	<text transform="matrix(1 0 0 1 98.07984 162.12315)"><tspan x="0" y="0" class="st5 st2 st1">Haifa,</tspan><tspan x="0" y="15" class="st5 st2 st1">Israel</tspan></text>
	<text transform="matrix(1 0 0 1 98.07993 626.79437)"><tspan x="0" y="0" class="st5 st2 st1">Managua</tspan><tspan x="0" y="15" class="st5 st2 st1">Nicaragua</tspan></text>
	<rect x="93.35472" y="696.4834" class="st6" width="60.17366" height="6.32901"/>
	<text transform="matrix(1 0 0 1 98.0799 704.74402)"><tspan x="0" y="0" class="st5 st2 st1">Bacolod, </tspan><tspan x="0" y="15" class="st5 st2 st1">Philippines</tspan></text>
	<text transform="matrix(1 0 0 1 98.07999 781.30548)"><tspan x="0" y="0" class="st5 st2 st1">Damascus,</tspan><tspan x="0" y="15" class="st5 st2 st1">Syria</tspan></text>
</g>
<g id="Layer_1">
	
		<image style="overflow:visible;" width="782" height="1564" xlink:href="../img/cities-gap-m.png"  transform="matrix(0.49861 0 0 0.49861 35.82751 78.12766)">
	</image>
	<rect x="397.4393" y="78.64868" class="st6" width="4.60908" height="4.03345"/>
	<text transform="matrix(1 0 0 1 37.10149 72.93961)"><tspan x="0" y="0" class="st2 st1">New York </tspan><tspan x="62.32324" y="0" class="st7 st4 st1">1</tspan></text>
	<text transform="matrix(1 0 0 1 35.6623 403.79175)"><tspan x="0" y="0" class="st2 st1">Tucson </tspan><tspan x="49.28711" y="0" class="st7 st4 st1">339</tspan></text>
	<text transform="matrix(1 0 0 1 199.50772 75.47755)"><tspan x="0" y="0" class="st2 st1">Shenzhen </tspan><tspan x="63.71777" y="0" class="st3 st4 st1">4</tspan></text>
	<text transform="matrix(1 0 0 1 377.87595 302.48584)"><tspan x="0" y="0" class="st2 st1">Niigata</tspan><tspan x="9.80273" y="15" class="st8 st4 st1">268</tspan></text>
	<text transform="matrix(1 0 0 1 280.20773 277.79773)"><tspan x="0" y="0" class="st2 st1">Bremen </tspan><tspan x="51.25586" y="0" class="st9 st4 st1">236</tspan></text>
	<text transform="matrix(1 0 0 1 245.42691 116.19741)"><tspan x="0" y="0" class="st2 st1">Hong</tspan><tspan x="0" y="15" class="st2 st1">Kong</tspan><tspan x="0" y="30" class="st3 st4 st1">13</tspan></text>
	<text transform="matrix(1 0 0 1 124.71246 73.70383)"><tspan x="0" y="0" class="st2 st1">London </tspan><tspan x="49.62207" y="0" class="st5 st4 st1">2</tspan></text>
	<text transform="matrix(1 0 0 1 108.24966 340.54785)"><tspan x="0" y="0" class="st2 st1">Newcastle </tspan><tspan x="67.79883" y="0" class="st5 st4 st1">317</tspan></text>
	<text transform="matrix(1 0 0 1 375.15836 77.01487)"><tspan x="0" y="0" class="st2 st1">Tokyo </tspan><tspan x="40.9541" y="0" class="st8 st4 st1">6</tspan></text>
	<text transform="matrix(1 0 0 1 289.32651 78.35918)"><tspan x="0" y="0" class="st2 st1">Munich </tspan><tspan x="48.93164" y="0" class="st9 st4 st1">8</tspan></text>
	<g>
		<g>
			<text transform="matrix(1 0 0 1 212.75092 20.39875)" class="st9 st10 st11">China</text>
		</g>
		<text transform="matrix(1 0 0 1 206.43433 37.43322)" class="st2 st1">291 cities</text>
	</g>
	<g>
		<g>
			<text transform="matrix(1 0 0 1 374.82977 20.39868)" class="st9 st10 st11">Japan</text>
		</g>
		<text transform="matrix(1 0 0 1 374.00012 37.43322)" class="st2 st1">10 cities</text>
	</g>
	<g>
		<g>
			<text transform="matrix(1 0 0 1 281.31833 20.39868)" class="st9 st10 st11">Germany</text>
		</g>
		<text transform="matrix(1 0 0 1 292.15701 37.43322)" class="st2 st1">13 cities</text>
	</g>
	<g>
		<text transform="matrix(1 0 0 1 60.78494 20.39839)" class="st9 st10 st11">US</text>
		<text transform="matrix(1 0 0 1 46.62723 37.43322)" class="st2 st1">73 cities</text>
	</g>
	<g>
		<g>
			<text transform="matrix(1 0 0 1 127.37926 20.39869)" class="st9 st10 st11">Britain</text>
		</g>
		<text transform="matrix(1 0 0 1 128.4704 37.43322)" class="st2 st1">13 cities</text>
	</g>
	<g>
		<text transform="matrix(1 0 0 1 -5.354534e-06 95.37498)" class="st0 st1">Ranking</text>
	</g>
	<rect x="93.35472" y="856.08136" class="st6" width="89.13992" height="6.32901"/>
	<text transform="matrix(1 0 0 1 98.07967 863.34198)" class="st5 st2 st1">Aleppo, Syria</text>
	<rect x="272.19519" y="332.51758" class="st6" width="96.08291" height="8.12828"/>
	<rect x="243.52771" y="230.90857" class="st6" width="63.41395" height="6.32901"/>
	<text transform="matrix(1 0 0 1 245.42712 238.38599)"><tspan x="0" y="0" class="st5 st2 st1">Shenyang</tspan><tspan x="0" y="15" class="st3 st4 st1">200</tspan></text>
	<text transform="matrix(1 0 0 1 245.42682 472.05139)"><tspan x="0" y="0" class="st5 st2 st1">Zhoukou</tspan><tspan x="0" y="16.7998" class="st5 st12 st1">(Included as </tspan><tspan x="0" y="33.6001" class="st5 st12 st1">reference only)</tspan></text>
	<text transform="matrix(1 0 0 1 99.35855 625.12402)"><tspan x="0" y="0" class="st5 st2 st1">Managua,</tspan><tspan x="0" y="16.7998" class="st5 st2 st1">Nicaragua</tspan></text>
	<text transform="matrix(1 0 0 1 99.35855 779.28308)"><tspan x="0" y="0" class="st5 st2 st1">Damascus,</tspan><tspan x="0" y="16.7998" class="st5 st2 st1">Syria</tspan></text>
    

		<text transform="matrix(1 0 0 1 245.39252 830.42029)"><tspan x="0" y="0" class="st2 st1">Yichun </tspan><tspan x="45.19873" y="0" class="st3 st4 st1">965</tspan></text>

</g>
</svg>
