<?xml version="1.0" encoding="utf-8"?>
<!-- Generator: Adobe Illustrator 24.0.1, SVG Export Plug-In . SVG Version: 6.00 Build 0)  -->
<svg version="1.1" id="Layer_2" xmlns="http://www.w3.org/2000/svg" xmlns:xlink="http://www.w3.org/1999/xlink" x="0px" y="0px"
	 viewBox="0 0 960 885" style="enable-background:new 0 0 960 885;" xml:space="preserve">
<style type="text/css">
    @import url('https://fonts.googleapis.com/css?family=Roboto:300,500,700');
	.st0{font-family:'Roboto';font-weight: 100;}
	.st1{font-size:14px;}
	.st2{fill:#999999;}
	.st3{font-family:'Roboto';font-weight: 300;}
    .st3a{font-family:'Roboto';font-weight: 300;font-style: italic;}
	.st4{fill:#E9155D;}
	.st5{font-family:'Roboto';font-weight: 700;}
	.st6{font-size:15px;}
	.st7{fill:#FFFFFF;}
	.st8{fill:#231F20;}
	.st9{font-size:24px;}
	.st10{fill:#0077FF;}
	.st11{fill:#FFC10E;}
</style>
<image style="overflow:visible;" width="1746" height="1572" xlink:href="../img/cities-gap-d.png"  transform="matrix(0.49981 0 0 0.49981 61.61831 86.00999)">
</image>
<g>
	<text transform="matrix(1 0 0 1 52.81351 90.05108)" class="st0 st1">1</text>
</g>
<g>
	<text transform="matrix(1 0 0 1 34.89554 244.26691)" class="st0 st1">200</text>
</g>
<text transform="matrix(1 0 0 1 34.89554 399.20831)" class="st0 st1">400</text>
<text transform="matrix(1 0 0 1 34.89554 553.99689)" class="st0 st1">600</text>
<text transform="matrix(1 0 0 1 34.89554 709.09064)" class="st0 st1">800</text>
<g>
	<text transform="matrix(1 0 0 1 25.79105 872.06866)" class="st0 st1">1006</text>
</g>
<text transform="matrix(1 0 0 1 205.2899 169.91907)" class="st2 st3 st1">Haifa, Israel<tspan x="0" y="16.7998" class="st2 st3a st1">(Included as </tspan><tspan x="0" y="33.6001" class="st2 st3a st1">reference only)</tspan></text>
<text transform="matrix(1 0 0 1 205.2899 325.77682)"><tspan x="0" y="0" class="st2 st3 st1">Ashgabat,</tspan><tspan x="0" y="16.7998" class="st2 st3 st1">Turkmenistan</tspan></text>
<text transform="matrix(1 0 0 1 205.2899 634.72089)" class="st2 st3 st1">Managua, Nicaragua</text>
<text transform="matrix(1 0 0 1 508.98877 246.884)"><tspan x="0" y="0" class="st2 st3 st1">Shenyang </tspan><tspan x="63.90918" y="0" class="st4 st5 st6">200</tspan></text>
<text transform="matrix(1 0 0 1 508.98877 474.36633)"><tspan x="0" y="0" class="st2 st3 st1">Zhoukou </tspan><tspan x="57.38086" y="0" class="st4 st5 st6">500</tspan></text>
<g>
	<text transform="matrix(1 0 0 1 510.52695 841.32129)"><tspan x="0" y="0" class="st3 st6">Yichun </tspan><tspan x="48.42725" y="0" class="st4 st5 st6">965</tspan></text>
</g>
<rect x="204.10379" y="550.58771" class="st7" width="90.83724" height="6.32901"/>
<text transform="matrix(1 0 0 1 205.2899 554.84821)" class="st2 st3 st1">Tomsk, Russia</text>
<rect x="204.10379" y="704.17487" class="st7" width="60.17366" height="6.32901"/>
<text transform="matrix(1 0 0 1 205.2899 708.43542)"><tspan x="0" y="0" class="st2 st3 st1">Bacolod, </tspan><tspan x="0" y="16.7998" class="st2 st3 st1">Philippines</tspan></text>
<text transform="matrix(1 0 0 1 205.2899 870.00024)" class="st2 st3 st1">Aleppo, Syria</text>
<text transform="matrix(1 0 0 1 205.2899 788.87994)" class="st2 st3 st1">Damascus, Syria</text>
<text transform="matrix(1 0 0 1 181.82736 28.12281)" class="st8 st5 st9">US</text>
<g>
	<text transform="matrix(1 0 0 1 337.7879 28.12311)" class="st8 st5 st9">UK</text>
</g>
<g>
	<text transform="matrix(1 0 0 1 501.37723 28.12317)" class="st8 st5 st9">China</text>
</g>
<g>
	<text transform="matrix(1 0 0 1 799.00903 28.1231)" class="st8 st5 st9">Japan</text>
</g>
<g>
	<text transform="matrix(1 0 0 1 654.48547 28.1231)" class="st8 st5 st9">Germany</text>
</g>
<text transform="matrix(1 0 0 1 189.99283 92.56641)"><tspan x="0" y="0" class="st3 st6">New York </tspan><tspan x="66.7749" y="0" class="st10 st5 st6">1</tspan></text>
<text transform="matrix(1 0 0 1 189.99283 403.03745)"><tspan x="0" y="0" class="st3 st6">Tucson </tspan><tspan x="52.80762" y="0" class="st10 st5 st6">399</tspan></text>
<text transform="matrix(1 0 0 1 505.76761 96.0294)"><tspan x="0" y="0" class="st3 st6">Shenzhen </tspan><tspan x="68.26904" y="0" class="st4 st5 st6">4</tspan></text>
<text transform="matrix(1 0 0 1 806.14447 302.24203)"><tspan x="0" y="0" class="st3 st6">Niigata </tspan><tspan x="50.22949" y="0" class="st11 st5 st6">268</tspan></text>
<text transform="matrix(1 0 0 1 662.83545 275.98578)"><tspan x="0" y="0" class="st3 st6">Bremen </tspan><tspan x="54.91699" y="0" class="st5 st6">236</tspan></text>
<text transform="matrix(1 0 0 1 505.76761 123.19741)" class="st3 st6">Hong Kong (13)</text>
<text transform="matrix(1 0 0 1 344.77493 95.04296)"><tspan x="0" y="0" class="st3 st6">London </tspan><tspan x="53.1665" y="0" class="st2 st5 st6">2</tspan></text>
<text transform="matrix(1 0 0 1 344.77493 338.51108)"><tspan x="0" y="0" class="st3 st6">Newcastle </tspan><tspan x="72.6416" y="0" class="st2 st5 st6">317</tspan></text>
<text transform="matrix(1 0 0 1 806.14447 99.09583)"><tspan x="0" y="0" class="st3 st6">Tokyo </tspan><tspan x="43.87939" y="0" class="st11 st5 st6">6</tspan></text>
<text transform="matrix(1 0 0 1 662.83545 99.09583)"><tspan x="0" y="0" class="st3 st6">Munich </tspan><tspan x="52.42676" y="0" class="st5 st6">8</tspan></text>
<text transform="matrix(1 0 0 1 501.37753 45.15765)" class="st3 st1">291 cities</text>
<text transform="matrix(1 0 0 1 799.00848 45.15765)" class="st3 st1">10 cities</text>
<text transform="matrix(1 0 0 1 654.48578 45.15765)" class="st3 st1">13 cities</text>
<text transform="matrix(1 0 0 1 181.82736 45.15765)" class="st3 st1">73 cities</text>
<text transform="matrix(1 0 0 1 337.78772 45.15765)" class="st3 st1">13 cities</text>
<text transform="matrix(1 0 0 1 55.54157 104.37497)"><tspan x="0" y="0" class="st3 st6">Position in</tspan><tspan x="0" y="15" class="st3 st6">the ranking</tspan></text>
</svg>
