<?xml version="1.0" encoding="utf-8"?>
<!-- Generator: Adobe Illustrator 24.0.1, SVG Export Plug-In . SVG Version: 6.00 Build 0)  -->
<svg version="1.1" id="Layer_1" xmlns="http://www.w3.org/2000/svg" xmlns:xlink="http://www.w3.org/1999/xlink" x="0px" y="0px"
	 viewBox="0 0 425 1478" style="enable-background:new 0 0 425 1478;" xml:space="preserve">
<style type="text/css">
    @import url('https://fonts.googleapis.com/css?family=Roboto:300,700|Roboto+Condensed:400');
	.st0{enable-background:new    ;}
	.st1{fill:#010101;}
	.st2{font-family:'Roboto';font-weight: 700;}
	.st3{font-size:16px;}
	.st4{font-family:'Roboto';font-weight: 300;}
	.st5{font-size:14px;}
	.st6{fill:#EBEBEC;}
	.st7{fill:#A0D9D9;}
	.st8{font-family:'Roboto Condensed';font-weight: 400;}
	.st9{font-size:13px;}
</style>
<text transform="matrix(1 0 0 1 2.00006 13.68738)" class="st0"><tspan x="0" y="0" class="st1 st2 st3">GERMANY </tspan><tspan x="80.48438" y="0" class="st1 st4 st5">Global rank</tspan></text>
<rect y="20.687" class="st6" width="82.6" height="32.87671"/>
<rect x="85.6" y="20.687" class="st6" width="82.6" height="32.87671"/>
<rect x="171.2" y="20.687" class="st6" width="82.6" height="32.87671"/>
<rect x="256.79999" y="20.687" class="st6" width="82.6" height="32.87671"/>
<rect x="342.39999" y="20.687" class="st6" width="82.6" height="32.87671"/>
<rect y="57.17069" class="st6" width="82.6" height="32.87671"/>
<rect x="85.6" y="57.17069" class="st6" width="82.6" height="32.87671"/>
<rect x="171.2" y="57.17069" class="st6" width="82.6" height="32.87671"/>
<rect x="256.79999" y="57.17069" class="st6" width="82.6" height="32.87671"/>
<rect x="342.39999" y="57.17069" class="st6" width="82.6" height="32.87671"/>
<rect y="93.65438" class="st6" width="82.6" height="32.87671"/>
<rect x="85.6" y="93.65438" class="st6" width="82.6" height="32.87671"/>
<rect x="171.2" y="93.65438" class="st6" width="82.6" height="32.87671"/>
<rect x="256.79999" y="93.65438" class="st6" width="82.6" height="32.87671"/>
<rect x="342.39999" y="93.65438" class="st6" width="82.6" height="32.87671"/>
<rect y="130.13808" class="st6" width="82.6" height="32.87671"/>
<rect x="85.6" y="130.13808" class="st6" width="82.6" height="32.87671"/>
<rect x="171.2" y="130.13808" class="st6" width="82.6" height="32.87671"/>
<rect x="256.79999" y="130.13808" class="st6" width="82.6" height="32.87671"/>
<rect x="342.39999" y="130.13808" class="st6" width="82.6" height="32.87671"/>
<rect y="166.62177" class="st6" width="82.6" height="32.87671"/>
<rect x="85.6" y="166.62177" class="st6" width="82.6" height="32.87671"/>
<rect x="171.2" y="166.62177" class="st6" width="82.6" height="32.87671"/>
<rect x="256.79999" y="166.62177" class="st6" width="82.6" height="32.87671"/>
<rect x="342.39999" y="166.62177" class="st6" width="82.6" height="32.87671"/>
<rect y="203.10545" class="st6" width="82.6" height="32.87671"/>
<rect x="85.6" y="203.10545" class="st6" width="82.6" height="32.87671"/>
<rect x="171.2" y="203.10545" class="st6" width="82.6" height="32.87671"/>
<rect x="256.79999" y="203.10545" class="st6" width="82.6" height="32.87671"/>
<rect x="342.39999" y="203.10545" class="st6" width="82.6" height="32.87671"/>
<rect y="239.58916" class="st6" width="82.6" height="32.87671"/>
<rect x="85.6" y="239.58916" class="st6" width="82.6" height="32.87671"/>
<rect x="171.2" y="239.58916" class="st6" width="82.6" height="32.87671"/>
<rect x="256.79999" y="239.58916" class="st6" width="82.6" height="32.87671"/>
<rect x="342.39999" y="239.58916" class="st6" width="82.6" height="32.87671"/>
<rect y="276.07285" class="st6" width="82.6" height="32.87671"/>
<rect x="85.6" y="276.07285" class="st6" width="82.6" height="32.87671"/>
<rect x="171.2" y="276.07285" class="st6" width="82.6" height="32.87671"/>
<rect x="256.79999" y="276.07285" class="st6" width="82.6" height="32.87671"/>
<rect x="342.39999" y="276.07285" class="st6" width="82.6" height="32.87671"/>
<rect y="312.55652" class="st6" width="82.6" height="32.87671"/>
<rect x="85.6" y="312.55652" class="st6" width="82.6" height="32.87671"/>
<rect x="171.2" y="312.55652" class="st6" width="82.6" height="32.87671"/>
<rect x="256.79999" y="312.55652" class="st6" width="82.6" height="32.87671"/>
<rect x="342.39999" y="312.55652" class="st6" width="82.6" height="32.87671"/>
<rect y="349.04022" class="st6" width="82.6" height="32.87671"/>
<rect x="85.6" y="349.04022" class="st6" width="82.6" height="32.87671"/>
<rect x="171.2" y="349.04022" class="st6" width="82.6" height="32.87671"/>
<rect x="256.79999" y="349.04022" class="st6" width="82.6" height="32.87671"/>
<rect x="342.39999" y="349.04022" class="st6" width="82.6" height="32.87671"/>
<rect y="385.52393" class="st6" width="82.6" height="32.87671"/>
<rect x="85.6" y="385.52393" class="st6" width="82.6" height="32.87671"/>
<rect x="171.2" y="385.52393" class="st6" width="82.6" height="32.87671"/>
<rect x="256.79999" y="385.52393" class="st6" width="82.6" height="32.87671"/>
<rect x="342.39999" y="385.52393" class="st6" width="82.6" height="32.87671"/>
<rect y="422.0076" class="st6" width="82.6" height="32.87671"/>
<rect x="85.6" y="422.0076" class="st6" width="82.6" height="32.87671"/>
<rect x="171.2" y="422.0076" class="st6" width="82.6" height="32.87671"/>
<rect x="256.79999" y="422.0076" class="st6" width="82.6" height="32.87671"/>
<rect x="342.39999" y="422.0076" class="st6" width="82.6" height="32.87671"/>
<rect y="458.4913" class="st6" width="82.6" height="32.87671"/>
<rect x="85.6" y="458.4913" class="st6" width="82.6" height="32.87671"/>
<rect x="171.2" y="458.4913" class="st6" width="82.6" height="32.87671"/>
<rect x="256.79999" y="458.4913" class="st6" width="82.6" height="32.87671"/>
<rect x="342.39999" y="458.4913" class="st6" width="82.6" height="32.87671"/>
<rect y="494.97501" class="st6" width="82.6" height="32.87671"/>
<rect x="85.6" y="494.97501" class="st6" width="82.6" height="32.87671"/>
<rect x="171.2" y="494.97501" class="st6" width="82.6" height="32.87671"/>
<rect x="256.79999" y="494.97501" class="st6" width="82.6" height="32.87671"/>
<rect x="342.39999" y="494.97501" class="st6" width="82.6" height="32.87671"/>
<rect y="531.45868" class="st6" width="82.6" height="32.87671"/>
<rect x="85.6" y="531.45868" class="st6" width="82.6" height="32.87671"/>
<rect x="171.2" y="531.45868" class="st6" width="82.6" height="32.87671"/>
<rect x="256.79999" y="531.45868" class="st6" width="82.6" height="32.87671"/>
<rect x="342.39999" y="531.45868" class="st6" width="82.6" height="32.87671"/>
<rect y="567.94238" class="st6" width="82.6" height="32.87671"/>
<rect x="85.6" y="567.94238" class="st6" width="82.6" height="32.87671"/>
<rect x="171.2" y="567.94238" class="st6" width="82.6" height="32.87671"/>
<rect x="256.79999" y="567.94238" class="st6" width="82.6" height="32.87671"/>
<rect x="342.39999" y="567.94238" class="st6" width="82.6" height="32.87671"/>
<rect y="604.42609" class="st6" width="82.6" height="32.87671"/>
<rect x="85.6" y="604.42609" class="st6" width="82.6" height="32.87671"/>
<rect x="171.2" y="604.42609" class="st6" width="82.6" height="32.87671"/>
<rect x="256.79999" y="604.42609" class="st6" width="82.6" height="32.87671"/>
<rect x="342.39999" y="604.42609" class="st6" width="82.6" height="32.87671"/>
<rect y="640.90973" class="st6" width="82.6" height="32.87671"/>
<rect x="85.6" y="640.90973" class="st6" width="82.6" height="32.87671"/>
<rect x="171.2" y="640.90973" class="st6" width="82.6" height="32.87671"/>
<rect x="256.79999" y="640.90973" class="st6" width="82.6" height="32.87671"/>
<rect x="342.39999" y="640.90973" class="st6" width="82.6" height="32.87671"/>
<rect y="677.39343" class="st6" width="82.6" height="32.87671"/>
<rect x="85.6" y="677.39343" class="st6" width="82.6" height="32.87671"/>
<rect x="171.2" y="677.39343" class="st6" width="82.6" height="32.87671"/>
<rect x="256.79999" y="677.39343" class="st6" width="82.6" height="32.87671"/>
<rect x="342.39999" y="677.39343" class="st6" width="82.6" height="32.87671"/>
<rect y="713.87714" class="st6" width="82.6" height="32.87671"/>
<rect x="85.6" y="713.87714" class="st6" width="82.6" height="32.87671"/>
<rect x="171.2" y="713.87714" class="st6" width="82.6" height="32.87671"/>
<rect x="256.79999" y="713.87714" class="st6" width="82.6" height="32.87671"/>
<rect x="342.39999" y="713.87714" class="st6" width="82.6" height="32.87671"/>
<rect y="750.37213" class="st6" width="82.6" height="32.87671"/>
<rect x="85.6" y="750.37213" class="st6" width="82.6" height="32.87671"/>
<rect x="171.2" y="750.37213" class="st6" width="82.6" height="32.87671"/>
<rect x="256.79999" y="750.37213" class="st6" width="82.6" height="32.87671"/>
<rect x="342.39999" y="750.37213" class="st6" width="82.6" height="32.87671"/>
<rect y="786.85583" class="st6" width="82.6" height="32.87671"/>
<rect x="85.6" y="786.85583" class="st6" width="82.6" height="32.87671"/>
<rect x="171.2" y="786.85583" class="st6" width="82.6" height="32.87671"/>
<rect x="256.79999" y="786.85583" class="st6" width="82.6" height="32.87671"/>
<rect x="342.39999" y="786.85583" class="st6" width="82.6" height="32.87671"/>
<rect y="823.33954" class="st6" width="82.6" height="32.87671"/>
<rect x="85.6" y="823.33954" class="st6" width="82.6" height="32.87671"/>
<rect x="171.2" y="823.33954" class="st6" width="82.6" height="32.87671"/>
<rect x="256.79999" y="823.33954" class="st6" width="82.6" height="32.87671"/>
<rect x="342.39999" y="823.33954" class="st6" width="82.6" height="32.87671"/>
<rect y="859.82324" class="st6" width="82.6" height="32.87671"/>
<rect x="85.6" y="859.82324" class="st6" width="82.6" height="32.87671"/>
<rect x="171.2" y="859.82324" class="st6" width="82.6" height="32.87671"/>
<rect x="256.79999" y="859.82324" class="st6" width="82.6" height="32.87671"/>
<rect x="342.39999" y="859.82324" class="st6" width="82.6" height="32.87671"/>
<rect y="896.30688" class="st6" width="82.6" height="32.87671"/>
<rect x="85.6" y="896.30688" class="st6" width="82.6" height="32.87671"/>
<rect x="171.2" y="896.30688" class="st6" width="82.6" height="32.87671"/>
<rect x="256.79999" y="896.30688" class="st6" width="82.6" height="32.87671"/>
<rect x="342.39999" y="896.30688" class="st6" width="82.6" height="32.87671"/>
<rect y="932.79059" class="st6" width="82.6" height="32.87671"/>
<rect x="85.6" y="932.79059" class="st6" width="82.6" height="32.87671"/>
<rect x="171.2" y="932.79059" class="st6" width="82.6" height="32.87671"/>
<rect x="256.79999" y="932.79059" class="st6" width="82.6" height="32.87671"/>
<rect x="342.39999" y="932.79059" class="st6" width="82.6" height="32.87671"/>
<rect y="969.27429" class="st6" width="82.6" height="32.87671"/>
<rect x="85.6" y="969.27429" class="st6" width="82.6" height="32.87671"/>
<rect x="171.2" y="969.27429" class="st6" width="82.6" height="32.87671"/>
<rect x="256.79999" y="969.27429" class="st6" width="82.6" height="32.87671"/>
<rect x="342.39999" y="969.27429" class="st6" width="82.6" height="32.87671"/>
<rect y="1005.758" class="st6" width="82.6" height="32.87671"/>
<rect x="85.6" y="1005.758" class="st6" width="82.6" height="32.87671"/>
<rect x="171.2" y="1005.758" class="st6" width="82.6" height="32.87671"/>
<rect x="256.79999" y="1005.758" class="st6" width="82.6" height="32.87671"/>
<rect x="342.39999" y="1005.758" class="st6" width="82.6" height="32.87671"/>
<rect y="1042.2417" class="st6" width="82.6" height="32.87671"/>
<rect x="85.6" y="1042.2417" class="st6" width="82.6" height="32.87671"/>
<rect x="171.2" y="1042.2417" class="st6" width="82.6" height="32.87671"/>
<rect x="256.79999" y="1042.2417" class="st6" width="82.6" height="32.87671"/>
<rect x="342.39999" y="1042.2417" class="st6" width="82.6" height="32.87671"/>
<rect y="1078.72534" class="st6" width="82.6" height="32.87671"/>
<rect x="85.6" y="1078.72534" class="st6" width="82.6" height="32.87671"/>
<rect x="171.2" y="1078.72534" class="st6" width="82.6" height="32.87671"/>
<rect x="256.79999" y="1078.72534" class="st6" width="82.6" height="32.87671"/>
<rect x="342.39999" y="1078.72534" class="st6" width="82.6" height="32.87671"/>
<rect y="1115.20911" class="st6" width="82.6" height="32.87671"/>
<rect x="85.6" y="1115.20911" class="st6" width="82.6" height="32.87671"/>
<rect x="171.2" y="1115.20911" class="st6" width="82.6" height="32.87671"/>
<rect x="256.79999" y="1115.20911" class="st6" width="82.6" height="32.87671"/>
<rect x="342.39999" y="1115.20911" class="st6" width="82.6" height="32.87671"/>
<rect y="1151.69275" class="st6" width="82.6" height="32.87671"/>
<rect x="85.6" y="1151.69275" class="st6" width="82.6" height="32.87671"/>
<rect x="171.2" y="1151.69275" class="st6" width="82.6" height="32.87671"/>
<rect x="256.79999" y="1151.69275" class="st6" width="82.6" height="32.87671"/>
<rect x="342.39999" y="1151.69275" class="st6" width="82.6" height="32.87671"/>
<rect y="1188.17639" class="st6" width="82.6" height="32.87671"/>
<rect x="85.6" y="1188.17639" class="st6" width="82.6" height="32.87671"/>
<rect x="171.2" y="1188.17639" class="st6" width="82.6" height="32.87671"/>
<rect x="256.79999" y="1188.17639" class="st6" width="82.6" height="32.87671"/>
<rect x="342.39999" y="1188.17639" class="st6" width="82.6" height="32.87671"/>
<rect y="1224.66016" class="st6" width="82.6" height="32.87671"/>
<rect x="85.6" y="1224.66016" class="st6" width="82.6" height="32.87671"/>
<rect x="171.2" y="1224.66016" class="st6" width="82.6" height="32.87671"/>
<rect x="256.79999" y="1224.66016" class="st6" width="82.6" height="32.87671"/>
<rect x="342.39999" y="1224.66016" class="st6" width="82.6" height="32.87671"/>
<rect y="1261.1438" class="st6" width="82.6" height="32.87671"/>
<rect x="85.6" y="1261.1438" class="st6" width="82.6" height="32.87671"/>
<rect x="171.2" y="1261.1438" class="st6" width="82.6" height="32.87671"/>
<rect x="256.79999" y="1261.1438" class="st6" width="82.6" height="32.87671"/>
<rect x="342.39999" y="1261.1438" class="st6" width="82.6" height="32.87671"/>
<rect y="1297.62756" class="st6" width="82.6" height="32.87671"/>
<rect x="85.6" y="1297.62756" class="st6" width="82.6" height="32.87671"/>
<rect x="171.2" y="1297.62756" class="st6" width="82.6" height="32.87671"/>
<rect x="256.79999" y="1297.62756" class="st6" width="82.6" height="32.87671"/>
<rect x="342.39999" y="1297.62756" class="st6" width="82.6" height="32.87671"/>
<rect y="1334.11121" class="st6" width="82.6" height="32.87671"/>
<rect x="85.6" y="1334.11121" class="st6" width="82.6" height="32.87671"/>
<rect x="171.2" y="1334.11121" class="st6" width="82.6" height="32.87671"/>
<rect x="256.79999" y="1334.11121" class="st6" width="82.6" height="32.87671"/>
<rect x="342.39999" y="1334.11121" class="st6" width="82.6" height="32.87671"/>
<rect y="1370.59485" class="st6" width="82.6" height="32.87671"/>
<rect x="85.6" y="1370.59485" class="st6" width="82.6" height="32.87671"/>
<rect x="171.2" y="1370.59485" class="st6" width="82.6" height="32.87671"/>
<rect x="256.79999" y="1370.59485" class="st6" width="82.6" height="32.87671"/>
<rect x="342.39999" y="1370.59485" class="st6" width="82.6" height="32.87671"/>
<rect y="1407.07861" class="st6" width="82.6" height="32.87671"/>
<rect x="85.6" y="1407.07861" class="st6" width="82.6" height="32.87671"/>
<rect x="171.2" y="1407.07861" class="st6" width="82.6" height="32.87671"/>
<rect x="256.79999" y="1407.07861" class="st6" width="82.6" height="32.87671"/>
<rect x="342.39999" y="1407.07861" class="st6" width="82.6" height="32.87671"/>
<rect y="1443.56262" class="st6" width="82.6" height="32.87671"/>
<rect x="85.6" y="1443.56262" class="st6" width="82.6" height="32.87671"/>
<rect x="171.2" y="1443.56262" class="st6" width="82.6" height="32.87671"/>
<rect x="256.79999" y="1443.56262" class="st6" width="82.6" height="32.87671"/>
<rect x="342.39999" y="1443.56262" class="st6" width="82.6" height="32.87671"/>
<g>
	<rect x="171.2" y="57.17069" class="st7" width="82.6" height="32.87671"/>
	<text transform="matrix(1 0 0 1 188.97543 77.1748)" class="st8 st9">8 Munich</text>
</g>
<g>
	<rect x="85.6" y="166.62177" class="st7" width="82.6" height="32.87671"/>
	<text transform="matrix(1 0 0 1 95.60922 186.62589)" class="st8 st9">22 Frankfurt</text>
</g>
<g>
	<rect x="171.2" y="203.10545" class="st7" width="82.6" height="32.87671"/>
	<text transform="matrix(1 0 0 1 182.11069 223.10959)" class="st8 st9">28 Stuttgart</text>
</g>
<g>
	<rect x="171.2" y="239.58916" class="st7" width="82.6" height="32.87671"/>
	<text transform="matrix(1 0 0 1 176.76596 259.59326)" class="st8 st9">33 Dusseldorf</text>
</g>
<g>
	<rect x="171.2" y="349.04022" class="st7" width="82.6" height="32.87671"/>
	<text transform="matrix(1 0 0 1 189.90561 369.04437)" class="st8 st9">48 Berlin</text>
</g>
<g>
	<rect x="342.39999" y="349.04022" class="st7" width="82.6" height="32.87671"/>
	<text transform="matrix(1 0 0 1 352.23154 369.04437)" class="st8 st9">50 Hamburg</text>
</g>
<g>
	<rect x="342.39999" y="385.52393" class="st7" width="82.6" height="32.87671"/>
	<text transform="matrix(1 0 0 1 354.7037 405.52805)" class="st8 st9">55 Cologne</text>
</g>
<g>
	<rect x="342.39999" y="531.45868" class="st7" width="82.6" height="32.87671"/>
	<text transform="matrix(1 0 0 1 351.29501 551.46277)" class="st8 st9">75 Hannover</text>
</g>
<g>
	<rect x="342.39999" y="567.94238" class="st7" width="82.6" height="32.87671"/>
	<text transform="matrix(1 0 0 1 360.45468 587.94653)" class="st8 st9">80 Essen</text>
</g>
<g>
	<rect x="171.2" y="713.87714" class="st7" width="82.6" height="32.87671"/>
	<text transform="matrix(1 0 0 1 179.32065 733.88129)" class="st8 st9">98 Dortmund</text>
</g>
<g>
	<rect x="171.2" y="786.85583" class="st7" width="82.6" height="32.87671"/>
	<text transform="matrix(1 0 0 1 180.27914 806.85999)" class="st8 st9">108 Dresden</text>
</g>
<g>
	<rect x="0" y="859.82324" class="st7" width="82.6" height="32.87671"/>
	<text transform="matrix(1 0 0 1 11.81503 879.82739)" class="st8 st9">116 Leipzig</text>
</g>
</svg>
