<?xml version="1.0" encoding="utf-8"?>
<!-- Generator: Adobe Illustrator 24.0.1, SVG Export Plug-In . SVG Version: 6.00 Build 0)  -->
<svg version="1.1" id="Layer_1" xmlns="http://www.w3.org/2000/svg" xmlns:xlink="http://www.w3.org/1999/xlink" x="0px" y="0px"
	 viewBox="0 0 96 540" style="enable-background:new 0 0 96 540;" xml:space="preserve">
<style type="text/css">
    @import url('https://fonts.googleapis.com/css?family=Roboto:300,400');
	.st0{fill:#C9C9C9;}
	.st1{font-family:'Roboto';font-weight: 400;}
	.st2{font-size:15px;}
	.st3{fill:#FFFFFF;}
	.st4{font-family:'Roboto';font-weight: 300;}
	.st5{font-size:16px;}
</style>
<rect x="32.5" y="428.1" class="st0" width="31" height="103.9"/>
<path d="M48,42V28c7.7,0,14,6.3,14,14s-6.3,14-14,14s-14-6.3-14-14s6.3-14,14-14l0,0V42z"/>
<text transform="matrix(1 0 0 1 29.6826 95.9192)" class="st1 st2">3,700</text>
<text transform="matrix(1 0 0 1 29.6826 227.9031)" class="st1 st2">2,846</text>
<path d="M48,175.3v-24.2c13.4,0,24.2,10.9,24.2,24.2S61.4,199.5,48,199.5s-24.2-10.9-24.2-24.2s10.9-24.2,24.2-24.2l0,0
	C48,151.1,48,175.3,48,175.3z"/>
<path d="M48,312.3v-26.8c14.8,0,26.8,12,26.8,26.8c0,14.8-12,26.8-26.8,26.8s-26.8-12-26.8-26.8c0-14.8,12-26.8,26.8-26.8l0,0
	C48,285.5,48,312.3,48,312.3z"/>
<g>
	<text transform="matrix(1 0 0 1 25.4717 374.1724)" class="st1 st2">33,726</text>
</g>
<rect x="32.5" y="446.4" width="31" height="85.6"/>
<g>
	<text transform="matrix(1 0 0 1 33.3922 487.5181)" class="st3 st1 st2">82.4</text>
</g>
<text transform="matrix(1 0 0 1 34.6351 423.8636)" class="st0 st4 st5">100</text>
</svg>
