<?xml version="1.0" encoding="utf-8"?>
<!-- Generator: Adobe Illustrator 24.0.1, SVG Export Plug-In . SVG Version: 6.00 Build 0)  -->
<svg version="1.1" id="Layer_1" xmlns="http://www.w3.org/2000/svg" xmlns:xlink="http://www.w3.org/1999/xlink" x="0px" y="0px"
	 viewBox="0 0 96 540" style="enable-background:new 0 0 96 540;" xml:space="preserve">
<style type="text/css">
    @import url('https://fonts.googleapis.com/css?family=Roboto:300,400');
	.st0{fill:#C9C9C9;}
	.st1{font-family:'Roboto';font-weight: 400;}
	.st2{font-size:15px;}
	.st3{fill:#FFFFFF;}
	.st4{font-family:'Roboto';font-weight: 300;}
	.st5{font-size:16px;}
</style>
<rect x="32.5" y="428.1" class="st0" width="31" height="103.9"/>
<path d="M48,42V23.3c10.3,0,18.7,8.4,18.7,18.7S58.3,60.7,48,60.7S29.3,52.3,29.3,42S37.7,23.3,48,23.3l0,0V42z"/>
<text transform="matrix(1 0 0 1 29.6812 95.9192)" class="st1 st2">6,578</text>
<text transform="matrix(1 0 0 1 29.6812 227.9031)" class="st1 st2">2,490</text>
<path d="M48,175.3v-22.7c12.5,0,22.7,10.1,22.7,22.7c0,12.5-10.1,22.7-22.7,22.7s-22.7-10.1-22.7-22.7c0-12.5,10.1-22.7,22.7-22.7
	l0,0V175.3z"/>
<path d="M48,312.3v-22.8c12.6,0,22.8,10.2,22.8,22.8c0,12.6-10.2,22.8-22.8,22.8s-22.8-10.2-22.8-22.8c0-12.6,10.2-22.8,22.8-22.8
	l0,0V312.3z"/>
<g>
	<text transform="matrix(1 0 0 1 25.4696 374.1724)" class="st1 st2">24,532</text>
</g>
<rect x="32.5" y="436.5" width="31" height="95.5"/>
<g>
	<text transform="matrix(1 0 0 1 39.5762 487.5181)" class="st3 st1 st2">92</text>
</g>
<text transform="matrix(1 0 0 1 34.6351 423.8636)" class="st0 st4 st5">100</text>
</svg>
