<?xml version="1.0" encoding="utf-8"?>
<!-- Generator: Adobe Illustrator 24.0.1, SVG Export Plug-In . SVG Version: 6.00 Build 0)  -->
<svg version="1.1" id="Layer_1" xmlns="http://www.w3.org/2000/svg" xmlns:xlink="http://www.w3.org/1999/xlink" x="0px" y="0px"
	 viewBox="0 0 96 540" style="enable-background:new 0 0 96 540;" xml:space="preserve">
<style type="text/css">
    @import url('https://fonts.googleapis.com/css?family=Roboto:300,400');
	.st0{fill:#C9C9C9;}
	.st1{font-family:'Roboto';font-weight: 400;}
	.st2{font-size:15px;}
	.st3{fill:#FFFFFF;}
	.st4{font-family:'Roboto';font-weight: 300;}
	.st5{font-size:16px;}
</style>
<rect x="32.3" y="428.1" class="st0" width="31" height="103.9"/>
<path d="M48,42V26.2c8.7,0,15.8,7.1,15.8,15.8S56.7,57.8,48,57.8S32.2,50.7,32.2,42S39.3,26.2,48,26.2l0,0V42z"/>
<text transform="matrix(1 0 0 1 29.6821 95.9192)" class="st1 st2">4,700</text>
<text transform="matrix(1 0 0 1 29.6821 227.9031)" class="st1 st2">2,170</text>
<path d="M48,175.3v-21.2c11.7,0,21.2,9.5,21.2,21.2s-9.5,21.2-21.2,21.2s-21.2-9.5-21.2-21.2s9.5-21.2,21.2-21.2l0,0
	C48,154.1,48,175.3,48,175.3z"/>
<path d="M48,312.3v-20.6c11.4,0,20.6,9.2,20.6,20.6s-9.2,20.6-20.6,20.6s-20.6-9.2-20.6-20.6s9.2-20.6,20.6-20.6l0,0V312.3z"/>
<g>
	<text transform="matrix(1 0 0 1 25.4707 374.1724)" class="st1 st2">19,900</text>
</g>
<rect x="32.3" y="458.8" width="31" height="73.2"/>
<g>
	<text transform="matrix(1 0 0 1 33.3917 487.5181)" class="st3 st1 st2">70.5</text>
</g>
<text transform="matrix(1 0 0 1 34.6351 423.8636)" class="st0 st4 st5">100</text>
</svg>
