<?xml version="1.0" encoding="utf-8"?>
<!-- Generator: Adobe Illustrator 24.0.1, SVG Export Plug-In . SVG Version: 6.00 Build 0)  -->
<svg version="1.1" id="Layer_1" xmlns="http://www.w3.org/2000/svg" xmlns:xlink="http://www.w3.org/1999/xlink" x="0px" y="0px"
	 viewBox="0 0 96 540" style="enable-background:new 0 0 96 540;" xml:space="preserve">
<style type="text/css">
    @import url('https://fonts.googleapis.com/css?family=Roboto:300,400');
	.st0{fill:#C9C9C9;}
	.st1{font-family:'Roboto';font-weight: 400;}
	.st2{font-size:15px;}
	.st3{fill:#FFFFFF;}
	.st4{font-family:'Roboto';font-weight: 300;}
	.st5{font-size:16px;}
</style>
<rect x="32.5" y="428.1" class="st0" width="31" height="103.9"/>
<path d="M48,42V24.9c9.4,0,17.1,7.7,17.1,17.1S57.4,59.1,48,59.1S30.9,51.4,30.9,42S38.6,24.9,48,24.9l0,0V42z"/>
<text transform="matrix(1 0 0 1 29.6823 95.9192)" class="st1 st2">5,500</text>
<text transform="matrix(1 0 0 1 29.6823 227.9031)" class="st1 st2">2,412</text>
<path d="M48,175.3V153c12.3,0,22.3,10,22.3,22.3s-10,22.3-22.3,22.3s-22.3-10-22.3-22.3S35.7,153,48,153l0,0V175.3z"/>
<path d="M48,312.3v-21.9c12.1,0,21.9,9.8,21.9,21.9c0,12.1-9.8,21.9-21.9,21.9s-21.9-9.8-21.9-21.9c0-12.1,9.8-21.9,21.9-21.9l0,0
	V312.3z"/>
<g>
	<text transform="matrix(1 0 0 1 25.4703 374.1724)" class="st1 st2">22,473</text>
</g>
<rect x="32.5" y="459.1" width="31" height="72.9"/>
<g>
	<text transform="matrix(1 0 0 1 33.3918 487.5181)" class="st3 st1 st2">70.2</text>
</g>
<text transform="matrix(1 0 0 1 34.6351 423.8636)" class="st0 st4 st5">100</text>
</svg>
