<?xml version="1.0" encoding="utf-8"?>
<!-- Generator: Adobe Illustrator 24.0.1, SVG Export Plug-In . SVG Version: 6.00 Build 0)  -->
<svg version="1.1" id="Layer_1" xmlns="http://www.w3.org/2000/svg" xmlns:xlink="http://www.w3.org/1999/xlink" x="0px" y="0px"
	 viewBox="0 0 96 540" style="enable-background:new 0 0 96 540;" xml:space="preserve">
<style type="text/css">
    @import url('https://fonts.googleapis.com/css?family=Roboto:300,400');
	.st0{fill:#C9C9C9;}
	.st1{font-family:'Roboto';font-weight: 400;}
	.st2{font-size:15px;}
	.st3{fill:#FFFFFF;}
	.st4{font-family:'Roboto';font-weight: 300;}
	.st5{font-size:16px;}
</style>
<rect x="32.3" y="428.1" class="st0" width="31" height="103.9"/>
<path d="M48,42V31.4c5.8,0,10.6,4.7,10.6,10.6S53.8,52.6,48,52.6S37.4,47.8,37.4,42S42.2,31.4,48,31.4l0,0V42z"/>
<text transform="matrix(1 0 0 1 29.6813 95.9193)" class="st1 st2">2,100</text>
<text transform="matrix(1 0 0 1 29.6813 227.9032)" class="st1 st2">6,213</text>
<path d="M48,175.3v-35.8c19.8,0,35.8,16,35.8,35.8s-16,35.8-35.8,35.8s-35.8-16-35.8-35.8s16-35.8,35.8-35.8l0,0
	C48,139.5,48,175.3,48,175.3z"/>
<path d="M48,312.3v-34.4c19,0,34.4,15.4,34.4,34.4S67,346.7,48,346.7s-34.4-15.4-34.4-34.4S29,277.9,48,277.9l0,0V312.3z"/>
<g>
	<text transform="matrix(1 0 0 1 25.4698 374.1725)" class="st1 st2">55,567</text>
</g>
<rect x="32.3" y="442.8" width="31" height="89.2"/>
<g>
	<text transform="matrix(1 0 0 1 33.3909 487.5182)" class="st3 st1 st2">85.9</text>
</g>
<text transform="matrix(1 0 0 1 34.6351 423.8636)" class="st0 st4 st5">100</text>
</svg>
