<?xml version="1.0" encoding="utf-8"?>
<!-- Generator: Adobe Illustrator 24.0.1, SVG Export Plug-In . SVG Version: 6.00 Build 0)  -->
<svg version="1.1" id="Layer_1" xmlns="http://www.w3.org/2000/svg" xmlns:xlink="http://www.w3.org/1999/xlink" x="0px" y="0px"
	 viewBox="0 0 96 540" style="enable-background:new 0 0 96 540;" xml:space="preserve">
<style type="text/css">
    @import url('https://fonts.googleapis.com/css?family=Roboto:300,400');
	.st0{fill:#C9C9C9;}
	.st1{font-family:'Roboto';font-weight: 400;}
	.st2{font-size:15px;}
	.st3{fill:#FFFFFF;}
	.st4{font-family:'Roboto';font-weight: 300;}
	.st5{font-size:16px;}
</style>
<rect x="32.5" y="428.1" class="st0" width="31" height="103.9"/>
<path d="M48,42V17.9c13.3,0,24.1,10.8,24.1,24.1S61.3,66.1,48,66.1S23.9,55.3,23.9,42S34.7,17.9,48,17.9l0,0L48,42L48,42z"/>
<text transform="matrix(1 0 0 1 25.4706 95.9192)" class="st1 st2">10,900</text>
<text transform="matrix(1 0 0 1 29.6815 227.9031)" class="st1 st2">3,942</text>
<path d="M48,175.3v-28.5c15.8,0,28.5,12.8,28.5,28.5S63.8,203.8,48,203.8s-28.5-12.8-28.5-28.5s12.8-28.5,28.5-28.5l0,0
	C48,146.8,48,175.3,48,175.3z"/>
<path d="M48,312.3v-33.9c18.7,0,33.9,15.2,33.9,33.9c0,18.7-15.2,33.9-33.9,33.9S14.1,331,14.1,312.3c0-18.7,15.2-33.9,33.9-33.9
	l0,0V312.3z"/>
<g>
	<text transform="matrix(1 0 0 1 25.4706 374.1724)" class="st1 st2">54,224</text>
</g>
<rect x="32.5" y="437" width="31" height="95"/>
<g>
	<text transform="matrix(1 0 0 1 33.3916 487.5181)" class="st3 st1 st2">91.5</text>
</g>
<text transform="matrix(1 0 0 1 34.6351 423.8636)" class="st0 st4 st5">100</text>
</svg>
