<?xml version="1.0" encoding="utf-8"?>
<!-- Generator: Adobe Illustrator 24.0.1, SVG Export Plug-In . SVG Version: 6.00 Build 0)  -->
<svg version="1.1" id="Layer_1" xmlns="http://www.w3.org/2000/svg" xmlns:xlink="http://www.w3.org/1999/xlink" x="0px" y="0px"
	 viewBox="0 0 425 360" style="enable-background:new 0 0 425 360;" xml:space="preserve">
<style type="text/css">
    @import url('https://fonts.googleapis.com/css?family=Merriweather:300|Roboto:300,400,500,700');
	.st0{fill:#CFD0D3;}
	.st1{font-family:'Merriweather';font-weight: 300;}
	.st2{font-size:63.41743px;}
	.st3{fill:#231F20;}
	.st4{font-family:'Roboto';font-weight: 300;}
	.st5{font-size:15px;}
	.st6{fill:#85878A;}
	.st7{fill:#E51D60;}
	.st8{fill:#E6E7E7;}
	.st9{fill:none;stroke:#231F20;stroke-width:0.5;stroke-miterlimit:10;}
	.st10{fill:none;stroke:#E51D60;stroke-width:0.5;stroke-miterlimit:10;}
	.st11{fill:#010101;}
	.st12{font-family:'Roboto';font-weight: 400;}
</style>
<text transform="matrix(1 0 0 1 12.76276 212.37372)" class="st0 st1 st2">A</text>
<text transform="matrix(1 0 0 1 77.68641 212.37372)" class="st0 st1 st2">B</text>
<text transform="matrix(1 0 0 1 161.40271 212.37372)" class="st0 st1 st2">C</text>
<g>
	<text transform="matrix(1 0 0 1 4.19073 235.28636)" class="st3 st4 st5">A+</text>
</g>
<g>
	<text transform="matrix(1 0 0 1 36.46497 235.28636)" class="st3 st4 st5">A</text>
</g>
<g>
	<text transform="matrix(1 0 0 1 71.22858 235.28636)" class="st3 st4 st5">B+</text>
</g>
<g>
	<text transform="matrix(1 0 0 1 118.87238 235.28636)" class="st3 st4 st5">B</text>
</g>
<g>
	<text transform="matrix(1 0 0 1 162.05377 235.28636)" class="st3 st4 st5">C+</text>
</g>
<g>
	<text transform="matrix(1 0 0 1 229.36336 235.28636)" class="st3 st4 st5">C</text>
</g>
<rect x="126.71295" y="127.66478" class="st6" width="6.0211" height="3.7688"/>
<text transform="matrix(1 0 0 1 136.91089 132.54207)" class="st3 st4 st5">US cities</text>
<rect x="202.18996" y="127.66478" class="st7" width="6.0211" height="3.7688"/>
<text transform="matrix(1 0 0 1 212.38789 132.54207)" class="st3 st4 st5">Chinese cities</text>
<rect x="19.03799" y="238.5916" class="st6" width="2" height="30.89128"/>
<rect x="21.03799" y="238.5916" class="st8" width="2" height="30.89128"/>
<rect x="23.03799" y="238.5916" class="st8" width="2" height="30.89128"/>
<rect x="36.31977" y="238.5916" class="st7" width="2" height="30.89128"/>
<rect x="81.27289" y="238.5916" class="st8" width="2" height="30.89128"/>
<rect x="83.27289" y="238.5916" class="st7" width="2" height="30.89128"/>
<rect x="85.27289" y="238.5916" class="st6" width="2" height="30.89128"/>
<rect x="96.19203" y="238.5916" class="st7" width="2" height="30.89128"/>
<rect x="98.19203" y="238.5916" class="st8" width="2" height="30.89128"/>
<rect x="100.19203" y="238.5916" class="st8" width="2" height="30.89128"/>
<rect x="102.19203" y="238.5916" class="st8" width="2" height="30.89128"/>
<rect x="104.19203" y="238.5916" class="st6" width="2" height="30.89128"/>
<rect x="106.19203" y="238.5916" class="st6" width="2" height="30.89128"/>
<rect x="108.19203" y="238.5916" class="st8" width="2" height="30.89128"/>
<rect x="110.19203" y="238.5916" class="st8" width="2" height="30.89128"/>
<rect x="112.19203" y="238.5916" class="st8" width="2" height="30.89128"/>
<rect x="114.19203" y="238.5916" class="st8" width="2" height="30.89128"/>
<rect x="116.19203" y="238.5916" class="st6" width="2" height="30.89128"/>
<rect x="118.19203" y="238.5916" class="st6" width="2" height="30.89128"/>
<rect x="120.19203" y="238.5916" class="st8" width="2" height="30.89128"/>
<rect x="122.19203" y="238.5916" class="st8" width="2" height="30.89128"/>
<rect x="124.19203" y="238.5916" class="st6" width="2" height="30.89128"/>
<rect x="126.19203" y="238.5916" class="st8" width="2" height="30.89128"/>
<rect x="128.19203" y="238.5916" class="st8" width="2" height="30.89128"/>
<rect x="130.19203" y="238.5916" class="st6" width="2" height="30.89128"/>
<rect x="132.19203" y="238.5916" class="st8" width="2" height="30.89128"/>
<rect x="134.19203" y="238.5916" class="st8" width="2" height="30.89128"/>
<rect x="136.19203" y="238.5916" class="st8" width="2" height="30.89128"/>
<rect x="138.19203" y="238.5916" class="st8" width="2" height="30.89128"/>
<rect x="140.19203" y="238.5916" class="st8" width="2" height="30.89128"/>
<rect x="142.19203" y="238.5916" class="st8" width="2" height="30.89128"/>
<rect x="144.19203" y="238.5916" class="st8" width="2" height="30.89128"/>
<rect x="146.19203" y="238.5916" class="st8" width="2" height="30.89128"/>
<rect x="162.72697" y="238.5916" class="st8" width="2" height="30.89128"/>
<rect x="164.72697" y="238.5916" class="st8" width="2" height="30.89128"/>
<rect x="166.72697" y="238.5916" class="st8" width="2" height="30.89128"/>
<rect x="168.72697" y="238.5916" class="st6" width="2" height="30.89128"/>
<rect x="170.72697" y="238.5916" class="st8" width="2" height="30.89128"/>
<rect x="172.72697" y="238.5916" class="st7" width="2" height="30.89128"/>
<rect x="174.72697" y="238.5916" class="st8" width="2" height="30.89128"/>
<rect x="176.72697" y="238.5916" class="st7" width="2" height="30.89128"/>
<rect x="178.72697" y="238.5916" class="st8" width="2" height="30.89128"/>
<rect x="180.72697" y="238.5916" class="st6" width="2" height="30.89128"/>
<rect x="182.72697" y="238.5916" class="st8" width="2" height="30.89128"/>
<rect x="184.72697" y="238.5916" class="st6" width="2" height="30.89128"/>
<rect x="186.72697" y="238.5916" class="st8" width="2" height="30.89128"/>
<rect x="188.72697" y="238.5916" class="st8" width="2" height="30.89128"/>
<rect x="190.72697" y="238.5916" class="st8" width="2" height="30.89128"/>
<rect x="192.72697" y="238.5916" class="st8" width="2" height="30.89128"/>
<rect x="194.72697" y="238.5916" class="st8" width="2" height="30.89128"/>
<rect x="196.72697" y="238.5916" class="st8" width="2" height="30.89128"/>
<rect x="198.72697" y="238.5916" class="st6" width="2" height="30.89128"/>
<rect x="200.72697" y="238.5916" class="st8" width="2" height="30.89128"/>
<rect x="202.72697" y="238.5916" class="st8" width="2" height="30.89128"/>
<rect x="204.72697" y="238.5916" class="st6" width="2" height="30.89128"/>
<rect x="206.72697" y="238.5916" class="st8" width="2" height="30.89128"/>
<rect x="208.72697" y="238.5916" class="st8" width="2" height="30.89128"/>
<rect x="210.72697" y="238.5916" class="st7" width="2" height="30.89128"/>
<rect x="212.72697" y="238.5916" class="st7" width="2" height="30.89128"/>
<rect x="214.72697" y="238.5916" class="st6" width="2" height="30.89128"/>
<rect x="216.72697" y="238.5916" class="st8" width="2" height="30.89128"/>
<rect x="218.72697" y="238.5916" class="st8" width="2" height="30.89128"/>
<rect x="229.36325" y="238.5916" class="st8" width="2" height="30.89128"/>
<rect x="231.36325" y="238.5916" class="st8" width="2" height="30.89128"/>
<rect x="233.36325" y="238.5916" class="st7" width="2" height="30.89128"/>
<rect x="235.36325" y="238.5916" class="st8" width="2" height="30.89128"/>
<rect x="237.36325" y="238.5916" class="st8" width="2" height="30.89128"/>
<rect x="239.36325" y="238.5916" class="st7" width="2" height="30.89128"/>
<rect x="241.36325" y="238.5916" class="st8" width="2" height="30.89128"/>
<rect x="243.36325" y="238.5916" class="st8" width="2" height="30.89128"/>
<rect x="245.36325" y="238.5916" class="st8" width="2" height="30.89128"/>
<rect x="247.36325" y="238.5916" class="st7" width="2" height="30.89128"/>
<rect x="249.36325" y="238.5916" class="st6" width="2" height="30.89128"/>
<rect x="251.36325" y="238.5916" class="st8" width="2" height="30.89128"/>
<rect x="253.36325" y="238.5916" class="st7" width="2" height="30.89128"/>
<rect x="255.36325" y="238.5916" class="st7" width="2" height="30.89128"/>
<rect x="257.36325" y="238.5916" class="st6" width="2" height="30.89128"/>
<rect x="259.36325" y="238.5916" class="st6" width="2" height="30.89128"/>
<rect x="261.36325" y="238.5916" class="st8" width="2" height="30.89128"/>
<rect x="263.36325" y="238.5916" class="st8" width="2" height="30.89128"/>
<rect x="265.36325" y="238.5916" class="st8" width="2" height="30.89128"/>
<rect x="267.36325" y="238.5916" class="st6" width="2" height="30.89128"/>
<rect x="269.36325" y="238.5916" class="st8" width="2" height="30.89128"/>
<rect x="271.36325" y="238.5916" class="st6" width="2" height="30.89128"/>
<rect x="273.36325" y="238.5916" class="st8" width="2" height="30.89128"/>
<rect x="275.36325" y="238.5916" class="st6" width="2" height="30.89128"/>
<rect x="277.36325" y="238.5916" class="st8" width="2" height="30.89128"/>
<rect x="279.36325" y="238.5916" class="st8" width="2" height="30.89128"/>
<rect x="281.36325" y="238.5916" class="st8" width="2" height="30.89128"/>
<rect x="283.36325" y="238.5916" class="st8" width="2" height="30.89128"/>
<rect x="285.36325" y="238.5916" class="st6" width="2" height="30.89128"/>
<rect x="287.36325" y="238.5916" class="st6" width="2" height="30.89128"/>
<rect x="289.36325" y="238.5916" class="st8" width="2" height="30.89128"/>
<rect x="291.36325" y="238.5916" class="st8" width="2" height="30.89128"/>
<rect x="293.36325" y="238.5916" class="st7" width="2" height="30.89128"/>
<rect x="295.36325" y="238.5916" class="st8" width="2" height="30.89128"/>
<rect x="297.36325" y="238.5916" class="st8" width="2" height="30.89128"/>
<rect x="299.36325" y="238.5916" class="st6" width="2" height="30.89128"/>
<rect x="301.36325" y="238.5916" class="st6" width="2" height="30.89128"/>
<rect x="303.36325" y="238.5916" class="st6" width="2" height="30.89128"/>
<rect x="305.36325" y="238.5916" class="st7" width="2" height="30.89128"/>
<rect x="307.36325" y="238.5916" class="st8" width="2" height="30.89128"/>
<rect x="309.36325" y="238.5916" class="st8" width="2" height="30.89128"/>
<rect x="311.36325" y="238.5916" class="st8" width="2" height="30.89128"/>
<rect x="313.36325" y="238.5916" class="st6" width="2" height="30.89128"/>
<rect x="315.36325" y="238.5916" class="st8" width="2" height="30.89128"/>
<rect x="317.36325" y="238.5916" class="st7" width="2" height="30.89128"/>
<rect x="319.36325" y="238.5916" class="st6" width="2" height="30.89128"/>
<rect x="321.36325" y="238.5916" class="st8" width="2" height="30.89128"/>
<rect x="323.36325" y="238.5916" class="st8" width="2" height="30.89128"/>
<rect x="325.36325" y="238.5916" class="st7" width="2" height="30.89128"/>
<rect x="327.36325" y="238.5916" class="st8" width="2" height="30.89128"/>
<rect x="329.36325" y="238.5916" class="st8" width="2" height="30.89128"/>
<rect x="331.36325" y="238.5916" class="st8" width="2" height="30.89128"/>
<rect x="333.36325" y="238.5916" class="st6" width="2" height="30.89128"/>
<rect x="335.36325" y="238.5916" class="st7" width="2" height="30.89128"/>
<rect x="337.36325" y="238.5916" class="st8" width="2" height="30.89128"/>
<rect x="339.36325" y="238.5916" class="st8" width="2" height="30.89128"/>
<rect x="341.36325" y="238.5916" class="st8" width="2" height="30.89128"/>
<rect x="343.36325" y="238.5916" class="st8" width="2" height="30.89128"/>
<rect x="345.36325" y="238.5916" class="st7" width="2" height="30.89128"/>
<rect x="347.36325" y="238.5916" class="st6" width="2" height="30.89128"/>
<rect x="349.36325" y="238.5916" class="st6" width="2" height="30.89128"/>
<rect x="351.36325" y="238.5916" class="st8" width="2" height="30.89128"/>
<rect x="353.36325" y="238.5916" class="st6" width="2" height="30.89128"/>
<rect x="355.36325" y="238.5916" class="st8" width="2" height="30.89128"/>
<rect x="357.36325" y="238.5916" class="st8" width="2" height="30.89128"/>
<rect x="359.36325" y="238.5916" class="st6" width="2" height="30.89128"/>
<rect x="361.36325" y="238.5916" class="st7" width="2" height="30.89128"/>
<rect x="363.36325" y="238.5916" class="st6" width="2" height="30.89128"/>
<rect x="365.36325" y="238.5916" class="st6" width="2" height="30.89128"/>
<rect x="367.36325" y="238.5916" class="st8" width="2" height="30.89128"/>
<rect x="369.36325" y="238.5916" class="st7" width="2" height="30.89128"/>
<rect x="371.36325" y="238.5916" class="st8" width="2" height="30.89128"/>
<rect x="373.36325" y="238.5916" class="st8" width="2" height="30.89128"/>
<rect x="375.36325" y="238.5916" class="st8" width="2" height="30.89128"/>
<rect x="377.36325" y="238.5916" class="st7" width="2" height="30.89128"/>
<rect x="379.36325" y="238.5916" class="st8" width="2" height="30.89128"/>
<rect x="381.36325" y="238.5916" class="st8" width="2" height="30.89128"/>
<rect x="383.36325" y="238.5916" class="st8" width="2" height="30.89128"/>
<rect x="385.36325" y="238.5916" class="st6" width="2" height="30.89128"/>
<rect x="387.36325" y="238.5916" class="st7" width="2" height="30.89128"/>
<rect x="389.36325" y="238.5916" class="st8" width="2" height="30.89128"/>
<rect x="391.36325" y="238.5916" class="st8" width="2" height="30.89128"/>
<rect x="393.36325" y="238.5916" class="st8" width="2" height="30.89128"/>
<rect x="395.36325" y="238.5916" class="st8" width="2" height="30.89128"/>
<rect x="397.36325" y="238.5916" class="st8" width="2" height="30.89128"/>
<rect x="399.36325" y="238.5916" class="st6" width="2" height="30.89128"/>
<rect x="401.36325" y="238.5916" class="st7" width="2" height="30.89128"/>
<rect x="403.36325" y="238.5916" class="st8" width="2" height="30.89128"/>
<rect x="405.36325" y="238.5916" class="st7" width="2" height="30.89128"/>
<rect x="407.36325" y="238.5916" class="st8" width="2" height="30.89128"/>
<rect x="409.36325" y="238.5916" class="st7" width="2" height="30.89128"/>
<rect x="411.36325" y="238.5916" class="st8" width="2" height="30.89128"/>
<rect x="413.36325" y="238.5916" class="st6" width="2" height="30.89128"/>
<rect x="415.36325" y="238.5916" class="st8" width="2" height="30.89128"/>
<rect x="417.36325" y="238.5916" class="st6" width="2" height="30.89128"/>
<rect x="419.36325" y="238.5916" class="st6" width="2" height="30.89128"/>
<rect x="38.31977" y="238.5916" class="st8" width="2" height="30.89128"/>
<text transform="matrix(0 -1 1 0 20.23953 353.01541)" class="st3 st4 st5">New York</text>
<text transform="matrix(0 -1 1 0 43.47256 333.53299)" class="st3 st4 st5">Beijing</text>
<line class="st9" x1="20.03799" y1="270.55707" x2="20.03799" y2="284.28659"/>
<line class="st10" x1="37.31977" y1="270.55707" x2="37.31977" y2="284.28659"/>
<text transform="matrix(1 0 0 1 96.58768 17.62468)" class="st11 st12 st5">A+, A</text>
<text transform="matrix(1 0 0 1 160.56339 17.62468)" class="st11 st4 st5">Global city</text>
<text transform="matrix(1 0 0 1 97.48123 36.24699)" class="st11 st12 st5">B+, B</text>
<text transform="matrix(1 0 0 1 160.56339 36.24699)" class="st11 st4 st5">International hub city</text>
<text transform="matrix(1 0 0 1 96.63162 54.86924)" class="st11 st12 st5">C+, C</text>
<text transform="matrix(1 0 0 1 160.56339 54.86924)" class="st11 st4 st5">International gateway city</text>
<text transform="matrix(1 0 0 1 96.48514 73.49156)" class="st11 st12 st5">D+, D</text>
<text transform="matrix(1 0 0 1 160.56339 73.49156)" class="st11 st4 st5">Regional hub city</text>
<text transform="matrix(1 0 0 1 96.58768 92.11382)" class="st11 st12 st5">E+, E</text>
<text transform="matrix(1 0 0 1 160.56339 92.11382)" class="st11 st4 st5">Regional gateway city</text>
</svg>
