<?xml version="1.0" encoding="utf-8"?>
<!-- Generator: Adobe Illustrator 24.0.1, SVG Export Plug-In . SVG Version: 6.00 Build 0)  -->
<svg version="1.1" id="Layer_1" xmlns="http://www.w3.org/2000/svg" xmlns:xlink="http://www.w3.org/1999/xlink" x="0px" y="0px"
	 viewBox="0 0 425 1478" style="enable-background:new 0 0 425 1478;" xml:space="preserve">
<style type="text/css">
    @import url('https://fonts.googleapis.com/css?family=Roboto:300,700|Roboto+Condensed:400');
	.st0{enable-background:new    ;}
	.st1{fill:#010101;}
	.st2{font-family:'Roboto';font-weight: 700;}
	.st3{font-size:16px;}
	.st4{font-family:'Roboto';font-weight: 300;}
	.st5{font-size:14px;}
	.st6{fill:#A0D9D9;}
	.st7{fill:#EBEBEC;}
	.st8{font-family:'Roboto Condensed';font-weight: 400;}
	.st9{font-size:13px;}
</style>
<text transform="matrix(1 0 0 1 2.00006 13.68738)" class="st0"><tspan x="0" y="0" class="st1 st2 st3">UNITED STATES </tspan><tspan x="124.10156" y="0" class="st1 st4 st5">Global rank</tspan></text>
<rect x="0" y="20.687" class="st6" width="82.6" height="32.87671"/>
<rect x="85.6" y="20.687" class="st7" width="82.6" height="32.87671"/>
<rect x="171.2" y="20.687" class="st7" width="82.6" height="32.87671"/>
<rect x="256.79999" y="20.687" class="st7" width="82.6" height="32.87671"/>
<rect x="342.39999" y="20.687" class="st6" width="82.6" height="32.87671"/>
<rect x="0" y="57.17069" class="st7" width="82.6" height="32.87671"/>
<rect x="85.6" y="57.17069" class="st6" width="82.6" height="32.87671"/>
<rect x="171.2" y="57.17069" class="st7" width="82.6" height="32.87671"/>
<rect x="256.79999" y="57.17069" class="st6" width="82.6" height="32.87671"/>
<rect x="342.39999" y="57.17069" class="st7" width="82.6" height="32.87671"/>
<rect x="0" y="93.65438" class="st6" width="82.6" height="32.87671"/>
<rect x="85.6" y="93.65438" class="st6" width="82.6" height="32.87671"/>
<rect x="171.2" y="93.65438" class="st7" width="82.6" height="32.87671"/>
<rect x="256.79999" y="93.65438" class="st7" width="82.6" height="32.87671"/>
<rect x="342.39999" y="93.65438" class="st7" width="82.6" height="32.87671"/>
<rect x="0" y="130.13808" class="st6" width="82.6" height="32.87671"/>
<rect x="85.6" y="130.13808" class="st7" width="82.6" height="32.87671"/>
<rect x="171.2" y="130.13808" class="st7" width="82.6" height="32.87671"/>
<rect x="256.79999" y="130.13808" class="st6" width="82.6" height="32.87671"/>
<rect x="342.39999" y="130.13808" class="st6" width="82.6" height="32.87671"/>
<rect x="0" y="166.62177" class="st7" width="82.6" height="32.87671"/>
<rect x="85.6" y="166.62177" class="st7" width="82.6" height="32.87671"/>
<rect x="171.2" y="166.62177" class="st7" width="82.6" height="32.87671"/>
<rect x="256.79999" y="166.62177" class="st6" width="82.6" height="32.87671"/>
<rect x="342.39999" y="166.62177" class="st7" width="82.6" height="32.87671"/>
<rect x="0" y="203.10545" class="st7" width="82.6" height="32.87671"/>
<rect x="85.6" y="203.10545" class="st6" width="82.6" height="32.87671"/>
<rect x="171.2" y="203.10545" class="st7" width="82.6" height="32.87671"/>
<rect x="256.79999" y="203.10545" class="st7" width="82.6" height="32.87671"/>
<rect x="342.39999" y="203.10545" class="st7" width="82.6" height="32.87671"/>
<rect x="0" y="239.58916" class="st6" width="82.6" height="32.87671"/>
<rect x="85.6" y="239.58916" class="st6" width="82.6" height="32.87671"/>
<rect x="171.2" y="239.58916" class="st7" width="82.6" height="32.87671"/>
<rect x="256.79999" y="239.58916" class="st6" width="82.6" height="32.87671"/>
<rect x="342.39999" y="239.58916" class="st7" width="82.6" height="32.87671"/>
<rect x="0" y="276.07285" class="st6" width="82.6" height="32.87671"/>
<rect x="85.6" y="276.07285" class="st6" width="82.6" height="32.87671"/>
<rect x="171.2" y="276.07285" class="st7" width="82.6" height="32.87671"/>
<rect x="256.79999" y="276.07285" class="st6" width="82.6" height="32.87671"/>
<rect x="342.39999" y="276.07285" class="st6" width="82.6" height="32.87671"/>
<rect x="0" y="312.55652" class="st7" width="82.6" height="32.87671"/>
<rect x="85.6" y="312.55652" class="st7" width="82.6" height="32.87671"/>
<rect x="171.2" y="312.55652" class="st7" width="82.6" height="32.87671"/>
<rect x="256.79999" y="312.55652" class="st7" width="82.6" height="32.87671"/>
<rect x="342.39999" y="312.55652" class="st6" width="82.6" height="32.87671"/>
<rect x="0" y="349.04022" class="st6" width="82.6" height="32.87671"/>
<rect x="85.6" y="349.04022" class="st6" width="82.6" height="32.87671"/>
<rect x="171.2" y="349.04022" class="st7" width="82.6" height="32.87671"/>
<rect x="256.79999" y="349.04022" class="st6" width="82.6" height="32.87671"/>
<rect x="342.39999" y="349.04022" class="st7" width="82.6" height="32.87671"/>
<rect x="0" y="385.52393" class="st7" width="82.6" height="32.87671"/>
<rect x="85.6" y="385.52393" class="st7" width="82.6" height="32.87671"/>
<rect x="171.2" y="385.52393" class="st6" width="82.6" height="32.87671"/>
<rect x="256.79999" y="385.52393" class="st7" width="82.6" height="32.87671"/>
<rect x="342.39999" y="385.52393" class="st7" width="82.6" height="32.87671"/>
<rect x="0" y="422.0076" class="st6" width="82.6" height="32.87671"/>
<rect x="85.6" y="422.0076" class="st7" width="82.6" height="32.87671"/>
<rect x="171.2" y="422.0076" class="st6" width="82.6" height="32.87671"/>
<rect x="256.79999" y="422.0076" class="st6" width="82.6" height="32.87671"/>
<rect x="342.39999" y="422.0076" class="st7" width="82.6" height="32.87671"/>
<rect x="0" y="458.4913" class="st6" width="82.6" height="32.87671"/>
<rect x="85.6" y="458.4913" class="st7" width="82.6" height="32.87671"/>
<rect x="171.2" y="458.4913" class="st7" width="82.6" height="32.87671"/>
<rect x="256.79999" y="458.4913" class="st7" width="82.6" height="32.87671"/>
<rect x="342.39999" y="458.4913" class="st7" width="82.6" height="32.87671"/>
<rect x="0" y="494.97501" class="st7" width="82.6" height="32.87671"/>
<rect x="85.6" y="494.97501" class="st7" width="82.6" height="32.87671"/>
<rect x="171.2" y="494.97501" class="st7" width="82.6" height="32.87671"/>
<rect x="256.79999" y="494.97501" class="st6" width="82.6" height="32.87671"/>
<rect x="342.39999" y="494.97501" class="st7" width="82.6" height="32.87671"/>
<rect x="0" y="531.45868" class="st7" width="82.6" height="32.87671"/>
<rect x="85.6" y="531.45868" class="st7" width="82.6" height="32.87671"/>
<rect x="171.2" y="531.45868" class="st7" width="82.6" height="32.87671"/>
<rect x="256.79999" y="531.45868" class="st7" width="82.6" height="32.87671"/>
<rect x="342.39999" y="531.45868" class="st7" width="82.6" height="32.87671"/>
<rect x="0" y="567.94238" class="st7" width="82.6" height="32.87671"/>
<rect x="85.6" y="567.94238" class="st6" width="82.6" height="32.87671"/>
<rect x="171.2" y="567.94238" class="st7" width="82.6" height="32.87671"/>
<rect x="256.79999" y="567.94238" class="st6" width="82.6" height="32.87671"/>
<rect x="342.39999" y="567.94238" class="st7" width="82.6" height="32.87671"/>
<rect x="0" y="604.42609" class="st7" width="82.6" height="32.87671"/>
<rect x="85.6" y="604.42609" class="st7" width="82.6" height="32.87671"/>
<rect x="171.2" y="604.42609" class="st7" width="82.6" height="32.87671"/>
<rect x="256.79999" y="604.42609" class="st7" width="82.6" height="32.87671"/>
<rect x="342.39999" y="604.42609" class="st6" width="82.6" height="32.87671"/>
<rect x="0" y="640.90973" class="st7" width="82.6" height="32.87671"/>
<rect x="85.6" y="640.90973" class="st6" width="82.6" height="32.87671"/>
<rect x="171.2" y="640.90973" class="st7" width="82.6" height="32.87671"/>
<rect x="256.79999" y="640.90973" class="st7" width="82.6" height="32.87671"/>
<rect x="342.39999" y="640.90973" class="st7" width="82.6" height="32.87671"/>
<rect x="0" y="677.39343" class="st6" width="82.6" height="32.87671"/>
<rect x="85.6" y="677.39343" class="st7" width="82.6" height="32.87671"/>
<rect x="171.2" y="677.39343" class="st7" width="82.6" height="32.87671"/>
<rect x="256.79999" y="677.39343" class="st7" width="82.6" height="32.87671"/>
<rect x="342.39999" y="677.39343" class="st6" width="82.6" height="32.87671"/>
<rect x="0" y="713.87714" class="st6" width="82.6" height="32.87671"/>
<rect x="85.6" y="713.87714" class="st6" width="82.6" height="32.87671"/>
<rect x="171.2" y="713.87714" class="st7" width="82.6" height="32.87671"/>
<rect x="256.79999" y="713.87714" class="st7" width="82.6" height="32.87671"/>
<rect x="342.39999" y="713.87714" class="st7" width="82.6" height="32.87671"/>
<rect x="0" y="750.37213" class="st7" width="82.6" height="32.87671"/>
<rect x="85.6" y="750.37213" class="st7" width="82.6" height="32.87671"/>
<rect x="171.2" y="750.37213" class="st7" width="82.6" height="32.87671"/>
<rect x="256.79999" y="750.37213" class="st7" width="82.6" height="32.87671"/>
<rect x="342.39999" y="750.37213" class="st7" width="82.6" height="32.87671"/>
<rect x="0" y="786.85583" class="st7" width="82.6" height="32.87671"/>
<rect x="85.6" y="786.85583" class="st7" width="82.6" height="32.87671"/>
<rect x="171.2" y="786.85583" class="st7" width="82.6" height="32.87671"/>
<rect x="256.79999" y="786.85583" class="st7" width="82.6" height="32.87671"/>
<rect x="342.39999" y="786.85583" class="st6" width="82.6" height="32.87671"/>
<rect x="0" y="823.33954" class="st6" width="82.6" height="32.87671"/>
<rect x="85.6" y="823.33954" class="st7" width="82.6" height="32.87671"/>
<rect x="171.2" y="823.33954" class="st7" width="82.6" height="32.87671"/>
<rect x="256.79999" y="823.33954" class="st7" width="82.6" height="32.87671"/>
<rect x="342.39999" y="823.33954" class="st6" width="82.6" height="32.87671"/>
<rect x="0" y="859.82324" class="st7" width="82.6" height="32.87671"/>
<rect x="85.6" y="859.82324" class="st6" width="82.6" height="32.87671"/>
<rect x="171.2" y="859.82324" class="st7" width="82.6" height="32.87671"/>
<rect x="256.79999" y="859.82324" class="st7" width="82.6" height="32.87671"/>
<rect x="342.39999" y="859.82324" class="st7" width="82.6" height="32.87671"/>
<rect x="0" y="896.30688" class="st7" width="82.6" height="32.87671"/>
<rect x="85.6" y="896.30688" class="st6" width="82.6" height="32.87671"/>
<rect x="171.2" y="896.30688" class="st7" width="82.6" height="32.87671"/>
<rect x="256.79999" y="896.30688" class="st7" width="82.6" height="32.87671"/>
<rect x="342.39999" y="896.30688" class="st7" width="82.6" height="32.87671"/>
<rect x="0" y="932.79059" class="st7" width="82.6" height="32.87671"/>
<rect x="85.6" y="932.79059" class="st6" width="82.6" height="32.87671"/>
<rect x="171.2" y="932.79059" class="st7" width="82.6" height="32.87671"/>
<rect x="256.79999" y="932.79059" class="st6" width="82.6" height="32.87671"/>
<rect x="342.39999" y="932.79059" class="st7" width="82.6" height="32.87671"/>
<rect x="0" y="969.27429" class="st7" width="82.6" height="32.87671"/>
<rect x="85.6" y="969.27429" class="st7" width="82.6" height="32.87671"/>
<rect x="171.2" y="969.27429" class="st6" width="82.6" height="32.87671"/>
<rect x="256.79999" y="969.27429" class="st7" width="82.6" height="32.87671"/>
<rect x="342.39999" y="969.27429" class="st7" width="82.6" height="32.87671"/>
<rect x="0" y="1005.758" class="st6" width="82.6" height="32.87671"/>
<rect x="85.6" y="1005.758" class="st7" width="82.6" height="32.87671"/>
<rect x="171.2" y="1005.758" class="st6" width="82.6" height="32.87671"/>
<rect x="256.79999" y="1005.758" class="st6" width="82.6" height="32.87671"/>
<rect x="342.39999" y="1005.758" class="st7" width="82.6" height="32.87671"/>
<rect x="0" y="1042.2417" class="st7" width="82.6" height="32.87671"/>
<rect x="85.6" y="1042.2417" class="st7" width="82.6" height="32.87671"/>
<rect x="171.2" y="1042.2417" class="st7" width="82.6" height="32.87671"/>
<rect x="256.79999" y="1042.2417" class="st6" width="82.6" height="32.87671"/>
<rect x="342.39999" y="1042.2417" class="st7" width="82.6" height="32.87671"/>
<rect x="0" y="1078.72534" class="st7" width="82.6" height="32.87671"/>
<rect x="85.6" y="1078.72534" class="st7" width="82.6" height="32.87671"/>
<rect x="171.2" y="1078.72534" class="st7" width="82.6" height="32.87671"/>
<rect x="256.79999" y="1078.72534" class="st7" width="82.6" height="32.87671"/>
<rect x="342.39999" y="1078.72534" class="st7" width="82.6" height="32.87671"/>
<rect x="0" y="1115.20911" class="st7" width="82.6" height="32.87671"/>
<rect x="85.6" y="1115.20911" class="st7" width="82.6" height="32.87671"/>
<rect x="171.2" y="1115.20911" class="st7" width="82.6" height="32.87671"/>
<rect x="256.79999" y="1115.20911" class="st6" width="82.6" height="32.87671"/>
<rect x="342.39999" y="1115.20911" class="st6" width="82.6" height="32.87671"/>
<rect x="0" y="1151.69275" class="st7" width="82.6" height="32.87671"/>
<rect x="85.6" y="1151.69275" class="st6" width="82.6" height="32.87671"/>
<rect x="171.2" y="1151.69275" class="st7" width="82.6" height="32.87671"/>
<rect x="256.79999" y="1151.69275" class="st6" width="82.6" height="32.87671"/>
<rect x="342.39999" y="1151.69275" class="st6" width="82.6" height="32.87671"/>
<rect x="0" y="1188.17639" class="st7" width="82.6" height="32.87671"/>
<rect x="85.6" y="1188.17639" class="st7" width="82.6" height="32.87671"/>
<rect x="171.2" y="1188.17639" class="st7" width="82.6" height="32.87671"/>
<rect x="256.79999" y="1188.17639" class="st7" width="82.6" height="32.87671"/>
<rect x="342.39999" y="1188.17639" class="st6" width="82.6" height="32.87671"/>
<rect x="0" y="1224.66016" class="st7" width="82.6" height="32.87671"/>
<rect x="85.6" y="1224.66016" class="st7" width="82.6" height="32.87671"/>
<rect x="171.2" y="1224.66016" class="st6" width="82.6" height="32.87671"/>
<rect x="256.79999" y="1224.66016" class="st7" width="82.6" height="32.87671"/>
<rect x="342.39999" y="1224.66016" class="st7" width="82.6" height="32.87671"/>
<rect x="0" y="1261.1438" class="st7" width="82.6" height="32.87671"/>
<rect x="85.6" y="1261.1438" class="st6" width="82.6" height="32.87671"/>
<rect x="171.2" y="1261.1438" class="st7" width="82.6" height="32.87671"/>
<rect x="256.79999" y="1261.1438" class="st7" width="82.6" height="32.87671"/>
<rect x="342.39999" y="1261.1438" class="st7" width="82.6" height="32.87671"/>
<rect x="0" y="1297.62756" class="st7" width="82.6" height="32.87671"/>
<rect x="85.6" y="1297.62756" class="st7" width="82.6" height="32.87671"/>
<rect x="171.2" y="1297.62756" class="st7" width="82.6" height="32.87671"/>
<rect x="256.79999" y="1297.62756" class="st7" width="82.6" height="32.87671"/>
<rect x="342.39999" y="1297.62756" class="st7" width="82.6" height="32.87671"/>
<rect x="0" y="1334.11121" class="st7" width="82.6" height="32.87671"/>
<rect x="85.6" y="1334.11121" class="st7" width="82.6" height="32.87671"/>
<rect x="171.2" y="1334.11121" class="st7" width="82.6" height="32.87671"/>
<rect x="256.79999" y="1334.11121" class="st6" width="82.6" height="32.87671"/>
<rect x="342.39999" y="1334.11121" class="st7" width="82.6" height="32.87671"/>
<rect x="0" y="1370.59485" class="st7" width="82.6" height="32.87671"/>
<rect x="85.6" y="1370.59485" class="st6" width="82.6" height="32.87671"/>
<rect x="171.2" y="1370.59485" class="st7" width="82.6" height="32.87671"/>
<rect x="256.79999" y="1370.59485" class="st7" width="82.6" height="32.87671"/>
<rect x="342.39999" y="1370.59485" class="st6" width="82.6" height="32.87671"/>
<rect x="0" y="1407.07861" class="st7" width="82.6" height="32.87671"/>
<rect x="85.6" y="1407.07861" class="st7" width="82.6" height="32.87671"/>
<rect x="171.2" y="1407.07861" class="st7" width="82.6" height="32.87671"/>
<rect x="256.79999" y="1407.07861" class="st6" width="82.6" height="32.87671"/>
<rect x="342.39999" y="1407.07861" class="st7" width="82.6" height="32.87671"/>
<rect x="0" y="1443.56226" class="st7" width="82.6" height="32.87671"/>
<rect x="85.6" y="1443.56226" class="st7" width="82.6" height="32.87671"/>
<rect x="171.2" y="1443.56226" class="st7" width="82.6" height="32.87671"/>
<rect x="256.79999" y="1443.56226" class="st7" width="82.6" height="32.87671"/>
<rect x="342.39999" y="1443.56226" class="st7" width="82.6" height="32.87671"/>
<g>
	<rect x="0" y="20.687" class="st6" width="82.6" height="32.87671"/>
	<text transform="matrix(1 0 0 1 12.24408 40.69113)" class="st8 st9">1 New York</text>
</g>
<g>
	<rect x="0" y="93.65438" class="st6" width="82.6" height="32.87671"/>
	<text transform="matrix(1 0 0 1 17.51849 113.65851)" class="st8 st9">11 Dallas</text>
</g>
<g>
	<rect x="85.6" y="93.65438" class="st6" width="82.6" height="32.87671"/>
	<text transform="matrix(1 0 0 1 97.26939 113.65851)" class="st8 st9">12 Houston</text>
</g>
<g>
	<rect x="0" y="130.13808" class="st6" width="82.6" height="32.87671"/>
	<text transform="matrix(1 0 0 1 15.29681 150.14221)" class="st8 st9">16 Boston</text>
</g>
<g>
	<rect x="0" y="239.58916" class="st6" width="82.6" height="32.87671"/>
	<text transform="matrix(1 0 0 1 8.664 259.59326)" class="st8 st9">31 Baltimore</text>
</g>
<g>
	<rect x="85.6" y="239.58916" class="st6" width="82.6" height="32.87671"/>
	<text transform="matrix(1 0 0 1 95.18102 259.59326)" class="st8 st9">32 Stamford</text>
</g>
<g>
	<rect x="256.79999" y="239.58916" class="st6" width="82.6" height="32.87671"/>
	<text transform="matrix(1 0 0 1 264.37225 259.59326)" class="st8 st9">34 San Diego</text>
</g>
<g>
	<rect y="276.07285" class="st6" width="82.6" height="32.87671"/>
	<text transform="matrix(1 0 0 1 14.94818 296.07697)" class="st8 st9">36 Atlanta</text>
</g>
<g>
	<rect x="85.6" y="276.07285" class="st6" width="82.6" height="32.87671"/>
	<text transform="matrix(1 0 0 1 93.98131 296.07697)" class="st8 st9">37 Cleveland</text>
</g>
<g>
	<rect x="256.79999" y="276.07285" class="st6" width="82.6" height="32.87671"/>
	<text transform="matrix(1 0 0 1 272.4938 296.07697)" class="st8 st9">39 Denver</text>
</g>
<g>
	<rect x="342.39999" y="276.07285" class="st6" width="82.6" height="32.87671"/>
	<text transform="matrix(1 0 0 1 358.47122 296.07697)" class="st8 st9">40 Detroit</text>
</g>
<g>
	<rect x="342.39999" y="312.55652" class="st6" width="82.6" height="32.87671"/>
	<text transform="matrix(1 0 0 1 352.24466 332.56067)" class="st8 st9">45 Charlotte</text>
</g>
<g>
	<rect y="349.04022" class="st6" width="82.6" height="32.87671"/>
	<text transform="matrix(1 0 0 1 9.86664 369.04437)" class="st8 st9">46 Nashville</text>
</g>
<g>
	<rect x="85.6" y="349.04022" class="st6" width="82.6" height="32.87671"/>
	<text transform="matrix(1 0 0 1 87.74156 369.04437)" class="st8 st9">47 Minneapolis</text>
</g>
<g>
	<rect x="256.79999" y="349.04022" class="st6" width="82.6" height="32.87671"/>
	<text transform="matrix(1 0 0 1 273.79214 369.04437)" class="st8 st9">49 Austin</text>
</g>
<g>
	<rect x="171.2" y="385.52393" class="st6" width="82.6" height="32.87671"/>
	<text transform="matrix(1 0 0 1 185.66872 405.52802)" class="st8 st9">53 Raleigh</text>
</g>
<g>
	<rect y="422.0076" class="st6" width="82.6" height="32.87671"/>
	<text transform="matrix(1 0 0 1 6.78168 442.01172)" class="st8 st9">56 Las Vegas</text>
</g>
<g>
	<rect x="171.2" y="422.0076" class="st6" width="82.6" height="32.87671"/>
	<text transform="matrix(1 0 0 1 181.04128 442.01172)" class="st8 st9">58 Salt Lake</text>
</g>
<g>
	<rect x="256.79999" y="422.0076" class="st6" width="82.6" height="32.87671"/>
	<text transform="matrix(1 0 0 1 264.591 442.01172)" class="st8 st9">59 Richmond</text>
</g>
<g>
	<rect y="458.4913" class="st6" width="82.6" height="32.87671"/>
	<text transform="matrix(1 0 0 1 13.27826 478.49545)" class="st8 st9">61 Orlando</text>
</g>
<g>
	<rect x="256.79999" y="494.97501" class="st6" width="82.6" height="32.87671"/>
	<text transform="matrix(1 0 0 1 262.81073 514.97913)" class="st8 st9">69 Milwaukee</text>
</g>
<g>
	<rect x="85.6" y="567.94238" class="st6" width="82.6" height="32.87671"/>
	<text transform="matrix(1 0 0 1 93.21617 587.94653)" class="st8 st9">77 Columbus</text>
</g>
<g>
	<rect x="256.79999" y="567.94238" class="st6" width="82.6" height="32.87671"/>
	<text transform="matrix(1 0 0 1 265.9621 587.94653)" class="st8 st9">79 Louisville</text>
</g>
<g>
	<rect x="342.39999" y="604.42609" class="st6" width="82.6" height="32.87671"/>
	<text transform="matrix(1 0 0 1 345.46539 624.43024)" class="st8 st9">85 Washington</text>
</g>
<g>
	<rect x="85.6" y="640.90973" class="st6" width="82.6" height="32.87671"/>
	<text transform="matrix(1 0 0 1 93.15269 660.91394)" class="st8 st9">87 Oklahoma</text>
</g>
<g>
	<rect y="677.39343" class="st6" width="82.6" height="32.87671"/>
	<text transform="matrix(1 0 0 1 12.85935 697.39764)" class="st8 st9">91 Phoenix</text>
</g>
<g>
	<rect x="342.39999" y="677.39343" class="st6" width="82.6" height="32.87671"/>
	<text transform="matrix(1 0 0 1 358.08746 697.39764)" class="st8 st9">95 Tampa</text>
</g>
<g>
	<rect y="713.87714" class="st6" width="82.6" height="32.87671"/>
	<text transform="matrix(1 0 0 1 34.88278 727.88129)"><tspan x="0" y="0" class="st8 st9">96</tspan><tspan x="-26.15869" y="13" class="st8 st9">Baton Rouge</tspan></text>
</g>
<g>
	<rect x="85.6" y="713.87714" class="st6" width="82.6" height="32.87671"/>
	<text transform="matrix(1 0 0 1 93.37193 733.88129)" class="st8 st9">97 Cincinnati</text>
</g>
<g>
	<rect x="342.39999" y="786.85583" class="st6" width="82.6" height="32.87671"/>
	<text transform="matrix(1 0 0 1 374.13922 801.86005)"><tspan x="0" y="0" class="st8 st9">110</tspan><tspan x="-21.34375" y="13" class="st8 st9">Indianapolis</tspan></text>
</g>
<g>
	<rect y="823.33954" class="st6" width="82.6" height="32.87671"/>
	<text transform="matrix(1 0 0 1 16.59714 843.34375)" class="st8 st9">111 Orem</text>
</g>
<g>
	<rect x="342.39999" y="823.33954" class="st6" width="82.6" height="32.87671"/>
	<text transform="matrix(1 0 0 1 374.13922 837.34375)"><tspan x="0" y="0" class="st8 st9">115</tspan><tspan x="-20.23975" y="13" class="st8 st9">Kansas City</tspan></text>
</g>
<g>
	<rect x="85.6" y="859.82324" class="st6" width="82.6" height="32.87671"/>
	<text transform="matrix(1 0 0 1 96.5985 874.07397)"><tspan x="0" y="0" class="st8 st9">117 Virginia</tspan><tspan x="13.13184" y="13" class="st8 st9"> Beach</tspan></text>
</g>
<g>
	<rect x="85.6" y="896.30688" class="st6" width="82.6" height="32.87671"/>
	<text transform="matrix(1 0 0 1 89.64928 917.31116)" class="st8 st9">122 Pittsburgh</text>
</g>
<g>
	<rect x="85.6" y="932.79059" class="st6" width="82.6" height="32.87671"/>
	<text transform="matrix(1 0 0 1 88.47204 952.79486)" class="st8 st9">127 Charleston</text>
</g>
<g>
	<rect x="256.79999" y="932.79059" class="st6" width="82.6" height="32.87671"/>
	<text transform="matrix(1 0 0 1 265.77997 952.79486)" class="st8 st9">129 Hartford</text>
</g>
<g>
	<rect x="256.79999" y="1042.2417" class="st6" width="82.6" height="32.87671"/>
	<text transform="matrix(1 0 0 1 258.8371 1062.24585)" class="st8 st9">144 Providence</text>
</g>
<g>
	<rect x="256.79999" y="1115.20911" class="st6" width="82.6" height="32.87671"/>
	<text transform="matrix(1 0 0 1 288.53925 1130.21326)"><tspan x="0" y="0" class="st8 st9">154</tspan><tspan x="-21.02783" y="13" class="st8 st9">Birmingham</tspan></text>
</g>
<g>
	<rect x="342.39999" y="1115.20911" class="st6" width="82.6" height="32.87671"/>
	<text transform="matrix(1 0 0 1 349.98053 1135.21326)" class="st8 st9">155 Honolulu</text>
</g>
<g>
	<rect x="85.6" y="1151.69275" class="st6" width="82.6" height="32.87671"/>
	<text transform="matrix(1 0 0 1 91.86657 1171.6969)" class="st8 st9">157 Columbia</text>
</g>
<g>
	<rect x="171.2" y="1224.66016" class="st6" width="82.6" height="32.87671"/>
	<text transform="matrix(1 0 0 1 186.58574 1244.66431)" class="st8 st9">168 Akron</text>
</g>
<g>
	<rect x="85.6" y="1261.1438" class="st6" width="82.6" height="32.87671"/>
	<text transform="matrix(1 0 0 1 93.08288 1281.14795)" class="st8 st9">172 Knoxville</text>
</g>
<g>
	<rect x="256.79999" y="1334.11121" class="st6" width="82.6" height="32.87671"/>
	<text transform="matrix(1 0 0 1 288.53925 1348.11536)"><tspan x="0" y="0" class="st8 st9">184</tspan><tspan x="-20.9834" y="13" class="st8 st9">Sacramento</tspan></text>
</g>
<g>
	<rect x="85.6" y="1370.59485" class="st6" width="82.6" height="32.87671"/>
	<text transform="matrix(1 0 0 1 97.44518 1390.599)" class="st8 st9">187 Buffalo</text>
</g>
<g>
	<rect x="342.39999" y="1370.59485" class="st6" width="82.6" height="32.87671"/>
	<text transform="matrix(1 0 0 1 344.08112 1390.599)" class="st8 st9">190 New Haven</text>
</g>
<g>
	<rect x="256.79999" y="1407.07861" class="st6" width="82.6" height="32.87671"/>
	<text transform="matrix(1 0 0 1 270.72577 1427.08264)" class="st8 st9">194 Odgen</text>
</g>
<g>
	<rect x="256.79999" y="1151.69275" class="st6" width="82.6" height="32.87671"/>
	<text transform="matrix(1 0 0 1 261.23602 1171.6969)" class="st8 st9">159 Worcester</text>
</g>
<g>
	<rect x="342.39999" y="1151.69275" class="st6" width="82.6" height="32.87671"/>
	<text transform="matrix(1 0 0 1 355.0191 1171.6969)" class="st8 st9">160 Dayton</text>
</g>
<g>
	<rect x="171.2" y="969.27429" class="st6" width="82.6" height="32.87671"/>
	<text transform="matrix(1 0 0 1 178.31764 989.27856)" class="st8 st9">133 Riverside</text>
</g>
<g>
	<rect y="1005.758" class="st6" width="82.6" height="32.87671"/>
	<text transform="matrix(1 0 0 1 5.11179 1025.76221)" class="st8 st9">136 Allentown</text>
</g>
<g>
	<rect x="171.2" y="1005.758" class="st6" width="82.6" height="32.87671"/>
	<text transform="matrix(1 0 0 1 178.46608 1019.77893)"><tspan x="0" y="0" class="st8 st9">138 Colorado</tspan><tspan x="13.42529" y="13" class="st8 st9"> Springs</tspan></text>
</g>
<g>
	<rect x="256.79999" y="1005.758" class="st6" width="82.6" height="32.87671"/>
	<text transform="matrix(1 0 0 1 270.48846 1019.77893)"><tspan x="0" y="0" class="st8 st9">139 Grand </tspan><tspan x="10.33105" y="13" class="st8 st9">Rapids</tspan></text>
</g>
<g>
	<rect x="342.39999" y="1188.17639" class="st6" width="82.6" height="32.87671"/>
	<text transform="matrix(1 0 0 1 359.7652 1202.61902)"><tspan x="0" y="0" class="st8 st9">165 Cape</tspan><tspan x="10.53809" y="13" class="st8 st9">Coral</tspan></text>
</g>
<g>
	<rect x="256.79999" y="166.62177" class="st6" width="82.6" height="32.87671"/>
	<text transform="matrix(1 0 0 1 272.29706 186.62592)" class="st8 st9">24 Seattle</text>
</g>
<g>
	<rect x="85.6" y="203.10545" class="st6" width="82.6" height="32.87671"/>
	<text transform="matrix(1 0 0 1 120.48277 217.10957)"><tspan x="0" y="0" class="st8 st9">27</tspan><tspan x="-25.11768" y="13" class="st8 st9">Philadelphia</tspan></text>
</g>
<g>
	<rect x="256.79999" y="130.13808" class="st6" width="82.6" height="32.87671"/>
	<text transform="matrix(1 0 0 1 274.30292 150.14221)" class="st8 st9">19 Miami</text>
</g>
<g>
	<rect x="342.39999" y="130.13808" class="st6" width="82.6" height="32.87671"/>
	<text transform="matrix(1 0 0 1 354.90094 150.14221)" class="st8 st9">20 Chicago</text>
</g>
<g>
	<rect x="342.39999" y="20.687" class="st6" width="82.6" height="32.87671"/>
	<text transform="matrix(1 0 0 1 355.47855 40.69113)" class="st8 st9">5 San Jose</text>
</g>
<g>
	<rect x="256.79999" y="57.17069" class="st6" width="82.6" height="32.87671"/>
	<text transform="matrix(1 0 0 1 261.97281 77.17484)" class="st8 st9">9 Los Angeles</text>
</g>
<g>
	<rect x="85.6" y="57.17069" class="st6" width="82.6" height="32.87671"/>
	<text transform="matrix(1 0 0 1 123.69173 72.17484)"><tspan x="0" y="0" class="st8 st9">7</tspan><tspan x="-32.98242" y="13" class="st8 st9">San Francisco</tspan></text>
</g>
</svg>
