<?xml version="1.0" encoding="utf-8"?>
<!-- Generator: Adobe Illustrator 24.0.1, SVG Export Plug-In . SVG Version: 6.00 Build 0)  -->
<svg version="1.1" id="Layer_1" xmlns="http://www.w3.org/2000/svg" xmlns:xlink="http://www.w3.org/1999/xlink" x="0px" y="0px"
	 viewBox="0 0 1200 698" style="enable-background:new 0 0 1200 698;" xml:space="preserve">
<style type="text/css">
    @import url('https://fonts.googleapis.com/css?family=Merriweather:300|Roboto:300,500,700');
	.st0{fill:none;stroke:#BCBEC0;stroke-width:0.25;stroke-miterlimit:10;}
	.st1{fill:#E6E7E8;stroke:#FFFFFF;stroke-width:0.35;stroke-miterlimit:1;}
	.st2{font-family:'Merriweather';font-weight: 300;}
	.st3{font-size:16px;}
    .st3a{font-size:28px;}
	.st4{font-family:'Roboto';font-weight: 700;}
	.st5{font-family:'Roboto';font-weight: 300;}
	.st6{font-size:14px;}
	.st7{fill:#00B8A5;}
	.st8{fill:#A7A9AC;opacity:0;}
	.st9{font-family:'Roboto';font-weight: 500;}
	.st10{font-size:12px;}
	.st11{fill-rule:evenodd;clip-rule:evenodd;fill:#CCCCCC;}
	.st12{opacity:0;fill:#00B8A5;enable-background:new    ;}
    
    .muRect{fill:#000000;}
    .muRank{font-size:28px;font-family:'Roboto';font-weight: 700;opacity:1;fill:#00B8A5;enable-background:new    ;}
    .mu{font-size:12px;font-family:'Roboto';font-weight: 500;opacity:1;fill:#000000;}
    .muCircle{fill-rule:evenodd;clip-rule:evenodd;fill:#000000;}
    
    .hidetext{opacity:0;}
    .hover{cursor:pointer;}
    
    .hover:hover .st7{fill:#000000}
    .hover:hover .st10{fill:#000000;opacity:1;}
    .hover:hover .st11{fill:#000000}
    .hover:hover .hidetext{opacity:1;}
    .hover:hover .global{opacity:0;}
    
    .all:hover .muRect{fill:#00B8A5;}
    .all:hover .muRank{opacity:0;}
    .all:hover .mu{opacity:0;}
    .all:hover .muCircle{fill:#CCCCCC;}
    
    #munich:hover .muRect{fill:#000000;}
    #munich:hover .muRank{opacity:1;}
    #munich:hover .mu{opacity:1;}
    #munich:hover .muCircle{fill:#000000;}
</style>
<image style="overflow:visible;enable-background:new    ;" width="660" height="896" xlink:href="../img/germany.png"  transform="matrix(0.42857 0 0 0.42857 455.80585 310.45529)">
</image>
<path class="st0" d="M46.10248,175.65858c0-69.1592,18.95927-125.22382,42.34671-125.22382s42.34673,56.06461,42.34673,125.22382"/>
<path class="st0" d="M130.79591,175.65858c0-69.1592,7.94531-125.22382,17.74635-125.22382
	c9.80106,0,17.74637,56.06461,17.74637,125.22382"/>
<path class="st0" d="M166.28864,175.65858c0-69.1592,6.83119-125.22382,15.2579-125.22382s15.2579,56.06461,15.2579,125.22382"/>
<path class="st0" d="M196.80444,175.65858c0-69.1592,20.07339-125.22382,44.83517-125.22382s44.83517,56.06461,44.83517,125.22382"
	/>
<path class="st0" d="M286.47479,175.65858c0-69.1592,2.64844-125.22382,5.91544-125.22382
	c3.26703,0,5.91547,56.06461,5.91547,125.22382"/>
<path class="st0" d="M298.30569,175.65858c0-29.68715,6.50314-86.29486,14.52521-86.29486s14.52521,56.06461,14.52521,125.22383"/>
<path class="st0" d="M327.35611,214.58754c0-69.15921,26.9046-125.22382,60.09308-125.22382s60.09308,56.06461,60.09308,125.22382"
	/>
<path class="st0" d="M447.54227,214.58754c0-69.15921,6.62109-125.22382,14.78864-125.22382s14.78864,56.06461,14.78864,125.22382"
	/>
<path class="st0" d="M644.10248,253.51649c0-69.15921,10.80383-125.22383,24.1311-125.22383
	c13.32721,0,24.13104,56.06461,24.13104,125.22382"/>
<path class="st0" d="M477.11954,214.58754c0-69.15921,24.25616-125.22382,54.17764-125.22382
	c29.92145,0,54.17761,56.06461,54.17761,125.22382"/>
<path class="st0" d="M585.47479,214.58754c0-47.65935,13.12427-86.29488,29.31384-86.29488s29.31384,38.63553,29.31384,86.29488
	l-0.00049,38.92847"/>
<rect x="2" y="172.96428" class="st1" width="5.38862" height="15"/>
<rect x="7.91545" y="172.96428" class="st1" width="5.38862" height="15"/>
<rect x="13.83091" y="172.96428" class="st1" width="5.38862" height="15"/>
<rect x="19.74636" y="172.96428" class="st1" width="5.38862" height="15"/>
<rect x="25.66181" y="172.96428" class="st1" width="5.38862" height="15"/>
<rect x="31.57727" y="172.96428" class="st1" width="5.38862" height="15"/>
<rect x="37.49272" y="172.96428" class="st1" width="5.38862" height="15"/>
<rect x="49.32363" y="172.96428" class="st1" width="5.38862" height="15"/>
<rect x="55.23908" y="172.96428" class="st1" width="5.38862" height="15"/>
<rect x="62.09307" y="172.96428" class="st1" width="5.38862" height="15"/>
<rect x="68.00853" y="172.96428" class="st1" width="5.38862" height="15"/>
<rect x="73.92398" y="172.96428" class="st1" width="5.38862" height="15"/>
<rect x="79.83944" y="172.96428" class="st1" width="5.38862" height="15"/>
<rect x="85.75489" y="172.96428" class="st1" width="5.38862" height="15"/>
<rect x="91.67034" y="172.96428" class="st1" width="5.38862" height="15"/>
<rect x="97.58579" y="172.96428" class="st1" width="5.38862" height="15"/>
<rect x="103.50125" y="172.96428" class="st1" width="5.38862" height="15"/>
<rect x="109.4167" y="172.96428" class="st1" width="5.38862" height="15"/>
<rect x="115.33215" y="172.96428" class="st1" width="5.38862" height="15"/>
<rect x="122.18615" y="172.96428" class="st1" width="5.38862" height="15"/>
<rect x="134.01706" y="172.96428" class="st1" width="5.38863" height="15"/>
<rect x="139.93251" y="172.96428" class="st1" width="5.38863" height="15"/>
<rect x="145.84796" y="172.96428" class="st1" width="5.38863" height="15"/>
<rect x="151.76341" y="172.96428" class="st1" width="5.38863" height="15"/>
<rect x="157.67888" y="172.96428" class="st1" width="5.38863" height="15"/>
<rect x="169.50978" y="172.96428" class="st1" width="5.38863" height="15"/>
<rect x="175.42523" y="172.96428" class="st1" width="5.38863" height="15"/>
<rect x="182.27922" y="172.96428" class="st1" width="5.38863" height="15"/>
<rect x="188.19469" y="172.96428" class="st1" width="5.38863" height="15"/>
<rect x="200.02559" y="172.96428" class="st1" width="5.38863" height="15"/>
<rect x="205.94104" y="172.96428" class="st1" width="5.38863" height="15"/>
<rect x="211.85649" y="172.96428" class="st1" width="5.38863" height="15"/>
<rect x="217.77194" y="172.96428" class="st1" width="5.38863" height="15"/>
<rect x="223.68741" y="172.96428" class="st1" width="5.38863" height="15"/>
<rect x="229.60286" y="172.96428" class="st1" width="5.38863" height="15"/>
<rect x="235.51831" y="172.96428" class="st1" width="5.38863" height="15"/>
<rect x="242.3723" y="172.96428" class="st1" width="5.38863" height="15"/>
<rect x="248.28775" y="172.96428" class="st1" width="5.38863" height="15"/>
<rect x="254.20322" y="172.96428" class="st1" width="5.38861" height="15"/>
<rect x="260.11865" y="172.96428" class="st1" width="5.38861" height="15"/>
<rect x="266.03412" y="172.96428" class="st1" width="5.38861" height="15"/>
<rect x="271.94958" y="172.96428" class="st1" width="5.38861" height="15"/>
<rect x="277.86502" y="172.96428" class="st1" width="5.38861" height="15"/>
<rect x="289.69592" y="172.96428" class="st1" width="5.38861" height="15"/>
<rect x="301" y="211.89323" class="st1" width="5.38861" height="15"/>
<rect x="306.91547" y="211.89323" class="st1" width="5.38861" height="15"/>
<rect x="312.8309" y="211.89323" class="st1" width="5.38861" height="15"/>
<rect x="318.74637" y="211.89323" class="st1" width="5.38861" height="15"/>
<rect x="330.57727" y="211.89323" class="st1" width="5.38861" height="15"/>
<rect x="336.49271" y="211.89323" class="st1" width="5.38861" height="15"/>
<rect x="342.40817" y="211.89323" class="st1" width="5.38861" height="15"/>
<rect x="348.32364" y="211.89323" class="st1" width="5.38861" height="15"/>
<rect x="354.23907" y="211.89323" class="st1" width="5.38861" height="15"/>
<rect x="361.09308" y="211.89323" class="st1" width="5.38861" height="15"/>
<rect x="367.00851" y="211.89323" class="st1" width="5.38861" height="15"/>
<rect x="372.92398" y="211.89323" class="st1" width="5.38861" height="15"/>
<rect x="378.83945" y="211.89323" class="st1" width="5.38861" height="15"/>
<rect x="384.75488" y="211.89323" class="st1" width="5.38861" height="15"/>
<rect x="390.67035" y="211.89323" class="st1" width="5.38861" height="15"/>
<rect x="396.58578" y="211.89323" class="st1" width="5.38861" height="15"/>
<rect x="402.50125" y="211.89323" class="st1" width="5.38861" height="15"/>
<rect x="408.41672" y="211.89323" class="st1" width="5.38861" height="15"/>
<rect x="414.33215" y="211.89323" class="st1" width="5.38861" height="15"/>
<rect x="421.18616" y="211.89323" class="st1" width="5.38861" height="15"/>
<rect x="427.10159" y="211.89323" class="st1" width="5.38861" height="15"/>
<rect x="433.01706" y="211.89323" class="st1" width="5.38861" height="15"/>
<rect x="438.93253" y="211.89323" class="st1" width="5.38861" height="15"/>
<rect x="450.76343" y="211.89323" class="st1" width="5.38861" height="15"/>
<rect x="456.67886" y="211.89323" class="st1" width="5.38861" height="15"/>
<rect x="462.59433" y="211.89323" class="st1" width="5.38861" height="15"/>
<rect x="468.50977" y="211.89323" class="st1" width="5.38861" height="15"/>
<rect x="481.27924" y="211.89323" class="st1" width="5.38861" height="15"/>
<rect x="487.19467" y="211.89323" class="st1" width="5.38861" height="15"/>
<rect x="493.11014" y="211.89323" class="st1" width="5.38861" height="15"/>
<rect x="499.02557" y="211.89323" class="st1" width="5.38861" height="15"/>
<rect x="504.94104" y="211.89323" class="st1" width="5.38861" height="15"/>
<rect x="510.85651" y="211.89323" class="st1" width="5.38861" height="15"/>
<rect x="516.77197" y="211.89323" class="st1" width="5.38861" height="15"/>
<rect x="522.68738" y="211.89323" class="st1" width="5.38861" height="15"/>
<rect x="528.60284" y="211.89323" class="st1" width="5.38861" height="15"/>
<rect x="534.51831" y="211.89323" class="st1" width="5.38861" height="15"/>
<rect x="541.37231" y="211.89323" class="st1" width="5.38861" height="15"/>
<rect x="547.28778" y="211.89323" class="st1" width="5.38861" height="15"/>
<rect x="553.20319" y="211.89323" class="st1" width="5.38861" height="15"/>
<rect x="559.11865" y="211.89323" class="st1" width="5.38861" height="15"/>
<rect x="565.03412" y="211.89323" class="st1" width="5.38861" height="15"/>
<rect x="570.94958" y="211.89323" class="st1" width="5.38861" height="15"/>
<rect x="576.86505" y="211.89323" class="st1" width="5.38861" height="15"/>
<rect x="588.69592" y="211.89323" class="st1" width="5.38861" height="15"/>
<rect x="594.61139" y="211.89323" class="st1" width="5.38861" height="15"/>
<rect x="600" y="250.82217" class="st1" width="5.38861" height="15"/>
<rect x="605.91547" y="250.82217" class="st1" width="5.38861" height="15"/>
<rect x="611.83093" y="250.82217" class="st1" width="5.38861" height="15"/>
<rect x="617.74634" y="250.82217" class="st1" width="5.38861" height="15"/>
<rect x="623.6618" y="250.82217" class="st1" width="5.38861" height="15"/>
<rect x="629.57727" y="250.82217" class="st1" width="5.38861" height="15"/>
<rect x="635.49274" y="250.82217" class="st1" width="5.38861" height="15"/>
<rect x="647.32361" y="250.82217" class="st1" width="5.38861" height="15"/>
<rect x="653.23907" y="250.82217" class="st1" width="5.38861" height="15"/>
<rect x="660.09308" y="250.82217" class="st1" width="5.38861" height="15"/>
<rect x="666.00854" y="250.82217" class="st1" width="5.38861" height="15"/>
<rect x="671.92401" y="250.82217" class="st1" width="5.38861" height="15"/>
<rect x="677.83942" y="250.82217" class="st1" width="5.38861" height="15"/>
<rect x="683.75488" y="250.82217" class="st1" width="5.38861" height="15"/>
<rect id="_x3C_Rectangle_x3E__2_" x="695.58582" y="250.82217" class="st1" width="5.38861" height="15"/>
<rect x="701.50122" y="250.82217" class="st1" width="5.38861" height="15"/>
<rect x="707.41669" y="250.82217" class="st1" width="5.38861" height="15"/>
<rect x="713.33215" y="250.82217" class="st1" width="5.38861" height="15"/>
<rect x="720.18616" y="250.82217" class="st1" width="5.38861" height="15"/>
<rect x="726.10162" y="250.82217" class="st1" width="5.38861" height="15"/>
<rect x="732.01703" y="250.82217" class="st1" width="5.38861" height="15"/>
<rect x="737.9325" y="250.82217" class="st1" width="5.38861" height="15"/>
<rect x="743.84796" y="250.82217" class="st1" width="5.38861" height="15"/>
<rect x="749.76343" y="250.82217" class="st1" width="5.38861" height="15"/>
<rect x="755.67889" y="250.82217" class="st1" width="5.38861" height="15"/>
<rect x="761.5943" y="250.82217" class="st1" width="5.38861" height="15"/>
<rect x="767.50977" y="250.82217" class="st1" width="5.38861" height="15"/>
<rect x="773.42523" y="250.82217" class="st1" width="5.38861" height="15"/>
<rect x="780.27924" y="250.82217" class="st1" width="5.38861" height="15"/>
<rect x="786.1947" y="250.82217" class="st1" width="5.38861" height="15"/>
<rect x="792.11011" y="250.82217" class="st1" width="5.38861" height="15"/>
<rect x="798.02557" y="250.82217" class="st1" width="5.38861" height="15"/>
<rect x="803.94104" y="250.82217" class="st1" width="5.38861" height="15"/>
<rect x="809.85651" y="250.82217" class="st1" width="5.38861" height="15"/>
<rect x="815.77197" y="250.82217" class="st1" width="5.38861" height="15"/>
<rect x="821.68738" y="250.82217" class="st1" width="5.38861" height="15"/>
<rect x="827.60284" y="250.82217" class="st1" width="5.38861" height="15"/>
<rect x="833.51831" y="250.82217" class="st1" width="5.38861" height="15"/>
<rect x="840.37231" y="250.82217" class="st1" width="5.38861" height="15"/>
<rect x="846.28778" y="250.82217" class="st1" width="5.38861" height="15"/>
<rect x="852.20319" y="250.82217" class="st1" width="5.38861" height="15"/>
<rect x="858.11865" y="250.82217" class="st1" width="5.38861" height="15"/>
<rect x="864.03412" y="250.82217" class="st1" width="5.38861" height="15"/>
<rect x="869.94958" y="250.82217" class="st1" width="5.38861" height="15"/>
<rect x="875.86505" y="250.82217" class="st1" width="5.38861" height="15"/>
<rect x="881.78046" y="250.82217" class="st1" width="5.38861" height="15"/>
<rect x="887.69592" y="250.82217" class="st1" width="5.38861" height="15"/>
<rect x="893.61139" y="250.82217" class="st1" width="5.38861" height="15"/>
<rect x="899" y="289.75113" class="st1" width="5.38861" height="15"/>
<rect x="904.91547" y="289.75113" class="st1" width="5.38861" height="15"/>
<rect x="910.83093" y="289.75113" class="st1" width="5.38861" height="15"/>
<rect x="916.74634" y="289.75113" class="st1" width="5.38861" height="15"/>
<rect x="922.6618" y="289.75113" class="st1" width="5.38861" height="15"/>
<rect x="928.57727" y="289.75113" class="st1" width="5.38861" height="15"/>
<rect x="934.49274" y="289.75113" class="st1" width="5.38861" height="15"/>
<rect x="940.4082" y="289.75113" class="st1" width="5.38861" height="15"/>
<rect x="946.32361" y="289.75113" class="st1" width="5.38861" height="15"/>
<rect x="952.23907" y="289.75113" class="st1" width="5.38861" height="15"/>
<rect x="959.09308" y="289.75113" class="st1" width="5.38861" height="15"/>
<rect x="965.00854" y="289.75113" class="st1" width="5.38861" height="15"/>
<rect x="970.92401" y="289.75113" class="st1" width="5.38861" height="15"/>
<rect x="976.83942" y="289.75113" class="st1" width="5.38861" height="15"/>
<rect x="982.75488" y="289.75113" class="st1" width="5.38861" height="15"/>
<rect x="988.67035" y="289.75113" class="st1" width="5.38861" height="15"/>
<rect x="994.58582" y="289.75113" class="st1" width="5.38861" height="15"/>
<rect x="1000.50122" y="289.75113" class="st1" width="5.38861" height="15"/>
<rect x="1006.41669" y="289.75113" class="st1" width="5.38861" height="15"/>
<rect x="1012.33215" y="289.75113" class="st1" width="5.38861" height="15"/>
<rect x="1019.18616" y="289.75113" class="st1" width="5.38867" height="15"/>
<rect x="1025.10156" y="289.75113" class="st1" width="5.38867" height="15"/>
<rect x="1031.01709" y="289.75113" class="st1" width="5.38867" height="15"/>
<rect x="1036.9325" y="289.75113" class="st1" width="5.38867" height="15"/>
<rect x="1042.84802" y="289.75113" class="st1" width="5.38867" height="15"/>
<rect x="1048.76343" y="289.75113" class="st1" width="5.38867" height="15"/>
<rect x="1054.67883" y="289.75113" class="st1" width="5.38867" height="15"/>
<rect x="1060.59436" y="289.75113" class="st1" width="5.38867" height="15"/>
<rect x="1066.50977" y="289.75113" class="st1" width="5.38867" height="15"/>
<rect x="1072.42529" y="289.75113" class="st1" width="5.38867" height="15"/>
<rect x="1079.27917" y="289.75113" class="st1" width="5.38867" height="15"/>
<rect x="1085.1947" y="289.75113" class="st1" width="5.38867" height="15"/>
<rect x="1091.11011" y="289.75113" class="st1" width="5.38867" height="15"/>
<rect x="1097.02563" y="289.75113" class="st1" width="5.38867" height="15"/>
<rect x="1102.94104" y="289.75113" class="st1" width="5.38867" height="15"/>
<rect x="1108.85645" y="289.75113" class="st1" width="5.38867" height="15"/>
<rect x="1114.77197" y="289.75113" class="st1" width="5.38867" height="15"/>
<rect x="1120.68738" y="289.75113" class="st1" width="5.38867" height="15"/>
<rect x="1126.60291" y="289.75113" class="st1" width="5.38867" height="15"/>
<rect x="1132.51831" y="289.75113" class="st1" width="5.38867" height="15"/>
<rect x="1139.37231" y="289.75113" class="st1" width="5.38867" height="15"/>
<rect x="1145.28772" y="289.75113" class="st1" width="5.38867" height="15"/>
<rect x="1151.20325" y="289.75113" class="st1" width="5.38867" height="15"/>
<rect x="1157.11865" y="289.75113" class="st1" width="5.38867" height="15"/>
<rect x="1163.03406" y="289.75113" class="st1" width="5.38867" height="15"/>
<rect x="1168.94958" y="289.75113" class="st1" width="5.38867" height="15"/>
<rect x="1174.86499" y="289.75113" class="st1" width="5.38867" height="15"/>
<rect x="1180.78052" y="289.75113" class="st1" width="5.38867" height="15"/>
<rect x="1186.69592" y="289.75113" class="st1" width="5.38867" height="15"/>
<rect x="1192.61133" y="289.75113" class="st1" width="5.38867" height="15"/>
<text transform="matrix(1.00001 0 0 1.00001 126.53989 210.77203)" class="st2 st3">1 to 50</text>
<text transform="matrix(1.00001 0 0 1.00001 417.04404 249.98065)" class="st2 st3">51 to 100</text>
<text transform="matrix(1.00001 0 0 1.00001 712.61975 288.66376)" class="st2 st3">101 to 150</text>
<text transform="matrix(1.00001 0 0 1.00001 1010.29138 327.59985)" class="st2 st3">151 to 200</text>
<text transform="matrix(1 0 0 1 5 30)" class="st5 st6">City position</text>
<text transform="matrix(1 0 0 1 125 350)" class="st4 st3">GERMANY</text>
<text transform="matrix(1 0 0 1 125 400)" class="st5 st6">Global rank</text>
<g class="all">
<g class="hover">
	<rect x="128.10161" y="172.96428" class="st7" width="5.38863" height="15"/>
	<circle class="st11" cx="542.23645" cy="557.42816" r="4"/>
	<text transform="matrix(1 0 0 1 549.21924 561.28711)" class="st8 st9 st10">Frankfurt am Main</text>
	<text transform="matrix(1 0 0 1 125 380.5)" class="st12 st4 st3a hidetext">22 Frankfurt am Main</text>
</g>
<g class="hover">
	<rect x="163.59433" y="172.96428" class="st7" width="5.38863" height="15"/>
	<circle class="st11" cx="555.59802" cy="621.02936" r="4"/>
	<g>
		<text transform="matrix(1 0 0 1 562.29736 625.15625)" class="st8 st9 st10">Stuttgart</text>
		<text transform="matrix(1 0 0 1 125 380.5)" class="st12 st4 st3a hidetext">28 Stuttgart</text>
	</g>
</g>
<g class="hover">
	<rect x="194.11014" y="172.96428" class="st7" width="5.38863" height="15"/>
	<circle class="st11" cx="494.86246" cy="508.6026" r="4"/>
	<g>
		<text transform="matrix(1 0 0 1 501.93506 512.28613)" class="st8 st9 st10">Dusseldorf</text>
		<text transform="matrix(1 0 0 1 125 380.5)" class="st12 st4 st3a hidetext">33 Dusseldorf</text>
	</g>
</g>
<g class="hover">
	<rect x="474.42523" y="211.89323" class="st7" width="5.38861" height="15"/>
	<circle class="st11" cx="496.24149" cy="495.61841" r="4"/>
	<g>
		<text transform="matrix(1 0 0 1 473.66016 487.46582)" class="st8 st9 st10">Essen</text>
		<text transform="matrix(1 0 0 1 125 380.5)" class="st12 st4 st3a hidetext">80 Essen</text>
	</g>
</g>
<g class="hover">
	<rect x="582.78046" y="211.89323" class="st7" width="5.38861" height="15"/>
	<circle class="st11" cx="519.98718" cy="490.82507" r="4"/>
	<g>
		<text transform="matrix(1 0 0 1 527.06396 494.78613)" class="st8 st9 st10">Dortmund</text>
		<text transform="matrix(1 0 0 1 125 380.5)" class="st12 st4 st3a hidetext">98 Dortmund</text>
	</g>
</g>
<g class="hover">
	<rect x="641.4082" y="250.82217" class="st7" width="5.38861" height="15"/>
	<circle class="st11" cx="691.85284" cy="516.15765" r="4"/>
	<g>
		<text transform="matrix(1 0 0 1 640.22754 518.98535)" class="st8 st9 st10">Dresden</text>
		<text transform="matrix(1 0 0 1 125 380.5)" class="st12 st4 st3a hidetext">108 Dresden</text>
	</g>
</g>
<g class="hover">
	<rect x="689.67035" y="250.82217" class="st7" width="5.38861" height="15"/>
	<circle class="st11" cx="661.71149" cy="499.29831" r="4"/>
	<g>
		<text transform="matrix(1 0 0 1 668.78027 502.96875)" class="st8 st9 st10">Leipzig</text>
		<text transform="matrix(1 0 0 1 125 380.5)" class="st12 st4 st3a hidetext">116 Leipzig</text>
	</g>
</g>
<g class="hover">
	<rect x="444.84796" y="211.89323" class="st7" width="5.38861" height="15"/>
	<circle class="st11" cx="586.03632" cy="450.05899" r="4"/>
	<g>
		<text transform="matrix(1 0 0 1 527.52148 452.49414)" class="st8 st9 st10">Hannover</text>
		<text transform="matrix(1 0 0 1 125 380.5)" class="st12 st4 st3a hidetext">75 Hannover</text>
	</g>
</g>
<g class="hover">
	<rect x="324.6618" y="211.89323" class="st7" width="5.38861" height="15"/>
	<circle class="st11" cx="504.52994" cy="519.51617" r="4"/>
	<g>
		<text transform="matrix(1 0 0 1 493.69141 535.02832)" class="st8 st9 st10">Cologne</text>
		<text transform="matrix(1 0 0 1 125 380.5)" class="st12 st4 st3a hidetext">55 Cologne</text>
	</g>
</g>
<g class="hover">
	<rect x="283.78049" y="172.96428" class="st7" width="5.38861" height="15"/>
	<circle class="st11" cx="684.9884" cy="440.38062" r="4"/>
	<g>
		<text transform="matrix(1 0 0 1 670.12793 432.30664)" class="st8 st9 st10">Berlin</text>
		<text transform="matrix(1 0 0 1 125 380.5)" class="st12 st4 st3a hidetext">48 Berlin</text>
	</g>
</g>
<g class="hover">
	<rect x="295.61139" y="172.96428" class="st7" width="5.38861" height="15"/>
	<circle class="st11" cx="591.21844" cy="397.75812" r="4"/>
	<g>
		<text transform="matrix(1 0 0 1 598.20068 401.61035)" class="st8 st9 st10">Hamburg</text>
		<text transform="matrix(1 0 0 1 125 380.5)" class="st12 st4 st3a hidetext">50 Hamburg</text>
	</g>
</g>
<g id="munich">
	<rect x="43.40817" y="172.96428" class="muRect" width="5.38862" height="15"/>
	<text transform="matrix(1 0 0 1 576.67188 650.95996)" class="mu">Munich</text>
	<circle class="muCircle" cx="623.23041" cy="647.89655" r="4"/>
	<text transform="matrix(1 0 0 1 125 380.5)" class="muRank">8 Munich</text>
</g>
</g>
</svg>
