<?xml version="1.0" encoding="utf-8"?>
<!-- Generator: Adobe Illustrator 24.0.1, SVG Export Plug-In . SVG Version: 6.00 Build 0)  -->
<svg version="1.1" id="Layer_1" xmlns="http://www.w3.org/2000/svg" xmlns:xlink="http://www.w3.org/1999/xlink" x="0px" y="0px"
	 viewBox="0 0 96 540" style="enable-background:new 0 0 96 540;" xml:space="preserve">
<style type="text/css">
    @import url('https://fonts.googleapis.com/css?family=Roboto:300,400');
	.st0{fill:#C9C9C9;}
	.st1{font-family:'Roboto';font-weight: 400;}
	.st2{font-size:15px;}
	.st3{fill:#FFFFFF;}
	.st4{font-family:'Roboto';font-weight: 300;}
	.st5{font-size:16px;}
</style>
<rect x="32.5" y="428.1" class="st0" width="31" height="103.9"/>
<path d="M48,42V4.8c21.1,0,38,17.5,37.2,38.7c-0.7,19.3-16.5,35-35.8,35.8C28.2,80,10.7,63.1,10.7,42C10.7,21.4,27.4,4.8,48,4.8l0,0
	V42z"/>
<text transform="matrix(1 0 0 1 25.4703 95.9192)" class="st1 st2">26,100</text>
<text transform="matrix(1 0 0 1 29.6823 227.9031)" class="st1 st2">4,821</text>
<path d="M48,175.3v-31.5c17.4,0,31.5,14.1,31.5,31.5S65.4,206.9,48,206.9s-31.5-14.1-31.5-31.5s14.1-31.5,31.5-31.5l0,0V175.3z"/>
<path d="M48,312.3v-28.7c15.9,0,28.7,12.9,28.7,28.7c0,15.9-12.9,28.7-28.7,28.7s-28.7-12.9-28.7-28.7c0-15.9,12.9-28.7,28.7-28.7
	l0,0V312.3z"/>
<g>
	<text transform="matrix(1 0 0 1 25.4703 374.1724)" class="st1 st2">38,784</text>
</g>
<rect x="32.5" y="445.1" width="31" height="86.9"/>
<g>
	<text transform="matrix(1 0 0 1 33.3918 487.5181)" class="st3 st1 st2">83.7</text>
</g>
<text transform="matrix(1 0 0 1 34.6351 423.8636)" class="st0 st4 st5">100</text>
</svg>
