<?xml version="1.0" encoding="utf-8"?>
<!-- Generator: Adobe Illustrator 24.0.1, SVG Export Plug-In . SVG Version: 6.00 Build 0)  -->
<svg version="1.1" id="Layer_1" xmlns="http://www.w3.org/2000/svg" xmlns:xlink="http://www.w3.org/1999/xlink" x="0px" y="0px"
	 viewBox="0 0 960 335" style="enable-background:new 0 0 960 335;" xml:space="preserve">
<style type="text/css">
    @import url('https://fonts.googleapis.com/css?family=Merriweather:300|Roboto:300,400,500,700');
	.st0{fill:#85878A;}
	.st1{fill:#231F20;}
	.st2{font-family:'Roboto';font-weight: 300;}
	.st3{font-size:15px;}
	.st4{fill:#E51D60;}
	.st5{fill:#CFD0D3;}
	.st6{font-family:'Merriweather';font-weight: 300;}
	.st7{font-size:63.41743px;}
	.st8{fill:#E6E7E7;}
	.st9{fill:none;stroke:#E51D60;stroke-width:0.5;stroke-miterlimit:10;}
	.st10{fill:none;stroke:#231F20;stroke-width:0.5;stroke-miterlimit:10;}
	.st11{fill:#010101;}
	.st12{font-family:'Roboto';font-weight: 400;}
</style>
<rect x="371.88907" y="121.82629" class="st0" width="6.0211" height="3.7688"/>
<text transform="matrix(1 0 0 1 382.08701 126.70357)" class="st1 st2 st3">US cities</text>
<rect x="447.36606" y="121.82629" class="st4" width="6.0211" height="3.7688"/>
<text transform="matrix(1 0 0 1 457.564 126.70357)" class="st1 st2 st3">Chinese cities</text>
<text transform="matrix(1 0 0 1 161.63583 196.11301)" class="st5 st6 st7">A</text>
<text transform="matrix(1 0 0 1 305.70584 196.11301)" class="st5 st6 st7">B</text>
<text transform="matrix(1 0 0 1 497.32761 196.11301)" class="st5 st6 st7">C</text>
<g>
	<text transform="matrix(1 0 0 1 156.23123 219.02568)" class="st1 st2 st3">A+</text>
</g>
<g>
	<text transform="matrix(1 0 0 1 188.50546 219.02568)" class="st1 st2 st3">A</text>
</g>
<g>
	<text transform="matrix(1 0 0 1 306.70505 219.02568)" class="st1 st2 st3">B+</text>
</g>
<g>
	<text transform="matrix(1 0 0 1 339.11948 219.02568)" class="st1 st2 st3">B</text>
</g>
<g>
	<text transform="matrix(1 0 0 1 516.46136 219.02568)" class="st1 st2 st3">C+</text>
</g>
<g>
	<text transform="matrix(1 0 0 1 583.771 219.02568)" class="st1 st2 st3">C</text>
</g>
<rect x="168.2067" y="222.3307" class="st0" width="2.72381" height="30.89128"/>
<rect x="170.93051" y="222.3307" class="st8" width="2.72381" height="30.89128"/>
<rect x="173.65433" y="222.3307" class="st8" width="2.72381" height="30.89128"/>
<rect x="191.74287" y="222.3307" class="st4" width="2.72381" height="30.89128"/>
<rect x="306.65088" y="222.3307" class="st8" width="2.72381" height="30.89128"/>
<rect x="309.37469" y="222.3307" class="st4" width="2.72381" height="30.89128"/>
<rect x="312.09851" y="222.3307" class="st0" width="2.72381" height="30.89128"/>
<rect x="326.96939" y="222.3307" class="st4" width="2.72381" height="30.89128"/>
<rect x="329.69321" y="222.3307" class="st8" width="2.72381" height="30.89128"/>
<rect x="332.41702" y="222.3307" class="st8" width="2.72381" height="30.89128"/>
<rect x="335.14084" y="222.3307" class="st8" width="2.72381" height="30.89128"/>
<rect x="337.86465" y="222.3307" class="st0" width="2.72381" height="30.89128"/>
<rect x="340.58847" y="222.3307" class="st0" width="2.72381" height="30.89128"/>
<rect x="343.31226" y="222.3307" class="st8" width="2.72381" height="30.89128"/>
<rect x="346.03607" y="222.3307" class="st8" width="2.72381" height="30.89128"/>
<rect x="348.75989" y="222.3307" class="st8" width="2.72381" height="30.89128"/>
<rect x="351.4837" y="222.3307" class="st8" width="2.72381" height="30.89128"/>
<rect x="354.20752" y="222.3307" class="st0" width="2.72381" height="30.89128"/>
<rect x="356.93134" y="222.3307" class="st0" width="2.72381" height="30.89128"/>
<rect x="359.65515" y="222.3307" class="st8" width="2.72381" height="30.89128"/>
<rect x="362.37897" y="222.3307" class="st8" width="2.72381" height="30.89128"/>
<rect x="365.10278" y="222.3307" class="st0" width="2.72381" height="30.89128"/>
<rect x="367.8266" y="222.3307" class="st8" width="2.72381" height="30.89128"/>
<rect x="370.55042" y="222.3307" class="st8" width="2.72381" height="30.89128"/>
<rect x="373.27423" y="222.3307" class="st0" width="2.72381" height="30.89128"/>
<rect x="375.99805" y="222.3307" class="st8" width="2.72381" height="30.89128"/>
<rect x="378.72186" y="222.3307" class="st8" width="2.72381" height="30.89128"/>
<rect x="381.44568" y="222.3307" class="st8" width="2.72381" height="30.89128"/>
<rect x="384.16949" y="222.3307" class="st8" width="2.72381" height="30.89128"/>
<rect x="386.89331" y="222.3307" class="st8" width="2.72381" height="30.89128"/>
<rect x="389.61713" y="222.3307" class="st8" width="2.72381" height="30.89128"/>
<rect x="392.34094" y="222.3307" class="st8" width="2.72381" height="30.89128"/>
<rect x="395.06476" y="222.3307" class="st8" width="2.72381" height="30.89128"/>
<rect x="496.3345" y="222.3307" class="st8" width="2.72381" height="30.89128"/>
<rect x="499.05832" y="222.3307" class="st8" width="2.72381" height="30.89128"/>
<rect x="501.78214" y="222.3307" class="st8" width="2.72381" height="30.89128"/>
<rect x="504.50595" y="222.3307" class="st0" width="2.72381" height="30.89128"/>
<rect x="507.22977" y="222.3307" class="st8" width="2.72381" height="30.89128"/>
<rect x="509.95358" y="222.3307" class="st4" width="2.72381" height="30.89128"/>
<rect x="512.67737" y="222.3307" class="st8" width="2.72381" height="30.89128"/>
<rect x="515.40118" y="222.3307" class="st4" width="2.72381" height="30.89128"/>
<rect x="518.125" y="222.3307" class="st8" width="2.72381" height="30.89128"/>
<rect x="520.84882" y="222.3307" class="st0" width="2.72381" height="30.89128"/>
<rect x="523.57263" y="222.3307" class="st8" width="2.72381" height="30.89128"/>
<rect x="526.29645" y="222.3307" class="st0" width="2.72381" height="30.89128"/>
<rect x="529.02026" y="222.3307" class="st8" width="2.72381" height="30.89128"/>
<rect x="531.74408" y="222.3307" class="st8" width="2.72381" height="30.89128"/>
<rect x="534.4679" y="222.3307" class="st8" width="2.72381" height="30.89128"/>
<rect x="537.19171" y="222.3307" class="st8" width="2.72381" height="30.89128"/>
<rect x="539.91553" y="222.3307" class="st8" width="2.72381" height="30.89128"/>
<rect x="542.63934" y="222.3307" class="st8" width="2.72381" height="30.89128"/>
<rect x="545.36316" y="222.3307" class="st0" width="2.72381" height="30.89128"/>
<rect x="548.08698" y="222.3307" class="st8" width="2.72381" height="30.89128"/>
<rect x="550.81079" y="222.3307" class="st8" width="2.72381" height="30.89128"/>
<rect x="553.53461" y="222.3307" class="st0" width="2.72381" height="30.89128"/>
<rect x="556.25842" y="222.3307" class="st8" width="2.72381" height="30.89128"/>
<rect x="558.98224" y="222.3307" class="st8" width="2.72381" height="30.89128"/>
<rect x="561.70605" y="222.3307" class="st4" width="2.72381" height="30.89128"/>
<rect x="564.42987" y="222.3307" class="st4" width="2.72381" height="30.89128"/>
<rect x="567.15369" y="222.3307" class="st0" width="2.72381" height="30.89128"/>
<rect x="569.8775" y="222.3307" class="st8" width="2.72381" height="30.89128"/>
<rect x="572.60132" y="222.3307" class="st8" width="2.72381" height="30.89128"/>
<rect x="587.08691" y="222.3307" class="st8" width="2.72381" height="30.89128"/>
<rect x="589.81073" y="222.3307" class="st8" width="2.72381" height="30.89128"/>
<rect x="592.53455" y="222.3307" class="st4" width="2.72381" height="30.89128"/>
<rect x="595.25836" y="222.3307" class="st8" width="2.72381" height="30.89128"/>
<rect x="597.98218" y="222.3307" class="st8" width="2.72381" height="30.89128"/>
<rect x="600.70599" y="222.3307" class="st4" width="2.72381" height="30.89128"/>
<rect x="603.42981" y="222.3307" class="st8" width="2.72381" height="30.89128"/>
<rect x="606.15363" y="222.3307" class="st8" width="2.72381" height="30.89128"/>
<rect x="608.87744" y="222.3307" class="st8" width="2.72381" height="30.89128"/>
<rect x="611.60126" y="222.3307" class="st4" width="2.72381" height="30.89128"/>
<rect x="614.32507" y="222.3307" class="st0" width="2.72381" height="30.89128"/>
<rect x="617.04889" y="222.3307" class="st8" width="2.72381" height="30.89128"/>
<rect x="619.77271" y="222.3307" class="st4" width="2.72381" height="30.89128"/>
<rect x="622.49652" y="222.3307" class="st4" width="2.72381" height="30.89128"/>
<rect x="625.22034" y="222.3307" class="st0" width="2.72381" height="30.89128"/>
<rect x="627.94415" y="222.3307" class="st0" width="2.72381" height="30.89128"/>
<rect x="630.66797" y="222.3307" class="st8" width="2.72381" height="30.89128"/>
<rect x="633.39178" y="222.3307" class="st8" width="2.72381" height="30.89128"/>
<rect x="636.1156" y="222.3307" class="st8" width="2.72381" height="30.89128"/>
<rect x="638.83942" y="222.3307" class="st0" width="2.72381" height="30.89128"/>
<rect x="641.56323" y="222.3307" class="st8" width="2.72381" height="30.89128"/>
<rect x="644.28705" y="222.3307" class="st0" width="2.72381" height="30.89128"/>
<rect x="647.01086" y="222.3307" class="st8" width="2.72381" height="30.89128"/>
<rect x="649.73468" y="222.3307" class="st0" width="2.72381" height="30.89128"/>
<rect x="652.4585" y="222.3307" class="st8" width="2.72381" height="30.89128"/>
<rect x="655.18231" y="222.3307" class="st8" width="2.72381" height="30.89128"/>
<rect x="657.90613" y="222.3307" class="st8" width="2.72381" height="30.89128"/>
<rect x="660.62994" y="222.3307" class="st8" width="2.72381" height="30.89128"/>
<rect x="663.35376" y="222.3307" class="st0" width="2.72381" height="30.89128"/>
<rect x="666.07758" y="222.3307" class="st0" width="2.72381" height="30.89128"/>
<rect x="668.80139" y="222.3307" class="st8" width="2.72381" height="30.89128"/>
<rect x="671.52515" y="222.3307" class="st8" width="2.72381" height="30.89128"/>
<rect x="674.24896" y="222.3307" class="st4" width="2.72381" height="30.89128"/>
<rect x="676.97278" y="222.3307" class="st8" width="2.72381" height="30.89128"/>
<rect x="679.69659" y="222.3307" class="st8" width="2.72381" height="30.89128"/>
<rect x="682.42041" y="222.3307" class="st0" width="2.72381" height="30.89128"/>
<rect x="685.14423" y="222.3307" class="st0" width="2.72381" height="30.89128"/>
<rect x="687.86804" y="222.3307" class="st0" width="2.72381" height="30.89128"/>
<rect x="690.59186" y="222.3307" class="st4" width="2.72381" height="30.89128"/>
<rect x="693.31567" y="222.3307" class="st8" width="2.72381" height="30.89128"/>
<rect x="696.03949" y="222.3307" class="st8" width="2.72381" height="30.89128"/>
<rect x="698.76331" y="222.3307" class="st8" width="2.72381" height="30.89128"/>
<rect x="701.48712" y="222.3307" class="st0" width="2.72381" height="30.89128"/>
<rect x="704.21094" y="222.3307" class="st8" width="2.72381" height="30.89128"/>
<rect x="706.93475" y="222.3307" class="st4" width="2.72381" height="30.89128"/>
<rect x="709.65857" y="222.3307" class="st0" width="2.72381" height="30.89128"/>
<rect x="712.38239" y="222.3307" class="st8" width="2.72381" height="30.89128"/>
<rect x="715.1062" y="222.3307" class="st8" width="2.72381" height="30.89128"/>
<rect x="717.83002" y="222.3307" class="st4" width="2.72381" height="30.89128"/>
<rect x="720.55383" y="222.3307" class="st8" width="2.72381" height="30.89128"/>
<rect x="723.27765" y="222.3307" class="st8" width="2.72381" height="30.89128"/>
<rect x="726.00146" y="222.3307" class="st8" width="2.72381" height="30.89128"/>
<rect x="728.72528" y="222.3307" class="st0" width="2.72381" height="30.89128"/>
<rect x="731.4491" y="222.3307" class="st4" width="2.72381" height="30.89128"/>
<rect x="734.17291" y="222.3307" class="st8" width="2.72381" height="30.89128"/>
<rect x="736.89673" y="222.3307" class="st8" width="2.72381" height="30.89128"/>
<rect x="739.62054" y="222.3307" class="st8" width="2.72381" height="30.89128"/>
<rect x="742.34436" y="222.3307" class="st8" width="2.72381" height="30.89128"/>
<rect x="745.06818" y="222.3307" class="st4" width="2.72381" height="30.89128"/>
<rect x="747.79199" y="222.3307" class="st0" width="2.72381" height="30.89128"/>
<rect x="750.51581" y="222.3307" class="st0" width="2.72381" height="30.89128"/>
<rect x="753.23962" y="222.3307" class="st8" width="2.72381" height="30.89128"/>
<rect x="755.96344" y="222.3307" class="st0" width="2.72381" height="30.89128"/>
<rect x="758.68726" y="222.3307" class="st8" width="2.72381" height="30.89128"/>
<rect x="761.41107" y="222.3307" class="st8" width="2.72381" height="30.89128"/>
<rect x="764.13489" y="222.3307" class="st0" width="2.72381" height="30.89128"/>
<rect x="766.8587" y="222.3307" class="st4" width="2.72381" height="30.89128"/>
<rect x="769.58252" y="222.3307" class="st0" width="2.72381" height="30.89128"/>
<rect x="772.30634" y="222.3307" class="st0" width="2.72381" height="30.89128"/>
<rect x="775.03015" y="222.3307" class="st8" width="2.72381" height="30.89128"/>
<rect x="777.75397" y="222.3307" class="st4" width="2.72381" height="30.89128"/>
<rect x="780.47778" y="222.3307" class="st8" width="2.72381" height="30.89128"/>
<rect x="783.2016" y="222.3307" class="st8" width="2.72381" height="30.89128"/>
<rect x="785.92542" y="222.3307" class="st8" width="2.72381" height="30.89128"/>
<rect x="788.64923" y="222.3307" class="st4" width="2.72381" height="30.89128"/>
<rect x="791.37299" y="222.3307" class="st8" width="2.72381" height="30.89128"/>
<rect x="794.0968" y="222.3307" class="st8" width="2.72381" height="30.89128"/>
<rect x="796.82062" y="222.3307" class="st8" width="2.72381" height="30.89128"/>
<rect x="799.54443" y="222.3307" class="st0" width="2.72381" height="30.89128"/>
<rect x="802.26825" y="222.3307" class="st4" width="2.72381" height="30.89128"/>
<rect x="804.99207" y="222.3307" class="st8" width="2.72381" height="30.89128"/>
<rect x="807.71588" y="222.3307" class="st8" width="2.72381" height="30.89128"/>
<rect x="810.4397" y="222.3307" class="st8" width="2.72381" height="30.89128"/>
<rect x="813.16351" y="222.3307" class="st8" width="2.72381" height="30.89128"/>
<rect x="815.88733" y="222.3307" class="st8" width="2.72381" height="30.89128"/>
<rect x="818.61115" y="222.3307" class="st0" width="2.72381" height="30.89128"/>
<rect x="821.33496" y="222.3307" class="st4" width="2.72381" height="30.89128"/>
<rect x="824.05878" y="222.3307" class="st8" width="2.72381" height="30.89128"/>
<rect x="826.78259" y="222.3307" class="st4" width="2.72381" height="30.89128"/>
<rect x="829.50641" y="222.3307" class="st8" width="2.72381" height="30.89128"/>
<rect x="832.23022" y="222.3307" class="st4" width="2.72381" height="30.89128"/>
<rect x="834.95404" y="222.3307" class="st8" width="2.72381" height="30.89128"/>
<rect x="837.67786" y="222.3307" class="st0" width="2.72381" height="30.89128"/>
<rect x="840.40167" y="222.3307" class="st8" width="2.72381" height="30.89128"/>
<rect x="843.12549" y="222.3307" class="st0" width="2.72381" height="30.89128"/>
<rect x="845.8493" y="222.3307" class="st0" width="2.72381" height="30.89128"/>
<rect x="194.46669" y="222.3307" class="st8" width="2.72381" height="30.89128"/>
<text transform="matrix(1 0 0 1 110.95084 293.57919)" class="st1 st2 st3">New York</text>
<text transform="matrix(1 0 0 1 191.59781 293.57919)" class="st4 st2 st3">Beijing</text>
<text transform="matrix(1 0 0 1 251.96805 293.57919)" class="st4 st2 st3">Shanghai</text>
<text transform="matrix(1 0 0 1 326.64011 293.57919)" class="st4 st2 st3">Hong Kong</text>
<line class="st9" x1="193.10478" y1="253.22198" x2="193.10478" y2="281.05255"/>
<line class="st10" x1="169.5686" y1="253.22198" x2="169.5686" y2="281.05255"/>
<line class="st9" x1="310.7366" y1="253.22198" x2="310.7366" y2="281.05255"/>
<line class="st9" x1="328.3313" y1="253.22198" x2="328.3313" y2="281.05255"/>
<text transform="matrix(1 0 0 1 437.24356 293.57919)" class="st4 st2 st3">Guangzhou</text>
<line class="st9" x1="511.54309" y1="253.22198" x2="511.54309" y2="281.05255"/>
<text transform="matrix(1 0 0 1 521.0769 293.57919)" class="st4 st2 st3">Chengdu</text>
<text transform="matrix(1 0 0 1 587.36694 293.57919)" class="st4 st2 st3">Nanjing</text>
<line class="st9" x1="563.23547" y1="253.22198" x2="563.23547" y2="281.05255"/>
<path class="st9" d="M565.79175,253.22198v7.34286c0,0-0.80237,14.89291,11.74786,14.89291
	c12.55029,0,16.55341,3.50793,17.20258,5.59479"/>
<text transform="matrix(1 0 0 1 453.49869 328.284)" class="st4 st2 st3">Shenzhen</text>
<line class="st9" x1="517.16345" y1="253.22198" x2="517.16345" y2="315.75729"/>
<text transform="matrix(1 0 0 1 364.08792 17.95524)" class="st11 st12 st3">A+, A</text>
<text transform="matrix(1 0 0 1 428.06363 17.95524)" class="st11 st2 st3">Global city</text>
<text transform="matrix(1 0 0 1 364.98148 36.5775)" class="st11 st12 st3">B+, B</text>
<text transform="matrix(1 0 0 1 428.06363 36.5775)" class="st11 st2 st3">International hub city</text>
<text transform="matrix(1 0 0 1 364.13187 55.19975)" class="st11 st12 st3">C+, C</text>
<text transform="matrix(1 0 0 1 428.06363 55.19975)" class="st11 st2 st3">International gateway city</text>
<text transform="matrix(1 0 0 1 363.98538 73.82207)" class="st11 st12 st3">D+, D</text>
<text transform="matrix(1 0 0 1 428.06363 73.82207)" class="st11 st2 st3">Regional hub city</text>
<text transform="matrix(1 0 0 1 364.08792 92.44438)" class="st11 st12 st3">E+, E</text>
<text transform="matrix(1 0 0 1 428.06363 92.44438)" class="st11 st2 st3">Regional gateway city</text>
</svg>
